M48
; DRILL file {KiCad 9.0.2} date 2025-05-13T17:31:34+0200
; FORMAT={-:-/ absolute / metric / decimal}
; #@! TF.CreationDate,2025-05-13T17:31:34+02:00
; #@! TF.GenerationSoftware,Kicad,Pcbnew,9.0.2
; #@! TF.FileFunction,Plated,1,2,PTH
FMAT,2
METRIC
; #@! TA.AperFunction,Plated,PTH,ViaDrill
T1C0.300
; #@! TA.AperFunction,Plated,PTH,ComponentDrill
T2C0.300
; #@! TA.AperFunction,Plated,PTH,ComponentDrill
T3C0.500
; #@! TA.AperFunction,Plated,PTH,ComponentDrill
T4C1.000
; #@! TA.AperFunction,Plated,PTH,ComponentDrill
T5C1.300
%
G90
G05
T1
X46.482Y-36.703
X47.764Y-59.023
X47.863Y-92.785
X48.526Y-60.8
X48.879Y-94.563
X50.431Y-57.374
X50.431Y-64.359
X50.53Y-91.261
X50.53Y-98.121
X53.467Y-39.751
X56.327Y-39.116
X57.277Y-39.116
X57.798Y-40.754
X57.953Y-49.657
X58.294Y-38.713
X58.903Y-49.657
X67.818Y-103.481
X68.834Y-103.481
X73.635Y-61.316
X76.835Y-104.754
X76.984Y-62.441
X86.995Y-67.056
T2
X47.639Y-46.736
X48.639Y-46.736
X49.639Y-46.736
X54.894Y-32.111
X54.894Y-34.111
X58.894Y-32.111
X58.894Y-34.111
T4
X43.459Y-59.807
X43.459Y-62.347
X43.586Y-93.492
X43.586Y-96.032
X66.929Y-46.355
X66.929Y-48.895
X67.691Y-112.9
X69.088Y-59.688
X69.088Y-100.328
X70.231Y-112.9
X72.771Y-112.9
X75.311Y-112.9
X77.851Y-112.9
X80.391Y-112.9
X86.868Y-59.688
X86.868Y-100.328
T5
X65.404Y-40.005
X70.104Y-40.005
X74.804Y-40.005
T3
X52.564Y-33.131G85X52.564Y-32.331
G05
X52.564Y-37.481G85X52.564Y-36.381
G05
X61.224Y-33.131G85X61.224Y-32.331
G05
X61.224Y-37.481G85X61.224Y-36.381
G05
T4
X79.501Y-39.846G85X79.501Y-41.846
G05
X85.201Y-37.846G85X83.201Y-37.846
G05
X85.201Y-43.846G85X83.201Y-43.846
G05
M30
