%TF.GenerationSoftware,KiCad,Pcbnew,9.0.2*%
%TF.CreationDate,2025-05-13T17:31:34+02:00*%
%TF.ProjectId,CCFL2LED,4343464c-324c-4454-942e-6b696361645f,rev?*%
%TF.SameCoordinates,Original*%
%TF.FileFunction,Drillmap*%
%TF.FilePolarity,Positive*%
%FSLAX45Y45*%
G04 Gerber Fmt 4.5, Leading zero omitted, Abs format (unit mm)*
G04 Created by KiCad (PCBNEW 9.0.2) date 2025-05-13 17:31:34*
%MOMM*%
%LPD*%
G01*
G04 APERTURE LIST*
%ADD10C,0.100000*%
%ADD11C,0.200000*%
%ADD12C,0.130000*%
%ADD13C,0.220000*%
G04 APERTURE END LIST*
D10*
X9499865Y-3302000D02*
X9499865Y-11214100D01*
X3987800Y-3302000D02*
G75*
G02*
X4292600Y-2997200I304800J0D01*
G01*
X4292600Y-2997200D02*
X9207500Y-2997200D01*
X3987800Y-11201400D02*
X3987800Y-3302000D01*
X9207500Y-2997200D02*
G75*
G02*
X9499865Y-3302000I-12700J-304800D01*
G01*
X9194800Y-11506200D02*
X4292600Y-11506200D01*
X4292600Y-11506200D02*
G75*
G02*
X3987800Y-11201400I0J304800D01*
G01*
X9499865Y-11214100D02*
G75*
G02*
X9194800Y-11506729I-305065J12700D01*
G01*
D11*
D10*
X5370400Y-3611100D02*
X5430400Y-3671100D01*
X5430400Y-3611100D02*
X5370400Y-3671100D01*
X5948400Y-3611100D02*
X6008400Y-3671100D01*
X6008400Y-3611100D02*
X5948400Y-3671100D01*
D12*
X6415400Y-3160500D02*
G75*
G02*
X6285400Y-3160500I-65000J0D01*
G01*
X6285400Y-3160500D02*
G75*
G02*
X6415400Y-3160500I65000J0D01*
G01*
X7735400Y-3160500D02*
G75*
G02*
X7605400Y-3160500I-65000J0D01*
G01*
X7605400Y-3160500D02*
G75*
G02*
X7735400Y-3160500I65000J0D01*
G01*
D13*
X4292600Y-3192000D02*
X4292600Y-3412000D01*
X4182600Y-3302000D02*
X4402600Y-3302000D01*
X4292600Y-11091400D02*
X4292600Y-11311400D01*
X4182600Y-11201400D02*
X4402600Y-11201400D01*
X9207500Y-3192000D02*
X9207500Y-3412000D01*
X9097500Y-3302000D02*
X9317500Y-3302000D01*
X9207500Y-11091400D02*
X9207500Y-11311400D01*
X9097500Y-11201400D02*
X9317500Y-11201400D01*
D11*
X4243577Y-11823212D02*
X4243577Y-11623212D01*
X4243577Y-11623212D02*
X4291196Y-11623212D01*
X4291196Y-11623212D02*
X4319767Y-11632736D01*
X4319767Y-11632736D02*
X4338815Y-11651784D01*
X4338815Y-11651784D02*
X4348339Y-11670831D01*
X4348339Y-11670831D02*
X4357863Y-11708927D01*
X4357863Y-11708927D02*
X4357863Y-11737498D01*
X4357863Y-11737498D02*
X4348339Y-11775593D01*
X4348339Y-11775593D02*
X4338815Y-11794641D01*
X4338815Y-11794641D02*
X4319767Y-11813689D01*
X4319767Y-11813689D02*
X4291196Y-11823212D01*
X4291196Y-11823212D02*
X4243577Y-11823212D01*
X4443577Y-11823212D02*
X4443577Y-11689879D01*
X4443577Y-11727974D02*
X4453101Y-11708927D01*
X4453101Y-11708927D02*
X4462624Y-11699403D01*
X4462624Y-11699403D02*
X4481672Y-11689879D01*
X4481672Y-11689879D02*
X4500720Y-11689879D01*
X4567386Y-11823212D02*
X4567386Y-11689879D01*
X4567386Y-11623212D02*
X4557863Y-11632736D01*
X4557863Y-11632736D02*
X4567386Y-11642260D01*
X4567386Y-11642260D02*
X4576910Y-11632736D01*
X4576910Y-11632736D02*
X4567386Y-11623212D01*
X4567386Y-11623212D02*
X4567386Y-11642260D01*
X4691196Y-11823212D02*
X4672148Y-11813689D01*
X4672148Y-11813689D02*
X4662624Y-11794641D01*
X4662624Y-11794641D02*
X4662624Y-11623212D01*
X4795958Y-11823212D02*
X4776910Y-11813689D01*
X4776910Y-11813689D02*
X4767386Y-11794641D01*
X4767386Y-11794641D02*
X4767386Y-11623212D01*
X5024529Y-11823212D02*
X5024529Y-11623212D01*
X5024529Y-11623212D02*
X5091196Y-11766070D01*
X5091196Y-11766070D02*
X5157863Y-11623212D01*
X5157863Y-11623212D02*
X5157863Y-11823212D01*
X5338815Y-11823212D02*
X5338815Y-11718451D01*
X5338815Y-11718451D02*
X5329291Y-11699403D01*
X5329291Y-11699403D02*
X5310244Y-11689879D01*
X5310244Y-11689879D02*
X5272148Y-11689879D01*
X5272148Y-11689879D02*
X5253101Y-11699403D01*
X5338815Y-11813689D02*
X5319767Y-11823212D01*
X5319767Y-11823212D02*
X5272148Y-11823212D01*
X5272148Y-11823212D02*
X5253101Y-11813689D01*
X5253101Y-11813689D02*
X5243577Y-11794641D01*
X5243577Y-11794641D02*
X5243577Y-11775593D01*
X5243577Y-11775593D02*
X5253101Y-11756546D01*
X5253101Y-11756546D02*
X5272148Y-11747022D01*
X5272148Y-11747022D02*
X5319767Y-11747022D01*
X5319767Y-11747022D02*
X5338815Y-11737498D01*
X5434053Y-11689879D02*
X5434053Y-11889879D01*
X5434053Y-11699403D02*
X5453101Y-11689879D01*
X5453101Y-11689879D02*
X5491196Y-11689879D01*
X5491196Y-11689879D02*
X5510244Y-11699403D01*
X5510244Y-11699403D02*
X5519767Y-11708927D01*
X5519767Y-11708927D02*
X5529291Y-11727974D01*
X5529291Y-11727974D02*
X5529291Y-11785117D01*
X5529291Y-11785117D02*
X5519767Y-11804165D01*
X5519767Y-11804165D02*
X5510244Y-11813689D01*
X5510244Y-11813689D02*
X5491196Y-11823212D01*
X5491196Y-11823212D02*
X5453101Y-11823212D01*
X5453101Y-11823212D02*
X5434053Y-11813689D01*
X5615005Y-11804165D02*
X5624529Y-11813689D01*
X5624529Y-11813689D02*
X5615005Y-11823212D01*
X5615005Y-11823212D02*
X5605482Y-11813689D01*
X5605482Y-11813689D02*
X5615005Y-11804165D01*
X5615005Y-11804165D02*
X5615005Y-11823212D01*
X5615005Y-11699403D02*
X5624529Y-11708927D01*
X5624529Y-11708927D02*
X5615005Y-11718451D01*
X5615005Y-11718451D02*
X5605482Y-11708927D01*
X5605482Y-11708927D02*
X5615005Y-11699403D01*
X5615005Y-11699403D02*
X5615005Y-11718451D01*
D10*
X3922800Y-12121729D02*
X3982800Y-12181729D01*
X3982800Y-12121729D02*
X3922800Y-12181729D01*
D11*
X4281672Y-12043212D02*
X4300720Y-12043212D01*
X4300720Y-12043212D02*
X4319767Y-12052736D01*
X4319767Y-12052736D02*
X4329291Y-12062260D01*
X4329291Y-12062260D02*
X4338815Y-12081308D01*
X4338815Y-12081308D02*
X4348339Y-12119403D01*
X4348339Y-12119403D02*
X4348339Y-12167022D01*
X4348339Y-12167022D02*
X4338815Y-12205117D01*
X4338815Y-12205117D02*
X4329291Y-12224165D01*
X4329291Y-12224165D02*
X4319767Y-12233689D01*
X4319767Y-12233689D02*
X4300720Y-12243212D01*
X4300720Y-12243212D02*
X4281672Y-12243212D01*
X4281672Y-12243212D02*
X4262624Y-12233689D01*
X4262624Y-12233689D02*
X4253101Y-12224165D01*
X4253101Y-12224165D02*
X4243577Y-12205117D01*
X4243577Y-12205117D02*
X4234053Y-12167022D01*
X4234053Y-12167022D02*
X4234053Y-12119403D01*
X4234053Y-12119403D02*
X4243577Y-12081308D01*
X4243577Y-12081308D02*
X4253101Y-12062260D01*
X4253101Y-12062260D02*
X4262624Y-12052736D01*
X4262624Y-12052736D02*
X4281672Y-12043212D01*
X4434053Y-12224165D02*
X4443577Y-12233689D01*
X4443577Y-12233689D02*
X4434053Y-12243212D01*
X4434053Y-12243212D02*
X4424529Y-12233689D01*
X4424529Y-12233689D02*
X4434053Y-12224165D01*
X4434053Y-12224165D02*
X4434053Y-12243212D01*
X4615005Y-12043212D02*
X4576910Y-12043212D01*
X4576910Y-12043212D02*
X4557863Y-12052736D01*
X4557863Y-12052736D02*
X4548339Y-12062260D01*
X4548339Y-12062260D02*
X4529291Y-12090831D01*
X4529291Y-12090831D02*
X4519767Y-12128927D01*
X4519767Y-12128927D02*
X4519767Y-12205117D01*
X4519767Y-12205117D02*
X4529291Y-12224165D01*
X4529291Y-12224165D02*
X4538815Y-12233689D01*
X4538815Y-12233689D02*
X4557863Y-12243212D01*
X4557863Y-12243212D02*
X4595958Y-12243212D01*
X4595958Y-12243212D02*
X4615005Y-12233689D01*
X4615005Y-12233689D02*
X4624529Y-12224165D01*
X4624529Y-12224165D02*
X4634053Y-12205117D01*
X4634053Y-12205117D02*
X4634053Y-12157498D01*
X4634053Y-12157498D02*
X4624529Y-12138451D01*
X4624529Y-12138451D02*
X4615005Y-12128927D01*
X4615005Y-12128927D02*
X4595958Y-12119403D01*
X4595958Y-12119403D02*
X4557863Y-12119403D01*
X4557863Y-12119403D02*
X4538815Y-12128927D01*
X4538815Y-12128927D02*
X4529291Y-12138451D01*
X4529291Y-12138451D02*
X4519767Y-12157498D01*
X4757863Y-12043212D02*
X4776910Y-12043212D01*
X4776910Y-12043212D02*
X4795958Y-12052736D01*
X4795958Y-12052736D02*
X4805482Y-12062260D01*
X4805482Y-12062260D02*
X4815005Y-12081308D01*
X4815005Y-12081308D02*
X4824529Y-12119403D01*
X4824529Y-12119403D02*
X4824529Y-12167022D01*
X4824529Y-12167022D02*
X4815005Y-12205117D01*
X4815005Y-12205117D02*
X4805482Y-12224165D01*
X4805482Y-12224165D02*
X4795958Y-12233689D01*
X4795958Y-12233689D02*
X4776910Y-12243212D01*
X4776910Y-12243212D02*
X4757863Y-12243212D01*
X4757863Y-12243212D02*
X4738815Y-12233689D01*
X4738815Y-12233689D02*
X4729291Y-12224165D01*
X4729291Y-12224165D02*
X4719767Y-12205117D01*
X4719767Y-12205117D02*
X4710244Y-12167022D01*
X4710244Y-12167022D02*
X4710244Y-12119403D01*
X4710244Y-12119403D02*
X4719767Y-12081308D01*
X4719767Y-12081308D02*
X4729291Y-12062260D01*
X4729291Y-12062260D02*
X4738815Y-12052736D01*
X4738815Y-12052736D02*
X4757863Y-12043212D01*
X4948339Y-12043212D02*
X4967386Y-12043212D01*
X4967386Y-12043212D02*
X4986434Y-12052736D01*
X4986434Y-12052736D02*
X4995958Y-12062260D01*
X4995958Y-12062260D02*
X5005482Y-12081308D01*
X5005482Y-12081308D02*
X5015005Y-12119403D01*
X5015005Y-12119403D02*
X5015005Y-12167022D01*
X5015005Y-12167022D02*
X5005482Y-12205117D01*
X5005482Y-12205117D02*
X4995958Y-12224165D01*
X4995958Y-12224165D02*
X4986434Y-12233689D01*
X4986434Y-12233689D02*
X4967386Y-12243212D01*
X4967386Y-12243212D02*
X4948339Y-12243212D01*
X4948339Y-12243212D02*
X4929291Y-12233689D01*
X4929291Y-12233689D02*
X4919767Y-12224165D01*
X4919767Y-12224165D02*
X4910244Y-12205117D01*
X4910244Y-12205117D02*
X4900720Y-12167022D01*
X4900720Y-12167022D02*
X4900720Y-12119403D01*
X4900720Y-12119403D02*
X4910244Y-12081308D01*
X4910244Y-12081308D02*
X4919767Y-12062260D01*
X4919767Y-12062260D02*
X4929291Y-12052736D01*
X4929291Y-12052736D02*
X4948339Y-12043212D01*
X5100720Y-12243212D02*
X5100720Y-12109879D01*
X5100720Y-12128927D02*
X5110244Y-12119403D01*
X5110244Y-12119403D02*
X5129291Y-12109879D01*
X5129291Y-12109879D02*
X5157863Y-12109879D01*
X5157863Y-12109879D02*
X5176910Y-12119403D01*
X5176910Y-12119403D02*
X5186434Y-12138451D01*
X5186434Y-12138451D02*
X5186434Y-12243212D01*
X5186434Y-12138451D02*
X5195958Y-12119403D01*
X5195958Y-12119403D02*
X5215005Y-12109879D01*
X5215005Y-12109879D02*
X5243577Y-12109879D01*
X5243577Y-12109879D02*
X5262625Y-12119403D01*
X5262625Y-12119403D02*
X5272148Y-12138451D01*
X5272148Y-12138451D02*
X5272148Y-12243212D01*
X5367386Y-12243212D02*
X5367386Y-12109879D01*
X5367386Y-12128927D02*
X5376910Y-12119403D01*
X5376910Y-12119403D02*
X5395958Y-12109879D01*
X5395958Y-12109879D02*
X5424529Y-12109879D01*
X5424529Y-12109879D02*
X5443577Y-12119403D01*
X5443577Y-12119403D02*
X5453101Y-12138451D01*
X5453101Y-12138451D02*
X5453101Y-12243212D01*
X5453101Y-12138451D02*
X5462625Y-12119403D01*
X5462625Y-12119403D02*
X5481672Y-12109879D01*
X5481672Y-12109879D02*
X5510244Y-12109879D01*
X5510244Y-12109879D02*
X5529291Y-12119403D01*
X5529291Y-12119403D02*
X5538815Y-12138451D01*
X5538815Y-12138451D02*
X5538815Y-12243212D01*
X5929291Y-12033689D02*
X5757863Y-12290831D01*
X6186434Y-12043212D02*
X6205482Y-12043212D01*
X6205482Y-12043212D02*
X6224529Y-12052736D01*
X6224529Y-12052736D02*
X6234053Y-12062260D01*
X6234053Y-12062260D02*
X6243577Y-12081308D01*
X6243577Y-12081308D02*
X6253101Y-12119403D01*
X6253101Y-12119403D02*
X6253101Y-12167022D01*
X6253101Y-12167022D02*
X6243577Y-12205117D01*
X6243577Y-12205117D02*
X6234053Y-12224165D01*
X6234053Y-12224165D02*
X6224529Y-12233689D01*
X6224529Y-12233689D02*
X6205482Y-12243212D01*
X6205482Y-12243212D02*
X6186434Y-12243212D01*
X6186434Y-12243212D02*
X6167386Y-12233689D01*
X6167386Y-12233689D02*
X6157863Y-12224165D01*
X6157863Y-12224165D02*
X6148339Y-12205117D01*
X6148339Y-12205117D02*
X6138815Y-12167022D01*
X6138815Y-12167022D02*
X6138815Y-12119403D01*
X6138815Y-12119403D02*
X6148339Y-12081308D01*
X6148339Y-12081308D02*
X6157863Y-12062260D01*
X6157863Y-12062260D02*
X6167386Y-12052736D01*
X6167386Y-12052736D02*
X6186434Y-12043212D01*
X6338815Y-12224165D02*
X6348339Y-12233689D01*
X6348339Y-12233689D02*
X6338815Y-12243212D01*
X6338815Y-12243212D02*
X6329291Y-12233689D01*
X6329291Y-12233689D02*
X6338815Y-12224165D01*
X6338815Y-12224165D02*
X6338815Y-12243212D01*
X6472148Y-12043212D02*
X6491196Y-12043212D01*
X6491196Y-12043212D02*
X6510244Y-12052736D01*
X6510244Y-12052736D02*
X6519767Y-12062260D01*
X6519767Y-12062260D02*
X6529291Y-12081308D01*
X6529291Y-12081308D02*
X6538815Y-12119403D01*
X6538815Y-12119403D02*
X6538815Y-12167022D01*
X6538815Y-12167022D02*
X6529291Y-12205117D01*
X6529291Y-12205117D02*
X6519767Y-12224165D01*
X6519767Y-12224165D02*
X6510244Y-12233689D01*
X6510244Y-12233689D02*
X6491196Y-12243212D01*
X6491196Y-12243212D02*
X6472148Y-12243212D01*
X6472148Y-12243212D02*
X6453101Y-12233689D01*
X6453101Y-12233689D02*
X6443577Y-12224165D01*
X6443577Y-12224165D02*
X6434053Y-12205117D01*
X6434053Y-12205117D02*
X6424529Y-12167022D01*
X6424529Y-12167022D02*
X6424529Y-12119403D01*
X6424529Y-12119403D02*
X6434053Y-12081308D01*
X6434053Y-12081308D02*
X6443577Y-12062260D01*
X6443577Y-12062260D02*
X6453101Y-12052736D01*
X6453101Y-12052736D02*
X6472148Y-12043212D01*
X6615006Y-12062260D02*
X6624529Y-12052736D01*
X6624529Y-12052736D02*
X6643577Y-12043212D01*
X6643577Y-12043212D02*
X6691196Y-12043212D01*
X6691196Y-12043212D02*
X6710244Y-12052736D01*
X6710244Y-12052736D02*
X6719767Y-12062260D01*
X6719767Y-12062260D02*
X6729291Y-12081308D01*
X6729291Y-12081308D02*
X6729291Y-12100355D01*
X6729291Y-12100355D02*
X6719767Y-12128927D01*
X6719767Y-12128927D02*
X6605482Y-12243212D01*
X6605482Y-12243212D02*
X6729291Y-12243212D01*
X6795958Y-12043212D02*
X6919767Y-12043212D01*
X6919767Y-12043212D02*
X6853101Y-12119403D01*
X6853101Y-12119403D02*
X6881672Y-12119403D01*
X6881672Y-12119403D02*
X6900720Y-12128927D01*
X6900720Y-12128927D02*
X6910244Y-12138451D01*
X6910244Y-12138451D02*
X6919767Y-12157498D01*
X6919767Y-12157498D02*
X6919767Y-12205117D01*
X6919767Y-12205117D02*
X6910244Y-12224165D01*
X6910244Y-12224165D02*
X6900720Y-12233689D01*
X6900720Y-12233689D02*
X6881672Y-12243212D01*
X6881672Y-12243212D02*
X6824529Y-12243212D01*
X6824529Y-12243212D02*
X6805482Y-12233689D01*
X6805482Y-12233689D02*
X6795958Y-12224165D01*
X7091196Y-12043212D02*
X7053101Y-12043212D01*
X7053101Y-12043212D02*
X7034053Y-12052736D01*
X7034053Y-12052736D02*
X7024529Y-12062260D01*
X7024529Y-12062260D02*
X7005482Y-12090831D01*
X7005482Y-12090831D02*
X6995958Y-12128927D01*
X6995958Y-12128927D02*
X6995958Y-12205117D01*
X6995958Y-12205117D02*
X7005482Y-12224165D01*
X7005482Y-12224165D02*
X7015006Y-12233689D01*
X7015006Y-12233689D02*
X7034053Y-12243212D01*
X7034053Y-12243212D02*
X7072148Y-12243212D01*
X7072148Y-12243212D02*
X7091196Y-12233689D01*
X7091196Y-12233689D02*
X7100720Y-12224165D01*
X7100720Y-12224165D02*
X7110244Y-12205117D01*
X7110244Y-12205117D02*
X7110244Y-12157498D01*
X7110244Y-12157498D02*
X7100720Y-12138451D01*
X7100720Y-12138451D02*
X7091196Y-12128927D01*
X7091196Y-12128927D02*
X7072148Y-12119403D01*
X7072148Y-12119403D02*
X7034053Y-12119403D01*
X7034053Y-12119403D02*
X7015006Y-12128927D01*
X7015006Y-12128927D02*
X7005482Y-12138451D01*
X7005482Y-12138451D02*
X6995958Y-12157498D01*
X7186434Y-12043212D02*
X7186434Y-12081308D01*
X7262625Y-12043212D02*
X7262625Y-12081308D01*
X7557863Y-12319403D02*
X7548339Y-12309879D01*
X7548339Y-12309879D02*
X7529291Y-12281308D01*
X7529291Y-12281308D02*
X7519768Y-12262260D01*
X7519768Y-12262260D02*
X7510244Y-12233689D01*
X7510244Y-12233689D02*
X7500720Y-12186070D01*
X7500720Y-12186070D02*
X7500720Y-12147974D01*
X7500720Y-12147974D02*
X7510244Y-12100355D01*
X7510244Y-12100355D02*
X7519768Y-12071784D01*
X7519768Y-12071784D02*
X7529291Y-12052736D01*
X7529291Y-12052736D02*
X7548339Y-12024165D01*
X7548339Y-12024165D02*
X7557863Y-12014641D01*
X7624529Y-12062260D02*
X7634053Y-12052736D01*
X7634053Y-12052736D02*
X7653101Y-12043212D01*
X7653101Y-12043212D02*
X7700720Y-12043212D01*
X7700720Y-12043212D02*
X7719768Y-12052736D01*
X7719768Y-12052736D02*
X7729291Y-12062260D01*
X7729291Y-12062260D02*
X7738815Y-12081308D01*
X7738815Y-12081308D02*
X7738815Y-12100355D01*
X7738815Y-12100355D02*
X7729291Y-12128927D01*
X7729291Y-12128927D02*
X7615006Y-12243212D01*
X7615006Y-12243212D02*
X7738815Y-12243212D01*
X7976910Y-12243212D02*
X7976910Y-12043212D01*
X8062625Y-12243212D02*
X8062625Y-12138451D01*
X8062625Y-12138451D02*
X8053101Y-12119403D01*
X8053101Y-12119403D02*
X8034053Y-12109879D01*
X8034053Y-12109879D02*
X8005482Y-12109879D01*
X8005482Y-12109879D02*
X7986434Y-12119403D01*
X7986434Y-12119403D02*
X7976910Y-12128927D01*
X8186434Y-12243212D02*
X8167387Y-12233689D01*
X8167387Y-12233689D02*
X8157863Y-12224165D01*
X8157863Y-12224165D02*
X8148339Y-12205117D01*
X8148339Y-12205117D02*
X8148339Y-12147974D01*
X8148339Y-12147974D02*
X8157863Y-12128927D01*
X8157863Y-12128927D02*
X8167387Y-12119403D01*
X8167387Y-12119403D02*
X8186434Y-12109879D01*
X8186434Y-12109879D02*
X8215006Y-12109879D01*
X8215006Y-12109879D02*
X8234053Y-12119403D01*
X8234053Y-12119403D02*
X8243577Y-12128927D01*
X8243577Y-12128927D02*
X8253101Y-12147974D01*
X8253101Y-12147974D02*
X8253101Y-12205117D01*
X8253101Y-12205117D02*
X8243577Y-12224165D01*
X8243577Y-12224165D02*
X8234053Y-12233689D01*
X8234053Y-12233689D02*
X8215006Y-12243212D01*
X8215006Y-12243212D02*
X8186434Y-12243212D01*
X8367387Y-12243212D02*
X8348339Y-12233689D01*
X8348339Y-12233689D02*
X8338815Y-12214641D01*
X8338815Y-12214641D02*
X8338815Y-12043212D01*
X8519768Y-12233689D02*
X8500720Y-12243212D01*
X8500720Y-12243212D02*
X8462625Y-12243212D01*
X8462625Y-12243212D02*
X8443577Y-12233689D01*
X8443577Y-12233689D02*
X8434053Y-12214641D01*
X8434053Y-12214641D02*
X8434053Y-12138451D01*
X8434053Y-12138451D02*
X8443577Y-12119403D01*
X8443577Y-12119403D02*
X8462625Y-12109879D01*
X8462625Y-12109879D02*
X8500720Y-12109879D01*
X8500720Y-12109879D02*
X8519768Y-12119403D01*
X8519768Y-12119403D02*
X8529292Y-12138451D01*
X8529292Y-12138451D02*
X8529292Y-12157498D01*
X8529292Y-12157498D02*
X8434053Y-12176546D01*
X8605482Y-12233689D02*
X8624530Y-12243212D01*
X8624530Y-12243212D02*
X8662625Y-12243212D01*
X8662625Y-12243212D02*
X8681673Y-12233689D01*
X8681673Y-12233689D02*
X8691196Y-12214641D01*
X8691196Y-12214641D02*
X8691196Y-12205117D01*
X8691196Y-12205117D02*
X8681673Y-12186070D01*
X8681673Y-12186070D02*
X8662625Y-12176546D01*
X8662625Y-12176546D02*
X8634053Y-12176546D01*
X8634053Y-12176546D02*
X8615006Y-12167022D01*
X8615006Y-12167022D02*
X8605482Y-12147974D01*
X8605482Y-12147974D02*
X8605482Y-12138451D01*
X8605482Y-12138451D02*
X8615006Y-12119403D01*
X8615006Y-12119403D02*
X8634053Y-12109879D01*
X8634053Y-12109879D02*
X8662625Y-12109879D01*
X8662625Y-12109879D02*
X8681673Y-12119403D01*
X8757863Y-12319403D02*
X8767387Y-12309879D01*
X8767387Y-12309879D02*
X8786434Y-12281308D01*
X8786434Y-12281308D02*
X8795958Y-12262260D01*
X8795958Y-12262260D02*
X8805482Y-12233689D01*
X8805482Y-12233689D02*
X8815006Y-12186070D01*
X8815006Y-12186070D02*
X8815006Y-12147974D01*
X8815006Y-12147974D02*
X8805482Y-12100355D01*
X8805482Y-12100355D02*
X8795958Y-12071784D01*
X8795958Y-12071784D02*
X8786434Y-12052736D01*
X8786434Y-12052736D02*
X8767387Y-12024165D01*
X8767387Y-12024165D02*
X8757863Y-12014641D01*
X9119768Y-12319403D02*
X9110244Y-12309879D01*
X9110244Y-12309879D02*
X9091196Y-12281308D01*
X9091196Y-12281308D02*
X9081673Y-12262260D01*
X9081673Y-12262260D02*
X9072149Y-12233689D01*
X9072149Y-12233689D02*
X9062625Y-12186070D01*
X9062625Y-12186070D02*
X9062625Y-12147974D01*
X9062625Y-12147974D02*
X9072149Y-12100355D01*
X9072149Y-12100355D02*
X9081673Y-12071784D01*
X9081673Y-12071784D02*
X9091196Y-12052736D01*
X9091196Y-12052736D02*
X9110244Y-12024165D01*
X9110244Y-12024165D02*
X9119768Y-12014641D01*
X9195958Y-12109879D02*
X9195958Y-12243212D01*
X9195958Y-12128927D02*
X9205482Y-12119403D01*
X9205482Y-12119403D02*
X9224530Y-12109879D01*
X9224530Y-12109879D02*
X9253101Y-12109879D01*
X9253101Y-12109879D02*
X9272149Y-12119403D01*
X9272149Y-12119403D02*
X9281673Y-12138451D01*
X9281673Y-12138451D02*
X9281673Y-12243212D01*
X9405482Y-12243212D02*
X9386434Y-12233689D01*
X9386434Y-12233689D02*
X9376911Y-12224165D01*
X9376911Y-12224165D02*
X9367387Y-12205117D01*
X9367387Y-12205117D02*
X9367387Y-12147974D01*
X9367387Y-12147974D02*
X9376911Y-12128927D01*
X9376911Y-12128927D02*
X9386434Y-12119403D01*
X9386434Y-12119403D02*
X9405482Y-12109879D01*
X9405482Y-12109879D02*
X9434054Y-12109879D01*
X9434054Y-12109879D02*
X9453101Y-12119403D01*
X9453101Y-12119403D02*
X9462625Y-12128927D01*
X9462625Y-12128927D02*
X9472149Y-12147974D01*
X9472149Y-12147974D02*
X9472149Y-12205117D01*
X9472149Y-12205117D02*
X9462625Y-12224165D01*
X9462625Y-12224165D02*
X9453101Y-12233689D01*
X9453101Y-12233689D02*
X9434054Y-12243212D01*
X9434054Y-12243212D02*
X9405482Y-12243212D01*
X9529292Y-12109879D02*
X9605482Y-12109879D01*
X9557863Y-12043212D02*
X9557863Y-12214641D01*
X9557863Y-12214641D02*
X9567387Y-12233689D01*
X9567387Y-12233689D02*
X9586434Y-12243212D01*
X9586434Y-12243212D02*
X9605482Y-12243212D01*
X9824530Y-12109879D02*
X9824530Y-12309879D01*
X9824530Y-12119403D02*
X9843577Y-12109879D01*
X9843577Y-12109879D02*
X9881673Y-12109879D01*
X9881673Y-12109879D02*
X9900720Y-12119403D01*
X9900720Y-12119403D02*
X9910244Y-12128927D01*
X9910244Y-12128927D02*
X9919768Y-12147974D01*
X9919768Y-12147974D02*
X9919768Y-12205117D01*
X9919768Y-12205117D02*
X9910244Y-12224165D01*
X9910244Y-12224165D02*
X9900720Y-12233689D01*
X9900720Y-12233689D02*
X9881673Y-12243212D01*
X9881673Y-12243212D02*
X9843577Y-12243212D01*
X9843577Y-12243212D02*
X9824530Y-12233689D01*
X10034054Y-12243212D02*
X10015006Y-12233689D01*
X10015006Y-12233689D02*
X10005482Y-12214641D01*
X10005482Y-12214641D02*
X10005482Y-12043212D01*
X10195958Y-12243212D02*
X10195958Y-12138451D01*
X10195958Y-12138451D02*
X10186435Y-12119403D01*
X10186435Y-12119403D02*
X10167387Y-12109879D01*
X10167387Y-12109879D02*
X10129292Y-12109879D01*
X10129292Y-12109879D02*
X10110244Y-12119403D01*
X10195958Y-12233689D02*
X10176911Y-12243212D01*
X10176911Y-12243212D02*
X10129292Y-12243212D01*
X10129292Y-12243212D02*
X10110244Y-12233689D01*
X10110244Y-12233689D02*
X10100720Y-12214641D01*
X10100720Y-12214641D02*
X10100720Y-12195593D01*
X10100720Y-12195593D02*
X10110244Y-12176546D01*
X10110244Y-12176546D02*
X10129292Y-12167022D01*
X10129292Y-12167022D02*
X10176911Y-12167022D01*
X10176911Y-12167022D02*
X10195958Y-12157498D01*
X10262625Y-12109879D02*
X10338815Y-12109879D01*
X10291196Y-12043212D02*
X10291196Y-12214641D01*
X10291196Y-12214641D02*
X10300720Y-12233689D01*
X10300720Y-12233689D02*
X10319768Y-12243212D01*
X10319768Y-12243212D02*
X10338815Y-12243212D01*
X10481673Y-12233689D02*
X10462625Y-12243212D01*
X10462625Y-12243212D02*
X10424530Y-12243212D01*
X10424530Y-12243212D02*
X10405482Y-12233689D01*
X10405482Y-12233689D02*
X10395958Y-12214641D01*
X10395958Y-12214641D02*
X10395958Y-12138451D01*
X10395958Y-12138451D02*
X10405482Y-12119403D01*
X10405482Y-12119403D02*
X10424530Y-12109879D01*
X10424530Y-12109879D02*
X10462625Y-12109879D01*
X10462625Y-12109879D02*
X10481673Y-12119403D01*
X10481673Y-12119403D02*
X10491196Y-12138451D01*
X10491196Y-12138451D02*
X10491196Y-12157498D01*
X10491196Y-12157498D02*
X10395958Y-12176546D01*
X10662625Y-12243212D02*
X10662625Y-12043212D01*
X10662625Y-12233689D02*
X10643577Y-12243212D01*
X10643577Y-12243212D02*
X10605482Y-12243212D01*
X10605482Y-12243212D02*
X10586435Y-12233689D01*
X10586435Y-12233689D02*
X10576911Y-12224165D01*
X10576911Y-12224165D02*
X10567387Y-12205117D01*
X10567387Y-12205117D02*
X10567387Y-12147974D01*
X10567387Y-12147974D02*
X10576911Y-12128927D01*
X10576911Y-12128927D02*
X10586435Y-12119403D01*
X10586435Y-12119403D02*
X10605482Y-12109879D01*
X10605482Y-12109879D02*
X10643577Y-12109879D01*
X10643577Y-12109879D02*
X10662625Y-12119403D01*
X10738816Y-12319403D02*
X10748339Y-12309879D01*
X10748339Y-12309879D02*
X10767387Y-12281308D01*
X10767387Y-12281308D02*
X10776911Y-12262260D01*
X10776911Y-12262260D02*
X10786435Y-12233689D01*
X10786435Y-12233689D02*
X10795958Y-12186070D01*
X10795958Y-12186070D02*
X10795958Y-12147974D01*
X10795958Y-12147974D02*
X10786435Y-12100355D01*
X10786435Y-12100355D02*
X10776911Y-12071784D01*
X10776911Y-12071784D02*
X10767387Y-12052736D01*
X10767387Y-12052736D02*
X10748339Y-12024165D01*
X10748339Y-12024165D02*
X10738816Y-12014641D01*
D12*
X3982800Y-12415729D02*
G75*
G02*
X3852800Y-12415729I-65000J0D01*
G01*
X3852800Y-12415729D02*
G75*
G02*
X3982800Y-12415729I65000J0D01*
G01*
D11*
X4348339Y-12507212D02*
X4234053Y-12507212D01*
X4291196Y-12507212D02*
X4291196Y-12307212D01*
X4291196Y-12307212D02*
X4272148Y-12335784D01*
X4272148Y-12335784D02*
X4253101Y-12354831D01*
X4253101Y-12354831D02*
X4234053Y-12364355D01*
X4434053Y-12488165D02*
X4443577Y-12497689D01*
X4443577Y-12497689D02*
X4434053Y-12507212D01*
X4434053Y-12507212D02*
X4424529Y-12497689D01*
X4424529Y-12497689D02*
X4434053Y-12488165D01*
X4434053Y-12488165D02*
X4434053Y-12507212D01*
X4510244Y-12307212D02*
X4634053Y-12307212D01*
X4634053Y-12307212D02*
X4567386Y-12383403D01*
X4567386Y-12383403D02*
X4595958Y-12383403D01*
X4595958Y-12383403D02*
X4615005Y-12392927D01*
X4615005Y-12392927D02*
X4624529Y-12402451D01*
X4624529Y-12402451D02*
X4634053Y-12421498D01*
X4634053Y-12421498D02*
X4634053Y-12469117D01*
X4634053Y-12469117D02*
X4624529Y-12488165D01*
X4624529Y-12488165D02*
X4615005Y-12497689D01*
X4615005Y-12497689D02*
X4595958Y-12507212D01*
X4595958Y-12507212D02*
X4538815Y-12507212D01*
X4538815Y-12507212D02*
X4519767Y-12497689D01*
X4519767Y-12497689D02*
X4510244Y-12488165D01*
X4757863Y-12307212D02*
X4776910Y-12307212D01*
X4776910Y-12307212D02*
X4795958Y-12316736D01*
X4795958Y-12316736D02*
X4805482Y-12326260D01*
X4805482Y-12326260D02*
X4815005Y-12345308D01*
X4815005Y-12345308D02*
X4824529Y-12383403D01*
X4824529Y-12383403D02*
X4824529Y-12431022D01*
X4824529Y-12431022D02*
X4815005Y-12469117D01*
X4815005Y-12469117D02*
X4805482Y-12488165D01*
X4805482Y-12488165D02*
X4795958Y-12497689D01*
X4795958Y-12497689D02*
X4776910Y-12507212D01*
X4776910Y-12507212D02*
X4757863Y-12507212D01*
X4757863Y-12507212D02*
X4738815Y-12497689D01*
X4738815Y-12497689D02*
X4729291Y-12488165D01*
X4729291Y-12488165D02*
X4719767Y-12469117D01*
X4719767Y-12469117D02*
X4710244Y-12431022D01*
X4710244Y-12431022D02*
X4710244Y-12383403D01*
X4710244Y-12383403D02*
X4719767Y-12345308D01*
X4719767Y-12345308D02*
X4729291Y-12326260D01*
X4729291Y-12326260D02*
X4738815Y-12316736D01*
X4738815Y-12316736D02*
X4757863Y-12307212D01*
X4948339Y-12307212D02*
X4967386Y-12307212D01*
X4967386Y-12307212D02*
X4986434Y-12316736D01*
X4986434Y-12316736D02*
X4995958Y-12326260D01*
X4995958Y-12326260D02*
X5005482Y-12345308D01*
X5005482Y-12345308D02*
X5015005Y-12383403D01*
X5015005Y-12383403D02*
X5015005Y-12431022D01*
X5015005Y-12431022D02*
X5005482Y-12469117D01*
X5005482Y-12469117D02*
X4995958Y-12488165D01*
X4995958Y-12488165D02*
X4986434Y-12497689D01*
X4986434Y-12497689D02*
X4967386Y-12507212D01*
X4967386Y-12507212D02*
X4948339Y-12507212D01*
X4948339Y-12507212D02*
X4929291Y-12497689D01*
X4929291Y-12497689D02*
X4919767Y-12488165D01*
X4919767Y-12488165D02*
X4910244Y-12469117D01*
X4910244Y-12469117D02*
X4900720Y-12431022D01*
X4900720Y-12431022D02*
X4900720Y-12383403D01*
X4900720Y-12383403D02*
X4910244Y-12345308D01*
X4910244Y-12345308D02*
X4919767Y-12326260D01*
X4919767Y-12326260D02*
X4929291Y-12316736D01*
X4929291Y-12316736D02*
X4948339Y-12307212D01*
X5100720Y-12507212D02*
X5100720Y-12373879D01*
X5100720Y-12392927D02*
X5110244Y-12383403D01*
X5110244Y-12383403D02*
X5129291Y-12373879D01*
X5129291Y-12373879D02*
X5157863Y-12373879D01*
X5157863Y-12373879D02*
X5176910Y-12383403D01*
X5176910Y-12383403D02*
X5186434Y-12402451D01*
X5186434Y-12402451D02*
X5186434Y-12507212D01*
X5186434Y-12402451D02*
X5195958Y-12383403D01*
X5195958Y-12383403D02*
X5215005Y-12373879D01*
X5215005Y-12373879D02*
X5243577Y-12373879D01*
X5243577Y-12373879D02*
X5262625Y-12383403D01*
X5262625Y-12383403D02*
X5272148Y-12402451D01*
X5272148Y-12402451D02*
X5272148Y-12507212D01*
X5367386Y-12507212D02*
X5367386Y-12373879D01*
X5367386Y-12392927D02*
X5376910Y-12383403D01*
X5376910Y-12383403D02*
X5395958Y-12373879D01*
X5395958Y-12373879D02*
X5424529Y-12373879D01*
X5424529Y-12373879D02*
X5443577Y-12383403D01*
X5443577Y-12383403D02*
X5453101Y-12402451D01*
X5453101Y-12402451D02*
X5453101Y-12507212D01*
X5453101Y-12402451D02*
X5462625Y-12383403D01*
X5462625Y-12383403D02*
X5481672Y-12373879D01*
X5481672Y-12373879D02*
X5510244Y-12373879D01*
X5510244Y-12373879D02*
X5529291Y-12383403D01*
X5529291Y-12383403D02*
X5538815Y-12402451D01*
X5538815Y-12402451D02*
X5538815Y-12507212D01*
X5929291Y-12297689D02*
X5757863Y-12554831D01*
X6186434Y-12307212D02*
X6205482Y-12307212D01*
X6205482Y-12307212D02*
X6224529Y-12316736D01*
X6224529Y-12316736D02*
X6234053Y-12326260D01*
X6234053Y-12326260D02*
X6243577Y-12345308D01*
X6243577Y-12345308D02*
X6253101Y-12383403D01*
X6253101Y-12383403D02*
X6253101Y-12431022D01*
X6253101Y-12431022D02*
X6243577Y-12469117D01*
X6243577Y-12469117D02*
X6234053Y-12488165D01*
X6234053Y-12488165D02*
X6224529Y-12497689D01*
X6224529Y-12497689D02*
X6205482Y-12507212D01*
X6205482Y-12507212D02*
X6186434Y-12507212D01*
X6186434Y-12507212D02*
X6167386Y-12497689D01*
X6167386Y-12497689D02*
X6157863Y-12488165D01*
X6157863Y-12488165D02*
X6148339Y-12469117D01*
X6148339Y-12469117D02*
X6138815Y-12431022D01*
X6138815Y-12431022D02*
X6138815Y-12383403D01*
X6138815Y-12383403D02*
X6148339Y-12345308D01*
X6148339Y-12345308D02*
X6157863Y-12326260D01*
X6157863Y-12326260D02*
X6167386Y-12316736D01*
X6167386Y-12316736D02*
X6186434Y-12307212D01*
X6338815Y-12488165D02*
X6348339Y-12497689D01*
X6348339Y-12497689D02*
X6338815Y-12507212D01*
X6338815Y-12507212D02*
X6329291Y-12497689D01*
X6329291Y-12497689D02*
X6338815Y-12488165D01*
X6338815Y-12488165D02*
X6338815Y-12507212D01*
X6472148Y-12307212D02*
X6491196Y-12307212D01*
X6491196Y-12307212D02*
X6510244Y-12316736D01*
X6510244Y-12316736D02*
X6519767Y-12326260D01*
X6519767Y-12326260D02*
X6529291Y-12345308D01*
X6529291Y-12345308D02*
X6538815Y-12383403D01*
X6538815Y-12383403D02*
X6538815Y-12431022D01*
X6538815Y-12431022D02*
X6529291Y-12469117D01*
X6529291Y-12469117D02*
X6519767Y-12488165D01*
X6519767Y-12488165D02*
X6510244Y-12497689D01*
X6510244Y-12497689D02*
X6491196Y-12507212D01*
X6491196Y-12507212D02*
X6472148Y-12507212D01*
X6472148Y-12507212D02*
X6453101Y-12497689D01*
X6453101Y-12497689D02*
X6443577Y-12488165D01*
X6443577Y-12488165D02*
X6434053Y-12469117D01*
X6434053Y-12469117D02*
X6424529Y-12431022D01*
X6424529Y-12431022D02*
X6424529Y-12383403D01*
X6424529Y-12383403D02*
X6434053Y-12345308D01*
X6434053Y-12345308D02*
X6443577Y-12326260D01*
X6443577Y-12326260D02*
X6453101Y-12316736D01*
X6453101Y-12316736D02*
X6472148Y-12307212D01*
X6719767Y-12307212D02*
X6624529Y-12307212D01*
X6624529Y-12307212D02*
X6615006Y-12402451D01*
X6615006Y-12402451D02*
X6624529Y-12392927D01*
X6624529Y-12392927D02*
X6643577Y-12383403D01*
X6643577Y-12383403D02*
X6691196Y-12383403D01*
X6691196Y-12383403D02*
X6710244Y-12392927D01*
X6710244Y-12392927D02*
X6719767Y-12402451D01*
X6719767Y-12402451D02*
X6729291Y-12421498D01*
X6729291Y-12421498D02*
X6729291Y-12469117D01*
X6729291Y-12469117D02*
X6719767Y-12488165D01*
X6719767Y-12488165D02*
X6710244Y-12497689D01*
X6710244Y-12497689D02*
X6691196Y-12507212D01*
X6691196Y-12507212D02*
X6643577Y-12507212D01*
X6643577Y-12507212D02*
X6624529Y-12497689D01*
X6624529Y-12497689D02*
X6615006Y-12488165D01*
X6919767Y-12507212D02*
X6805482Y-12507212D01*
X6862625Y-12507212D02*
X6862625Y-12307212D01*
X6862625Y-12307212D02*
X6843577Y-12335784D01*
X6843577Y-12335784D02*
X6824529Y-12354831D01*
X6824529Y-12354831D02*
X6805482Y-12364355D01*
X6995958Y-12326260D02*
X7005482Y-12316736D01*
X7005482Y-12316736D02*
X7024529Y-12307212D01*
X7024529Y-12307212D02*
X7072148Y-12307212D01*
X7072148Y-12307212D02*
X7091196Y-12316736D01*
X7091196Y-12316736D02*
X7100720Y-12326260D01*
X7100720Y-12326260D02*
X7110244Y-12345308D01*
X7110244Y-12345308D02*
X7110244Y-12364355D01*
X7110244Y-12364355D02*
X7100720Y-12392927D01*
X7100720Y-12392927D02*
X6986434Y-12507212D01*
X6986434Y-12507212D02*
X7110244Y-12507212D01*
X7186434Y-12307212D02*
X7186434Y-12345308D01*
X7262625Y-12307212D02*
X7262625Y-12345308D01*
X7557863Y-12583403D02*
X7548339Y-12573879D01*
X7548339Y-12573879D02*
X7529291Y-12545308D01*
X7529291Y-12545308D02*
X7519768Y-12526260D01*
X7519768Y-12526260D02*
X7510244Y-12497689D01*
X7510244Y-12497689D02*
X7500720Y-12450070D01*
X7500720Y-12450070D02*
X7500720Y-12411974D01*
X7500720Y-12411974D02*
X7510244Y-12364355D01*
X7510244Y-12364355D02*
X7519768Y-12335784D01*
X7519768Y-12335784D02*
X7529291Y-12316736D01*
X7529291Y-12316736D02*
X7548339Y-12288165D01*
X7548339Y-12288165D02*
X7557863Y-12278641D01*
X7624529Y-12326260D02*
X7634053Y-12316736D01*
X7634053Y-12316736D02*
X7653101Y-12307212D01*
X7653101Y-12307212D02*
X7700720Y-12307212D01*
X7700720Y-12307212D02*
X7719768Y-12316736D01*
X7719768Y-12316736D02*
X7729291Y-12326260D01*
X7729291Y-12326260D02*
X7738815Y-12345308D01*
X7738815Y-12345308D02*
X7738815Y-12364355D01*
X7738815Y-12364355D02*
X7729291Y-12392927D01*
X7729291Y-12392927D02*
X7615006Y-12507212D01*
X7615006Y-12507212D02*
X7738815Y-12507212D01*
X7976910Y-12507212D02*
X7976910Y-12307212D01*
X8062625Y-12507212D02*
X8062625Y-12402451D01*
X8062625Y-12402451D02*
X8053101Y-12383403D01*
X8053101Y-12383403D02*
X8034053Y-12373879D01*
X8034053Y-12373879D02*
X8005482Y-12373879D01*
X8005482Y-12373879D02*
X7986434Y-12383403D01*
X7986434Y-12383403D02*
X7976910Y-12392927D01*
X8186434Y-12507212D02*
X8167387Y-12497689D01*
X8167387Y-12497689D02*
X8157863Y-12488165D01*
X8157863Y-12488165D02*
X8148339Y-12469117D01*
X8148339Y-12469117D02*
X8148339Y-12411974D01*
X8148339Y-12411974D02*
X8157863Y-12392927D01*
X8157863Y-12392927D02*
X8167387Y-12383403D01*
X8167387Y-12383403D02*
X8186434Y-12373879D01*
X8186434Y-12373879D02*
X8215006Y-12373879D01*
X8215006Y-12373879D02*
X8234053Y-12383403D01*
X8234053Y-12383403D02*
X8243577Y-12392927D01*
X8243577Y-12392927D02*
X8253101Y-12411974D01*
X8253101Y-12411974D02*
X8253101Y-12469117D01*
X8253101Y-12469117D02*
X8243577Y-12488165D01*
X8243577Y-12488165D02*
X8234053Y-12497689D01*
X8234053Y-12497689D02*
X8215006Y-12507212D01*
X8215006Y-12507212D02*
X8186434Y-12507212D01*
X8367387Y-12507212D02*
X8348339Y-12497689D01*
X8348339Y-12497689D02*
X8338815Y-12478641D01*
X8338815Y-12478641D02*
X8338815Y-12307212D01*
X8519768Y-12497689D02*
X8500720Y-12507212D01*
X8500720Y-12507212D02*
X8462625Y-12507212D01*
X8462625Y-12507212D02*
X8443577Y-12497689D01*
X8443577Y-12497689D02*
X8434053Y-12478641D01*
X8434053Y-12478641D02*
X8434053Y-12402451D01*
X8434053Y-12402451D02*
X8443577Y-12383403D01*
X8443577Y-12383403D02*
X8462625Y-12373879D01*
X8462625Y-12373879D02*
X8500720Y-12373879D01*
X8500720Y-12373879D02*
X8519768Y-12383403D01*
X8519768Y-12383403D02*
X8529292Y-12402451D01*
X8529292Y-12402451D02*
X8529292Y-12421498D01*
X8529292Y-12421498D02*
X8434053Y-12440546D01*
X8605482Y-12497689D02*
X8624530Y-12507212D01*
X8624530Y-12507212D02*
X8662625Y-12507212D01*
X8662625Y-12507212D02*
X8681673Y-12497689D01*
X8681673Y-12497689D02*
X8691196Y-12478641D01*
X8691196Y-12478641D02*
X8691196Y-12469117D01*
X8691196Y-12469117D02*
X8681673Y-12450070D01*
X8681673Y-12450070D02*
X8662625Y-12440546D01*
X8662625Y-12440546D02*
X8634053Y-12440546D01*
X8634053Y-12440546D02*
X8615006Y-12431022D01*
X8615006Y-12431022D02*
X8605482Y-12411974D01*
X8605482Y-12411974D02*
X8605482Y-12402451D01*
X8605482Y-12402451D02*
X8615006Y-12383403D01*
X8615006Y-12383403D02*
X8634053Y-12373879D01*
X8634053Y-12373879D02*
X8662625Y-12373879D01*
X8662625Y-12373879D02*
X8681673Y-12383403D01*
X8757863Y-12583403D02*
X8767387Y-12573879D01*
X8767387Y-12573879D02*
X8786434Y-12545308D01*
X8786434Y-12545308D02*
X8795958Y-12526260D01*
X8795958Y-12526260D02*
X8805482Y-12497689D01*
X8805482Y-12497689D02*
X8815006Y-12450070D01*
X8815006Y-12450070D02*
X8815006Y-12411974D01*
X8815006Y-12411974D02*
X8805482Y-12364355D01*
X8805482Y-12364355D02*
X8795958Y-12335784D01*
X8795958Y-12335784D02*
X8786434Y-12316736D01*
X8786434Y-12316736D02*
X8767387Y-12288165D01*
X8767387Y-12288165D02*
X8757863Y-12278641D01*
X9119768Y-12583403D02*
X9110244Y-12573879D01*
X9110244Y-12573879D02*
X9091196Y-12545308D01*
X9091196Y-12545308D02*
X9081673Y-12526260D01*
X9081673Y-12526260D02*
X9072149Y-12497689D01*
X9072149Y-12497689D02*
X9062625Y-12450070D01*
X9062625Y-12450070D02*
X9062625Y-12411974D01*
X9062625Y-12411974D02*
X9072149Y-12364355D01*
X9072149Y-12364355D02*
X9081673Y-12335784D01*
X9081673Y-12335784D02*
X9091196Y-12316736D01*
X9091196Y-12316736D02*
X9110244Y-12288165D01*
X9110244Y-12288165D02*
X9119768Y-12278641D01*
X9195958Y-12373879D02*
X9195958Y-12507212D01*
X9195958Y-12392927D02*
X9205482Y-12383403D01*
X9205482Y-12383403D02*
X9224530Y-12373879D01*
X9224530Y-12373879D02*
X9253101Y-12373879D01*
X9253101Y-12373879D02*
X9272149Y-12383403D01*
X9272149Y-12383403D02*
X9281673Y-12402451D01*
X9281673Y-12402451D02*
X9281673Y-12507212D01*
X9405482Y-12507212D02*
X9386434Y-12497689D01*
X9386434Y-12497689D02*
X9376911Y-12488165D01*
X9376911Y-12488165D02*
X9367387Y-12469117D01*
X9367387Y-12469117D02*
X9367387Y-12411974D01*
X9367387Y-12411974D02*
X9376911Y-12392927D01*
X9376911Y-12392927D02*
X9386434Y-12383403D01*
X9386434Y-12383403D02*
X9405482Y-12373879D01*
X9405482Y-12373879D02*
X9434054Y-12373879D01*
X9434054Y-12373879D02*
X9453101Y-12383403D01*
X9453101Y-12383403D02*
X9462625Y-12392927D01*
X9462625Y-12392927D02*
X9472149Y-12411974D01*
X9472149Y-12411974D02*
X9472149Y-12469117D01*
X9472149Y-12469117D02*
X9462625Y-12488165D01*
X9462625Y-12488165D02*
X9453101Y-12497689D01*
X9453101Y-12497689D02*
X9434054Y-12507212D01*
X9434054Y-12507212D02*
X9405482Y-12507212D01*
X9529292Y-12373879D02*
X9605482Y-12373879D01*
X9557863Y-12307212D02*
X9557863Y-12478641D01*
X9557863Y-12478641D02*
X9567387Y-12497689D01*
X9567387Y-12497689D02*
X9586434Y-12507212D01*
X9586434Y-12507212D02*
X9605482Y-12507212D01*
X9824530Y-12373879D02*
X9824530Y-12573879D01*
X9824530Y-12383403D02*
X9843577Y-12373879D01*
X9843577Y-12373879D02*
X9881673Y-12373879D01*
X9881673Y-12373879D02*
X9900720Y-12383403D01*
X9900720Y-12383403D02*
X9910244Y-12392927D01*
X9910244Y-12392927D02*
X9919768Y-12411974D01*
X9919768Y-12411974D02*
X9919768Y-12469117D01*
X9919768Y-12469117D02*
X9910244Y-12488165D01*
X9910244Y-12488165D02*
X9900720Y-12497689D01*
X9900720Y-12497689D02*
X9881673Y-12507212D01*
X9881673Y-12507212D02*
X9843577Y-12507212D01*
X9843577Y-12507212D02*
X9824530Y-12497689D01*
X10034054Y-12507212D02*
X10015006Y-12497689D01*
X10015006Y-12497689D02*
X10005482Y-12478641D01*
X10005482Y-12478641D02*
X10005482Y-12307212D01*
X10195958Y-12507212D02*
X10195958Y-12402451D01*
X10195958Y-12402451D02*
X10186435Y-12383403D01*
X10186435Y-12383403D02*
X10167387Y-12373879D01*
X10167387Y-12373879D02*
X10129292Y-12373879D01*
X10129292Y-12373879D02*
X10110244Y-12383403D01*
X10195958Y-12497689D02*
X10176911Y-12507212D01*
X10176911Y-12507212D02*
X10129292Y-12507212D01*
X10129292Y-12507212D02*
X10110244Y-12497689D01*
X10110244Y-12497689D02*
X10100720Y-12478641D01*
X10100720Y-12478641D02*
X10100720Y-12459593D01*
X10100720Y-12459593D02*
X10110244Y-12440546D01*
X10110244Y-12440546D02*
X10129292Y-12431022D01*
X10129292Y-12431022D02*
X10176911Y-12431022D01*
X10176911Y-12431022D02*
X10195958Y-12421498D01*
X10262625Y-12373879D02*
X10338815Y-12373879D01*
X10291196Y-12307212D02*
X10291196Y-12478641D01*
X10291196Y-12478641D02*
X10300720Y-12497689D01*
X10300720Y-12497689D02*
X10319768Y-12507212D01*
X10319768Y-12507212D02*
X10338815Y-12507212D01*
X10481673Y-12497689D02*
X10462625Y-12507212D01*
X10462625Y-12507212D02*
X10424530Y-12507212D01*
X10424530Y-12507212D02*
X10405482Y-12497689D01*
X10405482Y-12497689D02*
X10395958Y-12478641D01*
X10395958Y-12478641D02*
X10395958Y-12402451D01*
X10395958Y-12402451D02*
X10405482Y-12383403D01*
X10405482Y-12383403D02*
X10424530Y-12373879D01*
X10424530Y-12373879D02*
X10462625Y-12373879D01*
X10462625Y-12373879D02*
X10481673Y-12383403D01*
X10481673Y-12383403D02*
X10491196Y-12402451D01*
X10491196Y-12402451D02*
X10491196Y-12421498D01*
X10491196Y-12421498D02*
X10395958Y-12440546D01*
X10662625Y-12507212D02*
X10662625Y-12307212D01*
X10662625Y-12497689D02*
X10643577Y-12507212D01*
X10643577Y-12507212D02*
X10605482Y-12507212D01*
X10605482Y-12507212D02*
X10586435Y-12497689D01*
X10586435Y-12497689D02*
X10576911Y-12488165D01*
X10576911Y-12488165D02*
X10567387Y-12469117D01*
X10567387Y-12469117D02*
X10567387Y-12411974D01*
X10567387Y-12411974D02*
X10576911Y-12392927D01*
X10576911Y-12392927D02*
X10586435Y-12383403D01*
X10586435Y-12383403D02*
X10605482Y-12373879D01*
X10605482Y-12373879D02*
X10643577Y-12373879D01*
X10643577Y-12373879D02*
X10662625Y-12383403D01*
X10738816Y-12583403D02*
X10748339Y-12573879D01*
X10748339Y-12573879D02*
X10767387Y-12545308D01*
X10767387Y-12545308D02*
X10776911Y-12526260D01*
X10776911Y-12526260D02*
X10786435Y-12497689D01*
X10786435Y-12497689D02*
X10795958Y-12450070D01*
X10795958Y-12450070D02*
X10795958Y-12411974D01*
X10795958Y-12411974D02*
X10786435Y-12364355D01*
X10786435Y-12364355D02*
X10776911Y-12335784D01*
X10776911Y-12335784D02*
X10767387Y-12316736D01*
X10767387Y-12316736D02*
X10748339Y-12288165D01*
X10748339Y-12288165D02*
X10738816Y-12278641D01*
X3882800Y-12579729D02*
X3882800Y-12779729D01*
X3782800Y-12679729D02*
X3982800Y-12679729D01*
X4234053Y-12590260D02*
X4243577Y-12580736D01*
X4243577Y-12580736D02*
X4262624Y-12571212D01*
X4262624Y-12571212D02*
X4310244Y-12571212D01*
X4310244Y-12571212D02*
X4329291Y-12580736D01*
X4329291Y-12580736D02*
X4338815Y-12590260D01*
X4338815Y-12590260D02*
X4348339Y-12609308D01*
X4348339Y-12609308D02*
X4348339Y-12628355D01*
X4348339Y-12628355D02*
X4338815Y-12656927D01*
X4338815Y-12656927D02*
X4224529Y-12771212D01*
X4224529Y-12771212D02*
X4348339Y-12771212D01*
X4434053Y-12752165D02*
X4443577Y-12761689D01*
X4443577Y-12761689D02*
X4434053Y-12771212D01*
X4434053Y-12771212D02*
X4424529Y-12761689D01*
X4424529Y-12761689D02*
X4434053Y-12752165D01*
X4434053Y-12752165D02*
X4434053Y-12771212D01*
X4519767Y-12590260D02*
X4529291Y-12580736D01*
X4529291Y-12580736D02*
X4548339Y-12571212D01*
X4548339Y-12571212D02*
X4595958Y-12571212D01*
X4595958Y-12571212D02*
X4615005Y-12580736D01*
X4615005Y-12580736D02*
X4624529Y-12590260D01*
X4624529Y-12590260D02*
X4634053Y-12609308D01*
X4634053Y-12609308D02*
X4634053Y-12628355D01*
X4634053Y-12628355D02*
X4624529Y-12656927D01*
X4624529Y-12656927D02*
X4510244Y-12771212D01*
X4510244Y-12771212D02*
X4634053Y-12771212D01*
X4757863Y-12571212D02*
X4776910Y-12571212D01*
X4776910Y-12571212D02*
X4795958Y-12580736D01*
X4795958Y-12580736D02*
X4805482Y-12590260D01*
X4805482Y-12590260D02*
X4815005Y-12609308D01*
X4815005Y-12609308D02*
X4824529Y-12647403D01*
X4824529Y-12647403D02*
X4824529Y-12695022D01*
X4824529Y-12695022D02*
X4815005Y-12733117D01*
X4815005Y-12733117D02*
X4805482Y-12752165D01*
X4805482Y-12752165D02*
X4795958Y-12761689D01*
X4795958Y-12761689D02*
X4776910Y-12771212D01*
X4776910Y-12771212D02*
X4757863Y-12771212D01*
X4757863Y-12771212D02*
X4738815Y-12761689D01*
X4738815Y-12761689D02*
X4729291Y-12752165D01*
X4729291Y-12752165D02*
X4719767Y-12733117D01*
X4719767Y-12733117D02*
X4710244Y-12695022D01*
X4710244Y-12695022D02*
X4710244Y-12647403D01*
X4710244Y-12647403D02*
X4719767Y-12609308D01*
X4719767Y-12609308D02*
X4729291Y-12590260D01*
X4729291Y-12590260D02*
X4738815Y-12580736D01*
X4738815Y-12580736D02*
X4757863Y-12571212D01*
X4948339Y-12571212D02*
X4967386Y-12571212D01*
X4967386Y-12571212D02*
X4986434Y-12580736D01*
X4986434Y-12580736D02*
X4995958Y-12590260D01*
X4995958Y-12590260D02*
X5005482Y-12609308D01*
X5005482Y-12609308D02*
X5015005Y-12647403D01*
X5015005Y-12647403D02*
X5015005Y-12695022D01*
X5015005Y-12695022D02*
X5005482Y-12733117D01*
X5005482Y-12733117D02*
X4995958Y-12752165D01*
X4995958Y-12752165D02*
X4986434Y-12761689D01*
X4986434Y-12761689D02*
X4967386Y-12771212D01*
X4967386Y-12771212D02*
X4948339Y-12771212D01*
X4948339Y-12771212D02*
X4929291Y-12761689D01*
X4929291Y-12761689D02*
X4919767Y-12752165D01*
X4919767Y-12752165D02*
X4910244Y-12733117D01*
X4910244Y-12733117D02*
X4900720Y-12695022D01*
X4900720Y-12695022D02*
X4900720Y-12647403D01*
X4900720Y-12647403D02*
X4910244Y-12609308D01*
X4910244Y-12609308D02*
X4919767Y-12590260D01*
X4919767Y-12590260D02*
X4929291Y-12580736D01*
X4929291Y-12580736D02*
X4948339Y-12571212D01*
X5100720Y-12771212D02*
X5100720Y-12637879D01*
X5100720Y-12656927D02*
X5110244Y-12647403D01*
X5110244Y-12647403D02*
X5129291Y-12637879D01*
X5129291Y-12637879D02*
X5157863Y-12637879D01*
X5157863Y-12637879D02*
X5176910Y-12647403D01*
X5176910Y-12647403D02*
X5186434Y-12666451D01*
X5186434Y-12666451D02*
X5186434Y-12771212D01*
X5186434Y-12666451D02*
X5195958Y-12647403D01*
X5195958Y-12647403D02*
X5215005Y-12637879D01*
X5215005Y-12637879D02*
X5243577Y-12637879D01*
X5243577Y-12637879D02*
X5262625Y-12647403D01*
X5262625Y-12647403D02*
X5272148Y-12666451D01*
X5272148Y-12666451D02*
X5272148Y-12771212D01*
X5367386Y-12771212D02*
X5367386Y-12637879D01*
X5367386Y-12656927D02*
X5376910Y-12647403D01*
X5376910Y-12647403D02*
X5395958Y-12637879D01*
X5395958Y-12637879D02*
X5424529Y-12637879D01*
X5424529Y-12637879D02*
X5443577Y-12647403D01*
X5443577Y-12647403D02*
X5453101Y-12666451D01*
X5453101Y-12666451D02*
X5453101Y-12771212D01*
X5453101Y-12666451D02*
X5462625Y-12647403D01*
X5462625Y-12647403D02*
X5481672Y-12637879D01*
X5481672Y-12637879D02*
X5510244Y-12637879D01*
X5510244Y-12637879D02*
X5529291Y-12647403D01*
X5529291Y-12647403D02*
X5538815Y-12666451D01*
X5538815Y-12666451D02*
X5538815Y-12771212D01*
X5929291Y-12561689D02*
X5757863Y-12818831D01*
X6186434Y-12571212D02*
X6205482Y-12571212D01*
X6205482Y-12571212D02*
X6224529Y-12580736D01*
X6224529Y-12580736D02*
X6234053Y-12590260D01*
X6234053Y-12590260D02*
X6243577Y-12609308D01*
X6243577Y-12609308D02*
X6253101Y-12647403D01*
X6253101Y-12647403D02*
X6253101Y-12695022D01*
X6253101Y-12695022D02*
X6243577Y-12733117D01*
X6243577Y-12733117D02*
X6234053Y-12752165D01*
X6234053Y-12752165D02*
X6224529Y-12761689D01*
X6224529Y-12761689D02*
X6205482Y-12771212D01*
X6205482Y-12771212D02*
X6186434Y-12771212D01*
X6186434Y-12771212D02*
X6167386Y-12761689D01*
X6167386Y-12761689D02*
X6157863Y-12752165D01*
X6157863Y-12752165D02*
X6148339Y-12733117D01*
X6148339Y-12733117D02*
X6138815Y-12695022D01*
X6138815Y-12695022D02*
X6138815Y-12647403D01*
X6138815Y-12647403D02*
X6148339Y-12609308D01*
X6148339Y-12609308D02*
X6157863Y-12590260D01*
X6157863Y-12590260D02*
X6167386Y-12580736D01*
X6167386Y-12580736D02*
X6186434Y-12571212D01*
X6338815Y-12752165D02*
X6348339Y-12761689D01*
X6348339Y-12761689D02*
X6338815Y-12771212D01*
X6338815Y-12771212D02*
X6329291Y-12761689D01*
X6329291Y-12761689D02*
X6338815Y-12752165D01*
X6338815Y-12752165D02*
X6338815Y-12771212D01*
X6472148Y-12571212D02*
X6491196Y-12571212D01*
X6491196Y-12571212D02*
X6510244Y-12580736D01*
X6510244Y-12580736D02*
X6519767Y-12590260D01*
X6519767Y-12590260D02*
X6529291Y-12609308D01*
X6529291Y-12609308D02*
X6538815Y-12647403D01*
X6538815Y-12647403D02*
X6538815Y-12695022D01*
X6538815Y-12695022D02*
X6529291Y-12733117D01*
X6529291Y-12733117D02*
X6519767Y-12752165D01*
X6519767Y-12752165D02*
X6510244Y-12761689D01*
X6510244Y-12761689D02*
X6491196Y-12771212D01*
X6491196Y-12771212D02*
X6472148Y-12771212D01*
X6472148Y-12771212D02*
X6453101Y-12761689D01*
X6453101Y-12761689D02*
X6443577Y-12752165D01*
X6443577Y-12752165D02*
X6434053Y-12733117D01*
X6434053Y-12733117D02*
X6424529Y-12695022D01*
X6424529Y-12695022D02*
X6424529Y-12647403D01*
X6424529Y-12647403D02*
X6434053Y-12609308D01*
X6434053Y-12609308D02*
X6443577Y-12590260D01*
X6443577Y-12590260D02*
X6453101Y-12580736D01*
X6453101Y-12580736D02*
X6472148Y-12571212D01*
X6653101Y-12656927D02*
X6634053Y-12647403D01*
X6634053Y-12647403D02*
X6624529Y-12637879D01*
X6624529Y-12637879D02*
X6615006Y-12618831D01*
X6615006Y-12618831D02*
X6615006Y-12609308D01*
X6615006Y-12609308D02*
X6624529Y-12590260D01*
X6624529Y-12590260D02*
X6634053Y-12580736D01*
X6634053Y-12580736D02*
X6653101Y-12571212D01*
X6653101Y-12571212D02*
X6691196Y-12571212D01*
X6691196Y-12571212D02*
X6710244Y-12580736D01*
X6710244Y-12580736D02*
X6719767Y-12590260D01*
X6719767Y-12590260D02*
X6729291Y-12609308D01*
X6729291Y-12609308D02*
X6729291Y-12618831D01*
X6729291Y-12618831D02*
X6719767Y-12637879D01*
X6719767Y-12637879D02*
X6710244Y-12647403D01*
X6710244Y-12647403D02*
X6691196Y-12656927D01*
X6691196Y-12656927D02*
X6653101Y-12656927D01*
X6653101Y-12656927D02*
X6634053Y-12666451D01*
X6634053Y-12666451D02*
X6624529Y-12675974D01*
X6624529Y-12675974D02*
X6615006Y-12695022D01*
X6615006Y-12695022D02*
X6615006Y-12733117D01*
X6615006Y-12733117D02*
X6624529Y-12752165D01*
X6624529Y-12752165D02*
X6634053Y-12761689D01*
X6634053Y-12761689D02*
X6653101Y-12771212D01*
X6653101Y-12771212D02*
X6691196Y-12771212D01*
X6691196Y-12771212D02*
X6710244Y-12761689D01*
X6710244Y-12761689D02*
X6719767Y-12752165D01*
X6719767Y-12752165D02*
X6729291Y-12733117D01*
X6729291Y-12733117D02*
X6729291Y-12695022D01*
X6729291Y-12695022D02*
X6719767Y-12675974D01*
X6719767Y-12675974D02*
X6710244Y-12666451D01*
X6710244Y-12666451D02*
X6691196Y-12656927D01*
X6900720Y-12571212D02*
X6862625Y-12571212D01*
X6862625Y-12571212D02*
X6843577Y-12580736D01*
X6843577Y-12580736D02*
X6834053Y-12590260D01*
X6834053Y-12590260D02*
X6815006Y-12618831D01*
X6815006Y-12618831D02*
X6805482Y-12656927D01*
X6805482Y-12656927D02*
X6805482Y-12733117D01*
X6805482Y-12733117D02*
X6815006Y-12752165D01*
X6815006Y-12752165D02*
X6824529Y-12761689D01*
X6824529Y-12761689D02*
X6843577Y-12771212D01*
X6843577Y-12771212D02*
X6881672Y-12771212D01*
X6881672Y-12771212D02*
X6900720Y-12761689D01*
X6900720Y-12761689D02*
X6910244Y-12752165D01*
X6910244Y-12752165D02*
X6919767Y-12733117D01*
X6919767Y-12733117D02*
X6919767Y-12685498D01*
X6919767Y-12685498D02*
X6910244Y-12666451D01*
X6910244Y-12666451D02*
X6900720Y-12656927D01*
X6900720Y-12656927D02*
X6881672Y-12647403D01*
X6881672Y-12647403D02*
X6843577Y-12647403D01*
X6843577Y-12647403D02*
X6824529Y-12656927D01*
X6824529Y-12656927D02*
X6815006Y-12666451D01*
X6815006Y-12666451D02*
X6805482Y-12685498D01*
X7091196Y-12571212D02*
X7053101Y-12571212D01*
X7053101Y-12571212D02*
X7034053Y-12580736D01*
X7034053Y-12580736D02*
X7024529Y-12590260D01*
X7024529Y-12590260D02*
X7005482Y-12618831D01*
X7005482Y-12618831D02*
X6995958Y-12656927D01*
X6995958Y-12656927D02*
X6995958Y-12733117D01*
X6995958Y-12733117D02*
X7005482Y-12752165D01*
X7005482Y-12752165D02*
X7015006Y-12761689D01*
X7015006Y-12761689D02*
X7034053Y-12771212D01*
X7034053Y-12771212D02*
X7072148Y-12771212D01*
X7072148Y-12771212D02*
X7091196Y-12761689D01*
X7091196Y-12761689D02*
X7100720Y-12752165D01*
X7100720Y-12752165D02*
X7110244Y-12733117D01*
X7110244Y-12733117D02*
X7110244Y-12685498D01*
X7110244Y-12685498D02*
X7100720Y-12666451D01*
X7100720Y-12666451D02*
X7091196Y-12656927D01*
X7091196Y-12656927D02*
X7072148Y-12647403D01*
X7072148Y-12647403D02*
X7034053Y-12647403D01*
X7034053Y-12647403D02*
X7015006Y-12656927D01*
X7015006Y-12656927D02*
X7005482Y-12666451D01*
X7005482Y-12666451D02*
X6995958Y-12685498D01*
X7186434Y-12571212D02*
X7186434Y-12609308D01*
X7262625Y-12571212D02*
X7262625Y-12609308D01*
X7557863Y-12847403D02*
X7548339Y-12837879D01*
X7548339Y-12837879D02*
X7529291Y-12809308D01*
X7529291Y-12809308D02*
X7519768Y-12790260D01*
X7519768Y-12790260D02*
X7510244Y-12761689D01*
X7510244Y-12761689D02*
X7500720Y-12714070D01*
X7500720Y-12714070D02*
X7500720Y-12675974D01*
X7500720Y-12675974D02*
X7510244Y-12628355D01*
X7510244Y-12628355D02*
X7519768Y-12599784D01*
X7519768Y-12599784D02*
X7529291Y-12580736D01*
X7529291Y-12580736D02*
X7548339Y-12552165D01*
X7548339Y-12552165D02*
X7557863Y-12542641D01*
X7719768Y-12637879D02*
X7719768Y-12771212D01*
X7672148Y-12561689D02*
X7624529Y-12704546D01*
X7624529Y-12704546D02*
X7748339Y-12704546D01*
X7976910Y-12771212D02*
X7976910Y-12571212D01*
X8062625Y-12771212D02*
X8062625Y-12666451D01*
X8062625Y-12666451D02*
X8053101Y-12647403D01*
X8053101Y-12647403D02*
X8034053Y-12637879D01*
X8034053Y-12637879D02*
X8005482Y-12637879D01*
X8005482Y-12637879D02*
X7986434Y-12647403D01*
X7986434Y-12647403D02*
X7976910Y-12656927D01*
X8186434Y-12771212D02*
X8167387Y-12761689D01*
X8167387Y-12761689D02*
X8157863Y-12752165D01*
X8157863Y-12752165D02*
X8148339Y-12733117D01*
X8148339Y-12733117D02*
X8148339Y-12675974D01*
X8148339Y-12675974D02*
X8157863Y-12656927D01*
X8157863Y-12656927D02*
X8167387Y-12647403D01*
X8167387Y-12647403D02*
X8186434Y-12637879D01*
X8186434Y-12637879D02*
X8215006Y-12637879D01*
X8215006Y-12637879D02*
X8234053Y-12647403D01*
X8234053Y-12647403D02*
X8243577Y-12656927D01*
X8243577Y-12656927D02*
X8253101Y-12675974D01*
X8253101Y-12675974D02*
X8253101Y-12733117D01*
X8253101Y-12733117D02*
X8243577Y-12752165D01*
X8243577Y-12752165D02*
X8234053Y-12761689D01*
X8234053Y-12761689D02*
X8215006Y-12771212D01*
X8215006Y-12771212D02*
X8186434Y-12771212D01*
X8367387Y-12771212D02*
X8348339Y-12761689D01*
X8348339Y-12761689D02*
X8338815Y-12742641D01*
X8338815Y-12742641D02*
X8338815Y-12571212D01*
X8519768Y-12761689D02*
X8500720Y-12771212D01*
X8500720Y-12771212D02*
X8462625Y-12771212D01*
X8462625Y-12771212D02*
X8443577Y-12761689D01*
X8443577Y-12761689D02*
X8434053Y-12742641D01*
X8434053Y-12742641D02*
X8434053Y-12666451D01*
X8434053Y-12666451D02*
X8443577Y-12647403D01*
X8443577Y-12647403D02*
X8462625Y-12637879D01*
X8462625Y-12637879D02*
X8500720Y-12637879D01*
X8500720Y-12637879D02*
X8519768Y-12647403D01*
X8519768Y-12647403D02*
X8529292Y-12666451D01*
X8529292Y-12666451D02*
X8529292Y-12685498D01*
X8529292Y-12685498D02*
X8434053Y-12704546D01*
X8605482Y-12761689D02*
X8624530Y-12771212D01*
X8624530Y-12771212D02*
X8662625Y-12771212D01*
X8662625Y-12771212D02*
X8681673Y-12761689D01*
X8681673Y-12761689D02*
X8691196Y-12742641D01*
X8691196Y-12742641D02*
X8691196Y-12733117D01*
X8691196Y-12733117D02*
X8681673Y-12714070D01*
X8681673Y-12714070D02*
X8662625Y-12704546D01*
X8662625Y-12704546D02*
X8634053Y-12704546D01*
X8634053Y-12704546D02*
X8615006Y-12695022D01*
X8615006Y-12695022D02*
X8605482Y-12675974D01*
X8605482Y-12675974D02*
X8605482Y-12666451D01*
X8605482Y-12666451D02*
X8615006Y-12647403D01*
X8615006Y-12647403D02*
X8634053Y-12637879D01*
X8634053Y-12637879D02*
X8662625Y-12637879D01*
X8662625Y-12637879D02*
X8681673Y-12647403D01*
X8757863Y-12847403D02*
X8767387Y-12837879D01*
X8767387Y-12837879D02*
X8786434Y-12809308D01*
X8786434Y-12809308D02*
X8795958Y-12790260D01*
X8795958Y-12790260D02*
X8805482Y-12761689D01*
X8805482Y-12761689D02*
X8815006Y-12714070D01*
X8815006Y-12714070D02*
X8815006Y-12675974D01*
X8815006Y-12675974D02*
X8805482Y-12628355D01*
X8805482Y-12628355D02*
X8795958Y-12599784D01*
X8795958Y-12599784D02*
X8786434Y-12580736D01*
X8786434Y-12580736D02*
X8767387Y-12552165D01*
X8767387Y-12552165D02*
X8757863Y-12542641D01*
X9119768Y-12847403D02*
X9110244Y-12837879D01*
X9110244Y-12837879D02*
X9091196Y-12809308D01*
X9091196Y-12809308D02*
X9081673Y-12790260D01*
X9081673Y-12790260D02*
X9072149Y-12761689D01*
X9072149Y-12761689D02*
X9062625Y-12714070D01*
X9062625Y-12714070D02*
X9062625Y-12675974D01*
X9062625Y-12675974D02*
X9072149Y-12628355D01*
X9072149Y-12628355D02*
X9081673Y-12599784D01*
X9081673Y-12599784D02*
X9091196Y-12580736D01*
X9091196Y-12580736D02*
X9110244Y-12552165D01*
X9110244Y-12552165D02*
X9119768Y-12542641D01*
X9195958Y-12637879D02*
X9195958Y-12771212D01*
X9195958Y-12656927D02*
X9205482Y-12647403D01*
X9205482Y-12647403D02*
X9224530Y-12637879D01*
X9224530Y-12637879D02*
X9253101Y-12637879D01*
X9253101Y-12637879D02*
X9272149Y-12647403D01*
X9272149Y-12647403D02*
X9281673Y-12666451D01*
X9281673Y-12666451D02*
X9281673Y-12771212D01*
X9405482Y-12771212D02*
X9386434Y-12761689D01*
X9386434Y-12761689D02*
X9376911Y-12752165D01*
X9376911Y-12752165D02*
X9367387Y-12733117D01*
X9367387Y-12733117D02*
X9367387Y-12675974D01*
X9367387Y-12675974D02*
X9376911Y-12656927D01*
X9376911Y-12656927D02*
X9386434Y-12647403D01*
X9386434Y-12647403D02*
X9405482Y-12637879D01*
X9405482Y-12637879D02*
X9434054Y-12637879D01*
X9434054Y-12637879D02*
X9453101Y-12647403D01*
X9453101Y-12647403D02*
X9462625Y-12656927D01*
X9462625Y-12656927D02*
X9472149Y-12675974D01*
X9472149Y-12675974D02*
X9472149Y-12733117D01*
X9472149Y-12733117D02*
X9462625Y-12752165D01*
X9462625Y-12752165D02*
X9453101Y-12761689D01*
X9453101Y-12761689D02*
X9434054Y-12771212D01*
X9434054Y-12771212D02*
X9405482Y-12771212D01*
X9529292Y-12637879D02*
X9605482Y-12637879D01*
X9557863Y-12571212D02*
X9557863Y-12742641D01*
X9557863Y-12742641D02*
X9567387Y-12761689D01*
X9567387Y-12761689D02*
X9586434Y-12771212D01*
X9586434Y-12771212D02*
X9605482Y-12771212D01*
X9824530Y-12637879D02*
X9824530Y-12837879D01*
X9824530Y-12647403D02*
X9843577Y-12637879D01*
X9843577Y-12637879D02*
X9881673Y-12637879D01*
X9881673Y-12637879D02*
X9900720Y-12647403D01*
X9900720Y-12647403D02*
X9910244Y-12656927D01*
X9910244Y-12656927D02*
X9919768Y-12675974D01*
X9919768Y-12675974D02*
X9919768Y-12733117D01*
X9919768Y-12733117D02*
X9910244Y-12752165D01*
X9910244Y-12752165D02*
X9900720Y-12761689D01*
X9900720Y-12761689D02*
X9881673Y-12771212D01*
X9881673Y-12771212D02*
X9843577Y-12771212D01*
X9843577Y-12771212D02*
X9824530Y-12761689D01*
X10034054Y-12771212D02*
X10015006Y-12761689D01*
X10015006Y-12761689D02*
X10005482Y-12742641D01*
X10005482Y-12742641D02*
X10005482Y-12571212D01*
X10195958Y-12771212D02*
X10195958Y-12666451D01*
X10195958Y-12666451D02*
X10186435Y-12647403D01*
X10186435Y-12647403D02*
X10167387Y-12637879D01*
X10167387Y-12637879D02*
X10129292Y-12637879D01*
X10129292Y-12637879D02*
X10110244Y-12647403D01*
X10195958Y-12761689D02*
X10176911Y-12771212D01*
X10176911Y-12771212D02*
X10129292Y-12771212D01*
X10129292Y-12771212D02*
X10110244Y-12761689D01*
X10110244Y-12761689D02*
X10100720Y-12742641D01*
X10100720Y-12742641D02*
X10100720Y-12723593D01*
X10100720Y-12723593D02*
X10110244Y-12704546D01*
X10110244Y-12704546D02*
X10129292Y-12695022D01*
X10129292Y-12695022D02*
X10176911Y-12695022D01*
X10176911Y-12695022D02*
X10195958Y-12685498D01*
X10262625Y-12637879D02*
X10338815Y-12637879D01*
X10291196Y-12571212D02*
X10291196Y-12742641D01*
X10291196Y-12742641D02*
X10300720Y-12761689D01*
X10300720Y-12761689D02*
X10319768Y-12771212D01*
X10319768Y-12771212D02*
X10338815Y-12771212D01*
X10481673Y-12761689D02*
X10462625Y-12771212D01*
X10462625Y-12771212D02*
X10424530Y-12771212D01*
X10424530Y-12771212D02*
X10405482Y-12761689D01*
X10405482Y-12761689D02*
X10395958Y-12742641D01*
X10395958Y-12742641D02*
X10395958Y-12666451D01*
X10395958Y-12666451D02*
X10405482Y-12647403D01*
X10405482Y-12647403D02*
X10424530Y-12637879D01*
X10424530Y-12637879D02*
X10462625Y-12637879D01*
X10462625Y-12637879D02*
X10481673Y-12647403D01*
X10481673Y-12647403D02*
X10491196Y-12666451D01*
X10491196Y-12666451D02*
X10491196Y-12685498D01*
X10491196Y-12685498D02*
X10395958Y-12704546D01*
X10662625Y-12771212D02*
X10662625Y-12571212D01*
X10662625Y-12761689D02*
X10643577Y-12771212D01*
X10643577Y-12771212D02*
X10605482Y-12771212D01*
X10605482Y-12771212D02*
X10586435Y-12761689D01*
X10586435Y-12761689D02*
X10576911Y-12752165D01*
X10576911Y-12752165D02*
X10567387Y-12733117D01*
X10567387Y-12733117D02*
X10567387Y-12675974D01*
X10567387Y-12675974D02*
X10576911Y-12656927D01*
X10576911Y-12656927D02*
X10586435Y-12647403D01*
X10586435Y-12647403D02*
X10605482Y-12637879D01*
X10605482Y-12637879D02*
X10643577Y-12637879D01*
X10643577Y-12637879D02*
X10662625Y-12647403D01*
X10738816Y-12847403D02*
X10748339Y-12837879D01*
X10748339Y-12837879D02*
X10767387Y-12809308D01*
X10767387Y-12809308D02*
X10776911Y-12790260D01*
X10776911Y-12790260D02*
X10786435Y-12761689D01*
X10786435Y-12761689D02*
X10795958Y-12714070D01*
X10795958Y-12714070D02*
X10795958Y-12675974D01*
X10795958Y-12675974D02*
X10786435Y-12628355D01*
X10786435Y-12628355D02*
X10776911Y-12599784D01*
X10776911Y-12599784D02*
X10767387Y-12580736D01*
X10767387Y-12580736D02*
X10748339Y-12552165D01*
X10748339Y-12552165D02*
X10738816Y-12542641D01*
M02*
