%TF.GenerationSoftware,KiCad,Pcbnew,9.0.2*%
%TF.CreationDate,2025-05-24T18:08:54+02:00*%
%TF.ProjectId,CCFL2LED,4343464c-324c-4454-942e-6b696361645f,rev?*%
%TF.SameCoordinates,Original*%
%TF.FileFunction,Paste,Top*%
%TF.FilePolarity,Positive*%
%FSLAX46Y46*%
G04 Gerber Fmt 4.6, Leading zero omitted, Abs format (unit mm)*
G04 Created by KiCad (PCBNEW 9.0.2) date 2025-05-24 18:08:54*
%MOMM*%
%LPD*%
G01*
G04 APERTURE LIST*
G04 Aperture macros list*
%AMRoundRect*
0 Rectangle with rounded corners*
0 $1 Rounding radius*
0 $2 $3 $4 $5 $6 $7 $8 $9 X,Y pos of 4 corners*
0 Add a 4 corners polygon primitive as box body*
4,1,4,$2,$3,$4,$5,$6,$7,$8,$9,$2,$3,0*
0 Add four circle primitives for the rounded corners*
1,1,$1+$1,$2,$3*
1,1,$1+$1,$4,$5*
1,1,$1+$1,$6,$7*
1,1,$1+$1,$8,$9*
0 Add four rect primitives between the rounded corners*
20,1,$1+$1,$2,$3,$4,$5,0*
20,1,$1+$1,$4,$5,$6,$7,0*
20,1,$1+$1,$6,$7,$8,$9,0*
20,1,$1+$1,$8,$9,$2,$3,0*%
%AMFreePoly0*
4,1,17,0.500000,0.989802,1.044901,0.444901,1.063500,0.400000,1.063500,-0.400000,1.044901,-0.444901,0.500000,-0.989802,0.500000,-2.600000,-0.500000,-2.600000,-0.500000,-0.989802,-1.044901,-0.444901,-1.063500,-0.400000,-1.063500,0.400000,-1.044901,0.444901,-0.500000,0.989802,-0.500000,2.600000,0.500000,2.600000,0.500000,0.989802,0.500000,0.989802,$1*%
G04 Aperture macros list end*
%ADD10RoundRect,0.200000X-0.200000X-0.275000X0.200000X-0.275000X0.200000X0.275000X-0.200000X0.275000X0*%
%ADD11RoundRect,0.112500X0.187500X0.112500X-0.187500X0.112500X-0.187500X-0.112500X0.187500X-0.112500X0*%
%ADD12RoundRect,0.250000X0.300000X-1.000000X0.300000X1.000000X-0.300000X1.000000X-0.300000X-1.000000X0*%
%ADD13RoundRect,0.250000X1.550000X-0.920000X1.550000X0.920000X-1.550000X0.920000X-1.550000X-0.920000X0*%
%ADD14RoundRect,0.250000X0.625000X-0.400000X0.625000X0.400000X-0.625000X0.400000X-0.625000X-0.400000X0*%
%ADD15RoundRect,0.250000X-0.625000X0.400000X-0.625000X-0.400000X0.625000X-0.400000X0.625000X0.400000X0*%
%ADD16RoundRect,0.225000X0.250000X-0.225000X0.250000X0.225000X-0.250000X0.225000X-0.250000X-0.225000X0*%
%ADD17RoundRect,0.150000X-0.150000X0.590000X-0.150000X-0.590000X0.150000X-0.590000X0.150000X0.590000X0*%
%ADD18RoundRect,0.250000X0.475000X-0.250000X0.475000X0.250000X-0.475000X0.250000X-0.475000X-0.250000X0*%
%ADD19R,1.500000X2.200000*%
%ADD20RoundRect,0.225000X0.225000X0.250000X-0.225000X0.250000X-0.225000X-0.250000X0.225000X-0.250000X0*%
%ADD21RoundRect,0.250000X0.550000X-0.300000X0.550000X0.300000X-0.550000X0.300000X-0.550000X-0.300000X0*%
%ADD22RoundRect,0.250000X0.550000X-1.412500X0.550000X1.412500X-0.550000X1.412500X-0.550000X-1.412500X0*%
%ADD23R,1.003300X0.558800*%
%ADD24RoundRect,0.225000X-0.225000X-0.250000X0.225000X-0.250000X0.225000X0.250000X-0.225000X0.250000X0*%
%ADD25RoundRect,0.200000X0.275000X-0.200000X0.275000X0.200000X-0.275000X0.200000X-0.275000X-0.200000X0*%
%ADD26RoundRect,0.250000X1.080000X-0.595000X1.080000X0.595000X-1.080000X0.595000X-1.080000X-0.595000X0*%
%ADD27RoundRect,0.150000X0.150000X-0.687500X0.150000X0.687500X-0.150000X0.687500X-0.150000X-0.687500X0*%
%ADD28RoundRect,0.250000X0.375000X0.625000X-0.375000X0.625000X-0.375000X-0.625000X0.375000X-0.625000X0*%
%ADD29RoundRect,0.200000X-0.275000X0.200000X-0.275000X-0.200000X0.275000X-0.200000X0.275000X0.200000X0*%
%ADD30R,0.700000X1.500000*%
%ADD31FreePoly0,180.000000*%
%ADD32R,0.300000X1.400000*%
%ADD33R,0.500000X1.400000*%
%ADD34RoundRect,0.500000X2.000000X1.000000X-2.000000X1.000000X-2.000000X-1.000000X2.000000X-1.000000X0*%
G04 APERTURE END LIST*
D10*
%TO.C,R7*%
X78473500Y-59646500D03*
X80113500Y-59646500D03*
%TD*%
D11*
%TO.C,D1*%
X53975000Y-55596000D03*
X51875000Y-55596000D03*
%TD*%
D12*
%TO.C,U8*%
X50939000Y-40766000D03*
X48639000Y-40766000D03*
X46339000Y-40766000D03*
D13*
X48639000Y-46736000D03*
%TD*%
D14*
%TO.C,R13*%
X62230000Y-103378000D03*
X62230000Y-100278000D03*
%TD*%
D15*
%TO.C,R18*%
X49530000Y-100278000D03*
X49530000Y-103378000D03*
%TD*%
D16*
%TO.C,C23*%
X51435000Y-47788000D03*
X51435000Y-46228000D03*
%TD*%
D17*
%TO.C,Q1*%
X73594000Y-105206400D03*
X71694000Y-105206400D03*
X72644000Y-107086400D03*
%TD*%
D18*
%TO.C,C5*%
X85217000Y-67047000D03*
X85217000Y-65147000D03*
%TD*%
D15*
%TO.C,R8*%
X57023000Y-66496000D03*
X57023000Y-69596000D03*
%TD*%
D19*
%TO.C,L1*%
X42545000Y-53561500D03*
X48945000Y-53561500D03*
%TD*%
D20*
%TO.C,C3*%
X76594500Y-63583500D03*
X75034500Y-63583500D03*
%TD*%
D21*
%TO.C,D3*%
X78968600Y-49609200D03*
X78968600Y-46809200D03*
%TD*%
D15*
%TO.C,R9*%
X54495000Y-66496000D03*
X54495000Y-69596000D03*
%TD*%
%TO.C,R17*%
X52070000Y-100278000D03*
X52070000Y-103378000D03*
%TD*%
%TO.C,R14*%
X59690000Y-100278000D03*
X59690000Y-103378000D03*
%TD*%
%TO.C,R4*%
X59563000Y-66496000D03*
X59563000Y-69596000D03*
%TD*%
%TO.C,R16*%
X54610000Y-100278000D03*
X54610000Y-103378000D03*
%TD*%
D22*
%TO.C,C2*%
X56642000Y-63338000D03*
X56642000Y-58263000D03*
%TD*%
D16*
%TO.C,C1*%
X83080000Y-63220500D03*
X83080000Y-61660500D03*
%TD*%
D23*
%TO.C,U3*%
X81175000Y-63456500D03*
X81175000Y-62506499D03*
X81175000Y-61556498D03*
X78469900Y-61556498D03*
X78469900Y-62506499D03*
X78469900Y-63456500D03*
%TD*%
D24*
%TO.C,C22*%
X46460000Y-38048000D03*
X48020000Y-38048000D03*
%TD*%
D18*
%TO.C,C6*%
X83080000Y-67047000D03*
X83080000Y-65147000D03*
%TD*%
D19*
%TO.C,L2*%
X80946000Y-69679500D03*
X74546000Y-69679500D03*
%TD*%
D25*
%TO.C,R1*%
X68072000Y-106507500D03*
X68072000Y-104867500D03*
%TD*%
%TO.C,R2*%
X69850000Y-106484000D03*
X69850000Y-104844000D03*
%TD*%
D26*
%TO.C,U9*%
X56928000Y-44987500D03*
D27*
X54928000Y-47625000D03*
X55928000Y-47625000D03*
X56928000Y-47625000D03*
X57928000Y-47625000D03*
X58928000Y-47625000D03*
X58928000Y-42350000D03*
X57928000Y-42350000D03*
X56928000Y-42350000D03*
X55928000Y-42350000D03*
X54928000Y-42350000D03*
%TD*%
D22*
%TO.C,C7*%
X56728000Y-97080500D03*
X56728000Y-92005500D03*
%TD*%
D28*
%TO.C,F2*%
X84153200Y-49631600D03*
X81353200Y-49631600D03*
%TD*%
D14*
%TO.C,R3*%
X62115000Y-69596000D03*
X62115000Y-66496000D03*
%TD*%
D15*
%TO.C,R15*%
X57150000Y-100278000D03*
X57150000Y-103378000D03*
%TD*%
D16*
%TO.C,C24*%
X53213000Y-47788000D03*
X53213000Y-46228000D03*
%TD*%
D15*
%TO.C,R10*%
X51943000Y-66496000D03*
X51943000Y-69596000D03*
%TD*%
D19*
%TO.C,L3*%
X42631000Y-87304000D03*
X49031000Y-87304000D03*
%TD*%
D16*
%TO.C,C4*%
X74825000Y-61232000D03*
X74825000Y-59672000D03*
%TD*%
D29*
%TO.C,R5*%
X75565000Y-104820500D03*
X75565000Y-106460500D03*
%TD*%
D15*
%TO.C,R12*%
X46875000Y-66522000D03*
X46875000Y-69622000D03*
%TD*%
D11*
%TO.C,D2*%
X54112000Y-89480000D03*
X52012000Y-89480000D03*
%TD*%
D30*
%TO.C,U1*%
X51943000Y-59022500D03*
D31*
X50443000Y-60872500D03*
D30*
X48943000Y-59022500D03*
X48943000Y-62722500D03*
X51943000Y-62722500D03*
%TD*%
D15*
%TO.C,R19*%
X46990000Y-100278000D03*
X46990000Y-103378000D03*
%TD*%
D25*
%TO.C,R6*%
X76603000Y-61255000D03*
X76603000Y-59615000D03*
%TD*%
D32*
%TO.C,J2*%
X58144000Y-37611000D03*
X57144000Y-37611000D03*
X56644000Y-37611000D03*
X55644000Y-37611000D03*
D33*
X54494000Y-37611000D03*
X53694000Y-37611000D03*
D32*
X55144000Y-37611000D03*
X56144000Y-37611000D03*
X57644000Y-37611000D03*
X58644000Y-37611000D03*
D33*
X59294000Y-37611000D03*
X60094000Y-37611000D03*
D34*
X56894000Y-33111000D03*
%TD*%
D30*
%TO.C,U2*%
X52046000Y-92765000D03*
D31*
X50546000Y-94615000D03*
D30*
X49046000Y-92765000D03*
X49046000Y-96465000D03*
X52046000Y-96465000D03*
%TD*%
D15*
%TO.C,R11*%
X49403000Y-66496000D03*
X49403000Y-69596000D03*
%TD*%
M02*
