%TF.GenerationSoftware,KiCad,Pcbnew,9.0.2*%
%TF.CreationDate,2025-05-24T18:09:23+02:00*%
%TF.ProjectId,CCFL2LED,4343464c-324c-4454-942e-6b696361645f,rev?*%
%TF.SameCoordinates,Original*%
%TF.FileFunction,Drillmap*%
%TF.FilePolarity,Positive*%
%FSLAX45Y45*%
G04 Gerber Fmt 4.5, Leading zero omitted, Abs format (unit mm)*
G04 Created by KiCad (PCBNEW 9.0.2) date 2025-05-24 18:09:23*
%MOMM*%
%LPD*%
G01*
G04 APERTURE LIST*
%ADD10C,0.100000*%
%ADD11C,0.200000*%
%ADD12C,0.130000*%
G04 APERTURE END LIST*
D10*
X9499865Y-3302000D02*
X9499865Y-11214100D01*
X3987800Y-3302000D02*
G75*
G02*
X4292600Y-2997200I304800J0D01*
G01*
X4292600Y-2997200D02*
X9207500Y-2997200D01*
X3987800Y-11201400D02*
X3987800Y-3302000D01*
X9207500Y-2997200D02*
G75*
G02*
X9499865Y-3302000I-12700J-304800D01*
G01*
X9194800Y-11506200D02*
X4292600Y-11506200D01*
X4292600Y-11506200D02*
G75*
G02*
X3987800Y-11201400I0J304800D01*
G01*
X9499865Y-11214100D02*
G75*
G02*
X9194800Y-11506729I-305065J12700D01*
G01*
D11*
D10*
X4633200Y-3655300D02*
X4663200Y-3685300D01*
X4663200Y-3655300D02*
X4633200Y-3685300D01*
X4761400Y-5887250D02*
X4791400Y-5917250D01*
X4791400Y-5887250D02*
X4761400Y-5917250D01*
X4771300Y-9263500D02*
X4801300Y-9293500D01*
X4801300Y-9263500D02*
X4771300Y-9293500D01*
X4837600Y-6065050D02*
X4867600Y-6095050D01*
X4867600Y-6065050D02*
X4837600Y-6095050D01*
X4872900Y-9441300D02*
X4902900Y-9471300D01*
X4902900Y-9441300D02*
X4872900Y-9471300D01*
X5028100Y-5722400D02*
X5058100Y-5752400D01*
X5058100Y-5722400D02*
X5028100Y-5752400D01*
X5028100Y-6420900D02*
X5058100Y-6450900D01*
X5058100Y-6420900D02*
X5028100Y-6450900D01*
X5038000Y-9111100D02*
X5068000Y-9141100D01*
X5068000Y-9111100D02*
X5038000Y-9141100D01*
X5038000Y-9797150D02*
X5068000Y-9827150D01*
X5068000Y-9797150D02*
X5038000Y-9827150D01*
X5331700Y-3960100D02*
X5361700Y-3990100D01*
X5361700Y-3960100D02*
X5331700Y-3990100D01*
X5522200Y-3909300D02*
X5552200Y-3939300D01*
X5552200Y-3909300D02*
X5522200Y-3939300D01*
X5676900Y-3986913D02*
X5706900Y-4016913D01*
X5706900Y-3986913D02*
X5676900Y-4016913D01*
X5771900Y-3986913D02*
X5801900Y-4016913D01*
X5801900Y-3986913D02*
X5771900Y-4016913D01*
X5779500Y-4925300D02*
X5809500Y-4955300D01*
X5809500Y-4925300D02*
X5779500Y-4955300D01*
X5874500Y-4925300D02*
X5904500Y-4955300D01*
X5904500Y-4925300D02*
X5874500Y-4955300D01*
X5928600Y-4023600D02*
X5958600Y-4053600D01*
X5958600Y-4023600D02*
X5928600Y-4053600D01*
X6766800Y-10333150D02*
X6796800Y-10363150D01*
X6796800Y-10333150D02*
X6766800Y-10363150D01*
X6868400Y-10333150D02*
X6898400Y-10363150D01*
X6898400Y-10333150D02*
X6868400Y-10363150D01*
X7348460Y-6116560D02*
X7378460Y-6146560D01*
X7378460Y-6116560D02*
X7348460Y-6146560D01*
X7668500Y-10460400D02*
X7698500Y-10490400D01*
X7698500Y-10460400D02*
X7668500Y-10490400D01*
X7683400Y-6229050D02*
X7713400Y-6259050D01*
X7713400Y-6229050D02*
X7683400Y-6259050D01*
X8684500Y-6690600D02*
X8714500Y-6720600D01*
X8714500Y-6690600D02*
X8684500Y-6720600D01*
X4778900Y-4673600D02*
G75*
G02*
X4748900Y-4673600I-15000J0D01*
G01*
X4748900Y-4673600D02*
G75*
G02*
X4778900Y-4673600I15000J0D01*
G01*
X4878900Y-4673600D02*
G75*
G02*
X4848900Y-4673600I-15000J0D01*
G01*
X4848900Y-4673600D02*
G75*
G02*
X4878900Y-4673600I15000J0D01*
G01*
X4978900Y-4673600D02*
G75*
G02*
X4948900Y-4673600I-15000J0D01*
G01*
X4948900Y-4673600D02*
G75*
G02*
X4978900Y-4673600I15000J0D01*
G01*
X5504400Y-3211100D02*
G75*
G02*
X5474400Y-3211100I-15000J0D01*
G01*
X5474400Y-3211100D02*
G75*
G02*
X5504400Y-3211100I15000J0D01*
G01*
X5504400Y-3411100D02*
G75*
G02*
X5474400Y-3411100I-15000J0D01*
G01*
X5474400Y-3411100D02*
G75*
G02*
X5504400Y-3411100I15000J0D01*
G01*
X5904400Y-3211100D02*
G75*
G02*
X5874400Y-3211100I-15000J0D01*
G01*
X5874400Y-3211100D02*
G75*
G02*
X5904400Y-3211100I15000J0D01*
G01*
X5904400Y-3411100D02*
G75*
G02*
X5874400Y-3411100I-15000J0D01*
G01*
X5874400Y-3411100D02*
G75*
G02*
X5904400Y-3411100I15000J0D01*
G01*
X5256400Y-3248100D02*
X5256400Y-3298100D01*
X5231400Y-3273100D02*
X5281400Y-3273100D01*
X5281400Y-3313100D02*
X5281400Y-3233100D01*
X5231400Y-3233100D02*
G75*
G02*
X5281400Y-3233100I25000J0D01*
G01*
X5231400Y-3233100D02*
X5231400Y-3313100D01*
X5231400Y-3313100D02*
G75*
G03*
X5281400Y-3313100I25000J0D01*
G01*
X5256400Y-3668100D02*
X5256400Y-3718100D01*
X5231400Y-3693100D02*
X5281400Y-3693100D01*
X5281400Y-3748100D02*
X5281400Y-3638100D01*
X5231400Y-3638100D02*
G75*
G02*
X5281400Y-3638100I25000J0D01*
G01*
X5231400Y-3638100D02*
X5231400Y-3748100D01*
X5231400Y-3748100D02*
G75*
G03*
X5281400Y-3748100I25000J0D01*
G01*
X6122400Y-3248100D02*
X6122400Y-3298100D01*
X6097400Y-3273100D02*
X6147400Y-3273100D01*
X6147400Y-3313100D02*
X6147400Y-3233100D01*
X6097400Y-3233100D02*
G75*
G02*
X6147400Y-3233100I25000J0D01*
G01*
X6097400Y-3233100D02*
X6097400Y-3313100D01*
X6097400Y-3313100D02*
G75*
G03*
X6147400Y-3313100I25000J0D01*
G01*
X6122400Y-3668100D02*
X6122400Y-3718100D01*
X6097400Y-3693100D02*
X6147400Y-3693100D01*
X6147400Y-3748100D02*
X6147400Y-3638100D01*
X6097400Y-3638100D02*
G75*
G02*
X6147400Y-3638100I25000J0D01*
G01*
X6097400Y-3638100D02*
X6097400Y-3748100D01*
X6097400Y-3748100D02*
G75*
G03*
X6147400Y-3748100I25000J0D01*
G01*
X4381256Y-6016056D02*
X4381256Y-5945344D01*
X4310544Y-5945344D01*
X4310544Y-6016056D01*
X4381256Y-6016056D01*
X4381256Y-6270056D02*
X4381256Y-6199344D01*
X4310544Y-6199344D01*
X4310544Y-6270056D01*
X4381256Y-6270056D01*
X4393956Y-9384556D02*
X4393956Y-9313844D01*
X4323244Y-9313844D01*
X4323244Y-9384556D01*
X4393956Y-9384556D01*
X4393956Y-9638556D02*
X4393956Y-9567844D01*
X4323244Y-9567844D01*
X4323244Y-9638556D01*
X4393956Y-9638556D01*
X6728256Y-4670856D02*
X6728256Y-4600144D01*
X6657544Y-4600144D01*
X6657544Y-4670856D01*
X6728256Y-4670856D01*
X6728256Y-4924856D02*
X6728256Y-4854144D01*
X6657544Y-4854144D01*
X6657544Y-4924856D01*
X6728256Y-4924856D01*
X6804456Y-11325406D02*
X6804456Y-11254694D01*
X6733744Y-11254694D01*
X6733744Y-11325406D01*
X6804456Y-11325406D01*
X6944156Y-6004106D02*
X6944156Y-5933394D01*
X6873444Y-5933394D01*
X6873444Y-6004106D01*
X6944156Y-6004106D01*
X6944156Y-10068106D02*
X6944156Y-9997394D01*
X6873444Y-9997394D01*
X6873444Y-10068106D01*
X6944156Y-10068106D01*
X7058456Y-11325406D02*
X7058456Y-11254694D01*
X6987744Y-11254694D01*
X6987744Y-11325406D01*
X7058456Y-11325406D01*
X7312456Y-11325406D02*
X7312456Y-11254694D01*
X7241744Y-11254694D01*
X7241744Y-11325406D01*
X7312456Y-11325406D01*
X7566456Y-11325406D02*
X7566456Y-11254694D01*
X7495744Y-11254694D01*
X7495744Y-11325406D01*
X7566456Y-11325406D01*
X7820456Y-11325406D02*
X7820456Y-11254694D01*
X7749744Y-11254694D01*
X7749744Y-11325406D01*
X7820456Y-11325406D01*
X7985456Y-4119956D02*
X7985456Y-4049244D01*
X7914744Y-4049244D01*
X7914744Y-4119956D01*
X7985456Y-4119956D01*
X7900100Y-3984600D02*
X7900100Y-4184600D01*
X8000100Y-4184600D02*
G75*
G02*
X7900100Y-4184600I-50000J0D01*
G01*
X8000100Y-4184600D02*
X8000100Y-3984600D01*
X8000100Y-3984600D02*
G75*
G03*
X7900100Y-3984600I-50000J0D01*
G01*
X8074456Y-11325406D02*
X8074456Y-11254694D01*
X8003744Y-11254694D01*
X8003744Y-11325406D01*
X8074456Y-11325406D01*
X8455456Y-3819956D02*
X8455456Y-3749244D01*
X8384744Y-3749244D01*
X8384744Y-3819956D01*
X8455456Y-3819956D01*
X8520100Y-3734600D02*
X8320100Y-3734600D01*
X8320100Y-3834600D02*
G75*
G02*
X8320100Y-3734600I0J50000D01*
G01*
X8320100Y-3834600D02*
X8520100Y-3834600D01*
X8520100Y-3834600D02*
G75*
G03*
X8520100Y-3734600I0J50000D01*
G01*
X8455456Y-4419956D02*
X8455456Y-4349244D01*
X8384744Y-4349244D01*
X8384744Y-4419956D01*
X8455456Y-4419956D01*
X8520100Y-4334600D02*
X8320100Y-4334600D01*
X8320100Y-4434600D02*
G75*
G02*
X8320100Y-4334600I0J50000D01*
G01*
X8320100Y-4434600D02*
X8520100Y-4434600D01*
X8520100Y-4434600D02*
G75*
G03*
X8520100Y-4334600I0J50000D01*
G01*
X8722156Y-6004106D02*
X8722156Y-5933394D01*
X8651444Y-5933394D01*
X8651444Y-6004106D01*
X8722156Y-6004106D01*
X8722156Y-10068106D02*
X8722156Y-9997394D01*
X8651444Y-9997394D01*
X8651444Y-10068106D01*
X8722156Y-10068106D01*
D12*
X6540400Y-4065500D02*
X6605400Y-4000500D01*
X6540400Y-3935500D01*
X6475400Y-4000500D01*
X6540400Y-4065500D01*
X7010400Y-4065500D02*
X7075400Y-4000500D01*
X7010400Y-3935500D01*
X6945400Y-4000500D01*
X7010400Y-4065500D01*
X7480400Y-4065500D02*
X7545400Y-4000500D01*
X7480400Y-3935500D01*
X7415400Y-4000500D01*
X7480400Y-4065500D01*
D11*
X4243577Y-11823212D02*
X4243577Y-11623212D01*
X4243577Y-11623212D02*
X4291196Y-11623212D01*
X4291196Y-11623212D02*
X4319767Y-11632736D01*
X4319767Y-11632736D02*
X4338815Y-11651784D01*
X4338815Y-11651784D02*
X4348339Y-11670831D01*
X4348339Y-11670831D02*
X4357863Y-11708927D01*
X4357863Y-11708927D02*
X4357863Y-11737498D01*
X4357863Y-11737498D02*
X4348339Y-11775593D01*
X4348339Y-11775593D02*
X4338815Y-11794641D01*
X4338815Y-11794641D02*
X4319767Y-11813689D01*
X4319767Y-11813689D02*
X4291196Y-11823212D01*
X4291196Y-11823212D02*
X4243577Y-11823212D01*
X4443577Y-11823212D02*
X4443577Y-11689879D01*
X4443577Y-11727974D02*
X4453101Y-11708927D01*
X4453101Y-11708927D02*
X4462624Y-11699403D01*
X4462624Y-11699403D02*
X4481672Y-11689879D01*
X4481672Y-11689879D02*
X4500720Y-11689879D01*
X4567386Y-11823212D02*
X4567386Y-11689879D01*
X4567386Y-11623212D02*
X4557863Y-11632736D01*
X4557863Y-11632736D02*
X4567386Y-11642260D01*
X4567386Y-11642260D02*
X4576910Y-11632736D01*
X4576910Y-11632736D02*
X4567386Y-11623212D01*
X4567386Y-11623212D02*
X4567386Y-11642260D01*
X4691196Y-11823212D02*
X4672148Y-11813689D01*
X4672148Y-11813689D02*
X4662624Y-11794641D01*
X4662624Y-11794641D02*
X4662624Y-11623212D01*
X4795958Y-11823212D02*
X4776910Y-11813689D01*
X4776910Y-11813689D02*
X4767386Y-11794641D01*
X4767386Y-11794641D02*
X4767386Y-11623212D01*
X5024529Y-11823212D02*
X5024529Y-11623212D01*
X5024529Y-11623212D02*
X5091196Y-11766070D01*
X5091196Y-11766070D02*
X5157863Y-11623212D01*
X5157863Y-11623212D02*
X5157863Y-11823212D01*
X5338815Y-11823212D02*
X5338815Y-11718451D01*
X5338815Y-11718451D02*
X5329291Y-11699403D01*
X5329291Y-11699403D02*
X5310244Y-11689879D01*
X5310244Y-11689879D02*
X5272148Y-11689879D01*
X5272148Y-11689879D02*
X5253101Y-11699403D01*
X5338815Y-11813689D02*
X5319767Y-11823212D01*
X5319767Y-11823212D02*
X5272148Y-11823212D01*
X5272148Y-11823212D02*
X5253101Y-11813689D01*
X5253101Y-11813689D02*
X5243577Y-11794641D01*
X5243577Y-11794641D02*
X5243577Y-11775593D01*
X5243577Y-11775593D02*
X5253101Y-11756546D01*
X5253101Y-11756546D02*
X5272148Y-11747022D01*
X5272148Y-11747022D02*
X5319767Y-11747022D01*
X5319767Y-11747022D02*
X5338815Y-11737498D01*
X5434053Y-11689879D02*
X5434053Y-11889879D01*
X5434053Y-11699403D02*
X5453101Y-11689879D01*
X5453101Y-11689879D02*
X5491196Y-11689879D01*
X5491196Y-11689879D02*
X5510244Y-11699403D01*
X5510244Y-11699403D02*
X5519767Y-11708927D01*
X5519767Y-11708927D02*
X5529291Y-11727974D01*
X5529291Y-11727974D02*
X5529291Y-11785117D01*
X5529291Y-11785117D02*
X5519767Y-11804165D01*
X5519767Y-11804165D02*
X5510244Y-11813689D01*
X5510244Y-11813689D02*
X5491196Y-11823212D01*
X5491196Y-11823212D02*
X5453101Y-11823212D01*
X5453101Y-11823212D02*
X5434053Y-11813689D01*
X5615005Y-11804165D02*
X5624529Y-11813689D01*
X5624529Y-11813689D02*
X5615005Y-11823212D01*
X5615005Y-11823212D02*
X5605482Y-11813689D01*
X5605482Y-11813689D02*
X5615005Y-11804165D01*
X5615005Y-11804165D02*
X5615005Y-11823212D01*
X5615005Y-11699403D02*
X5624529Y-11708927D01*
X5624529Y-11708927D02*
X5615005Y-11718451D01*
X5615005Y-11718451D02*
X5605482Y-11708927D01*
X5605482Y-11708927D02*
X5615005Y-11699403D01*
X5615005Y-11699403D02*
X5615005Y-11718451D01*
D10*
X3952800Y-12136729D02*
X3982800Y-12166729D01*
X3982800Y-12136729D02*
X3952800Y-12166729D01*
D11*
X4281672Y-12043212D02*
X4300720Y-12043212D01*
X4300720Y-12043212D02*
X4319767Y-12052736D01*
X4319767Y-12052736D02*
X4329291Y-12062260D01*
X4329291Y-12062260D02*
X4338815Y-12081308D01*
X4338815Y-12081308D02*
X4348339Y-12119403D01*
X4348339Y-12119403D02*
X4348339Y-12167022D01*
X4348339Y-12167022D02*
X4338815Y-12205117D01*
X4338815Y-12205117D02*
X4329291Y-12224165D01*
X4329291Y-12224165D02*
X4319767Y-12233689D01*
X4319767Y-12233689D02*
X4300720Y-12243212D01*
X4300720Y-12243212D02*
X4281672Y-12243212D01*
X4281672Y-12243212D02*
X4262624Y-12233689D01*
X4262624Y-12233689D02*
X4253101Y-12224165D01*
X4253101Y-12224165D02*
X4243577Y-12205117D01*
X4243577Y-12205117D02*
X4234053Y-12167022D01*
X4234053Y-12167022D02*
X4234053Y-12119403D01*
X4234053Y-12119403D02*
X4243577Y-12081308D01*
X4243577Y-12081308D02*
X4253101Y-12062260D01*
X4253101Y-12062260D02*
X4262624Y-12052736D01*
X4262624Y-12052736D02*
X4281672Y-12043212D01*
X4434053Y-12224165D02*
X4443577Y-12233689D01*
X4443577Y-12233689D02*
X4434053Y-12243212D01*
X4434053Y-12243212D02*
X4424529Y-12233689D01*
X4424529Y-12233689D02*
X4434053Y-12224165D01*
X4434053Y-12224165D02*
X4434053Y-12243212D01*
X4510244Y-12043212D02*
X4634053Y-12043212D01*
X4634053Y-12043212D02*
X4567386Y-12119403D01*
X4567386Y-12119403D02*
X4595958Y-12119403D01*
X4595958Y-12119403D02*
X4615005Y-12128927D01*
X4615005Y-12128927D02*
X4624529Y-12138451D01*
X4624529Y-12138451D02*
X4634053Y-12157498D01*
X4634053Y-12157498D02*
X4634053Y-12205117D01*
X4634053Y-12205117D02*
X4624529Y-12224165D01*
X4624529Y-12224165D02*
X4615005Y-12233689D01*
X4615005Y-12233689D02*
X4595958Y-12243212D01*
X4595958Y-12243212D02*
X4538815Y-12243212D01*
X4538815Y-12243212D02*
X4519767Y-12233689D01*
X4519767Y-12233689D02*
X4510244Y-12224165D01*
X4757863Y-12043212D02*
X4776910Y-12043212D01*
X4776910Y-12043212D02*
X4795958Y-12052736D01*
X4795958Y-12052736D02*
X4805482Y-12062260D01*
X4805482Y-12062260D02*
X4815005Y-12081308D01*
X4815005Y-12081308D02*
X4824529Y-12119403D01*
X4824529Y-12119403D02*
X4824529Y-12167022D01*
X4824529Y-12167022D02*
X4815005Y-12205117D01*
X4815005Y-12205117D02*
X4805482Y-12224165D01*
X4805482Y-12224165D02*
X4795958Y-12233689D01*
X4795958Y-12233689D02*
X4776910Y-12243212D01*
X4776910Y-12243212D02*
X4757863Y-12243212D01*
X4757863Y-12243212D02*
X4738815Y-12233689D01*
X4738815Y-12233689D02*
X4729291Y-12224165D01*
X4729291Y-12224165D02*
X4719767Y-12205117D01*
X4719767Y-12205117D02*
X4710244Y-12167022D01*
X4710244Y-12167022D02*
X4710244Y-12119403D01*
X4710244Y-12119403D02*
X4719767Y-12081308D01*
X4719767Y-12081308D02*
X4729291Y-12062260D01*
X4729291Y-12062260D02*
X4738815Y-12052736D01*
X4738815Y-12052736D02*
X4757863Y-12043212D01*
X4948339Y-12043212D02*
X4967386Y-12043212D01*
X4967386Y-12043212D02*
X4986434Y-12052736D01*
X4986434Y-12052736D02*
X4995958Y-12062260D01*
X4995958Y-12062260D02*
X5005482Y-12081308D01*
X5005482Y-12081308D02*
X5015005Y-12119403D01*
X5015005Y-12119403D02*
X5015005Y-12167022D01*
X5015005Y-12167022D02*
X5005482Y-12205117D01*
X5005482Y-12205117D02*
X4995958Y-12224165D01*
X4995958Y-12224165D02*
X4986434Y-12233689D01*
X4986434Y-12233689D02*
X4967386Y-12243212D01*
X4967386Y-12243212D02*
X4948339Y-12243212D01*
X4948339Y-12243212D02*
X4929291Y-12233689D01*
X4929291Y-12233689D02*
X4919767Y-12224165D01*
X4919767Y-12224165D02*
X4910244Y-12205117D01*
X4910244Y-12205117D02*
X4900720Y-12167022D01*
X4900720Y-12167022D02*
X4900720Y-12119403D01*
X4900720Y-12119403D02*
X4910244Y-12081308D01*
X4910244Y-12081308D02*
X4919767Y-12062260D01*
X4919767Y-12062260D02*
X4929291Y-12052736D01*
X4929291Y-12052736D02*
X4948339Y-12043212D01*
X5100720Y-12243212D02*
X5100720Y-12109879D01*
X5100720Y-12128927D02*
X5110244Y-12119403D01*
X5110244Y-12119403D02*
X5129291Y-12109879D01*
X5129291Y-12109879D02*
X5157863Y-12109879D01*
X5157863Y-12109879D02*
X5176910Y-12119403D01*
X5176910Y-12119403D02*
X5186434Y-12138451D01*
X5186434Y-12138451D02*
X5186434Y-12243212D01*
X5186434Y-12138451D02*
X5195958Y-12119403D01*
X5195958Y-12119403D02*
X5215005Y-12109879D01*
X5215005Y-12109879D02*
X5243577Y-12109879D01*
X5243577Y-12109879D02*
X5262625Y-12119403D01*
X5262625Y-12119403D02*
X5272148Y-12138451D01*
X5272148Y-12138451D02*
X5272148Y-12243212D01*
X5367386Y-12243212D02*
X5367386Y-12109879D01*
X5367386Y-12128927D02*
X5376910Y-12119403D01*
X5376910Y-12119403D02*
X5395958Y-12109879D01*
X5395958Y-12109879D02*
X5424529Y-12109879D01*
X5424529Y-12109879D02*
X5443577Y-12119403D01*
X5443577Y-12119403D02*
X5453101Y-12138451D01*
X5453101Y-12138451D02*
X5453101Y-12243212D01*
X5453101Y-12138451D02*
X5462625Y-12119403D01*
X5462625Y-12119403D02*
X5481672Y-12109879D01*
X5481672Y-12109879D02*
X5510244Y-12109879D01*
X5510244Y-12109879D02*
X5529291Y-12119403D01*
X5529291Y-12119403D02*
X5538815Y-12138451D01*
X5538815Y-12138451D02*
X5538815Y-12243212D01*
X5929291Y-12033689D02*
X5757863Y-12290831D01*
X6186434Y-12043212D02*
X6205482Y-12043212D01*
X6205482Y-12043212D02*
X6224529Y-12052736D01*
X6224529Y-12052736D02*
X6234053Y-12062260D01*
X6234053Y-12062260D02*
X6243577Y-12081308D01*
X6243577Y-12081308D02*
X6253101Y-12119403D01*
X6253101Y-12119403D02*
X6253101Y-12167022D01*
X6253101Y-12167022D02*
X6243577Y-12205117D01*
X6243577Y-12205117D02*
X6234053Y-12224165D01*
X6234053Y-12224165D02*
X6224529Y-12233689D01*
X6224529Y-12233689D02*
X6205482Y-12243212D01*
X6205482Y-12243212D02*
X6186434Y-12243212D01*
X6186434Y-12243212D02*
X6167386Y-12233689D01*
X6167386Y-12233689D02*
X6157863Y-12224165D01*
X6157863Y-12224165D02*
X6148339Y-12205117D01*
X6148339Y-12205117D02*
X6138815Y-12167022D01*
X6138815Y-12167022D02*
X6138815Y-12119403D01*
X6138815Y-12119403D02*
X6148339Y-12081308D01*
X6148339Y-12081308D02*
X6157863Y-12062260D01*
X6157863Y-12062260D02*
X6167386Y-12052736D01*
X6167386Y-12052736D02*
X6186434Y-12043212D01*
X6338815Y-12224165D02*
X6348339Y-12233689D01*
X6348339Y-12233689D02*
X6338815Y-12243212D01*
X6338815Y-12243212D02*
X6329291Y-12233689D01*
X6329291Y-12233689D02*
X6338815Y-12224165D01*
X6338815Y-12224165D02*
X6338815Y-12243212D01*
X6472148Y-12043212D02*
X6491196Y-12043212D01*
X6491196Y-12043212D02*
X6510244Y-12052736D01*
X6510244Y-12052736D02*
X6519767Y-12062260D01*
X6519767Y-12062260D02*
X6529291Y-12081308D01*
X6529291Y-12081308D02*
X6538815Y-12119403D01*
X6538815Y-12119403D02*
X6538815Y-12167022D01*
X6538815Y-12167022D02*
X6529291Y-12205117D01*
X6529291Y-12205117D02*
X6519767Y-12224165D01*
X6519767Y-12224165D02*
X6510244Y-12233689D01*
X6510244Y-12233689D02*
X6491196Y-12243212D01*
X6491196Y-12243212D02*
X6472148Y-12243212D01*
X6472148Y-12243212D02*
X6453101Y-12233689D01*
X6453101Y-12233689D02*
X6443577Y-12224165D01*
X6443577Y-12224165D02*
X6434053Y-12205117D01*
X6434053Y-12205117D02*
X6424529Y-12167022D01*
X6424529Y-12167022D02*
X6424529Y-12119403D01*
X6424529Y-12119403D02*
X6434053Y-12081308D01*
X6434053Y-12081308D02*
X6443577Y-12062260D01*
X6443577Y-12062260D02*
X6453101Y-12052736D01*
X6453101Y-12052736D02*
X6472148Y-12043212D01*
X6729291Y-12243212D02*
X6615006Y-12243212D01*
X6672148Y-12243212D02*
X6672148Y-12043212D01*
X6672148Y-12043212D02*
X6653101Y-12071784D01*
X6653101Y-12071784D02*
X6634053Y-12090831D01*
X6634053Y-12090831D02*
X6615006Y-12100355D01*
X6919767Y-12243212D02*
X6805482Y-12243212D01*
X6862625Y-12243212D02*
X6862625Y-12043212D01*
X6862625Y-12043212D02*
X6843577Y-12071784D01*
X6843577Y-12071784D02*
X6824529Y-12090831D01*
X6824529Y-12090831D02*
X6805482Y-12100355D01*
X7034053Y-12128927D02*
X7015006Y-12119403D01*
X7015006Y-12119403D02*
X7005482Y-12109879D01*
X7005482Y-12109879D02*
X6995958Y-12090831D01*
X6995958Y-12090831D02*
X6995958Y-12081308D01*
X6995958Y-12081308D02*
X7005482Y-12062260D01*
X7005482Y-12062260D02*
X7015006Y-12052736D01*
X7015006Y-12052736D02*
X7034053Y-12043212D01*
X7034053Y-12043212D02*
X7072148Y-12043212D01*
X7072148Y-12043212D02*
X7091196Y-12052736D01*
X7091196Y-12052736D02*
X7100720Y-12062260D01*
X7100720Y-12062260D02*
X7110244Y-12081308D01*
X7110244Y-12081308D02*
X7110244Y-12090831D01*
X7110244Y-12090831D02*
X7100720Y-12109879D01*
X7100720Y-12109879D02*
X7091196Y-12119403D01*
X7091196Y-12119403D02*
X7072148Y-12128927D01*
X7072148Y-12128927D02*
X7034053Y-12128927D01*
X7034053Y-12128927D02*
X7015006Y-12138451D01*
X7015006Y-12138451D02*
X7005482Y-12147974D01*
X7005482Y-12147974D02*
X6995958Y-12167022D01*
X6995958Y-12167022D02*
X6995958Y-12205117D01*
X6995958Y-12205117D02*
X7005482Y-12224165D01*
X7005482Y-12224165D02*
X7015006Y-12233689D01*
X7015006Y-12233689D02*
X7034053Y-12243212D01*
X7034053Y-12243212D02*
X7072148Y-12243212D01*
X7072148Y-12243212D02*
X7091196Y-12233689D01*
X7091196Y-12233689D02*
X7100720Y-12224165D01*
X7100720Y-12224165D02*
X7110244Y-12205117D01*
X7110244Y-12205117D02*
X7110244Y-12167022D01*
X7110244Y-12167022D02*
X7100720Y-12147974D01*
X7100720Y-12147974D02*
X7091196Y-12138451D01*
X7091196Y-12138451D02*
X7072148Y-12128927D01*
X7186434Y-12043212D02*
X7186434Y-12081308D01*
X7262625Y-12043212D02*
X7262625Y-12081308D01*
X7557863Y-12319403D02*
X7548339Y-12309879D01*
X7548339Y-12309879D02*
X7529291Y-12281308D01*
X7529291Y-12281308D02*
X7519768Y-12262260D01*
X7519768Y-12262260D02*
X7510244Y-12233689D01*
X7510244Y-12233689D02*
X7500720Y-12186070D01*
X7500720Y-12186070D02*
X7500720Y-12147974D01*
X7500720Y-12147974D02*
X7510244Y-12100355D01*
X7510244Y-12100355D02*
X7519768Y-12071784D01*
X7519768Y-12071784D02*
X7529291Y-12052736D01*
X7529291Y-12052736D02*
X7548339Y-12024165D01*
X7548339Y-12024165D02*
X7557863Y-12014641D01*
X7624529Y-12062260D02*
X7634053Y-12052736D01*
X7634053Y-12052736D02*
X7653101Y-12043212D01*
X7653101Y-12043212D02*
X7700720Y-12043212D01*
X7700720Y-12043212D02*
X7719768Y-12052736D01*
X7719768Y-12052736D02*
X7729291Y-12062260D01*
X7729291Y-12062260D02*
X7738815Y-12081308D01*
X7738815Y-12081308D02*
X7738815Y-12100355D01*
X7738815Y-12100355D02*
X7729291Y-12128927D01*
X7729291Y-12128927D02*
X7615006Y-12243212D01*
X7615006Y-12243212D02*
X7738815Y-12243212D01*
X7815006Y-12062260D02*
X7824529Y-12052736D01*
X7824529Y-12052736D02*
X7843577Y-12043212D01*
X7843577Y-12043212D02*
X7891196Y-12043212D01*
X7891196Y-12043212D02*
X7910244Y-12052736D01*
X7910244Y-12052736D02*
X7919768Y-12062260D01*
X7919768Y-12062260D02*
X7929291Y-12081308D01*
X7929291Y-12081308D02*
X7929291Y-12100355D01*
X7929291Y-12100355D02*
X7919768Y-12128927D01*
X7919768Y-12128927D02*
X7805482Y-12243212D01*
X7805482Y-12243212D02*
X7929291Y-12243212D01*
X8167387Y-12243212D02*
X8167387Y-12043212D01*
X8253101Y-12243212D02*
X8253101Y-12138451D01*
X8253101Y-12138451D02*
X8243577Y-12119403D01*
X8243577Y-12119403D02*
X8224530Y-12109879D01*
X8224530Y-12109879D02*
X8195958Y-12109879D01*
X8195958Y-12109879D02*
X8176910Y-12119403D01*
X8176910Y-12119403D02*
X8167387Y-12128927D01*
X8376910Y-12243212D02*
X8357863Y-12233689D01*
X8357863Y-12233689D02*
X8348339Y-12224165D01*
X8348339Y-12224165D02*
X8338815Y-12205117D01*
X8338815Y-12205117D02*
X8338815Y-12147974D01*
X8338815Y-12147974D02*
X8348339Y-12128927D01*
X8348339Y-12128927D02*
X8357863Y-12119403D01*
X8357863Y-12119403D02*
X8376910Y-12109879D01*
X8376910Y-12109879D02*
X8405482Y-12109879D01*
X8405482Y-12109879D02*
X8424530Y-12119403D01*
X8424530Y-12119403D02*
X8434053Y-12128927D01*
X8434053Y-12128927D02*
X8443577Y-12147974D01*
X8443577Y-12147974D02*
X8443577Y-12205117D01*
X8443577Y-12205117D02*
X8434053Y-12224165D01*
X8434053Y-12224165D02*
X8424530Y-12233689D01*
X8424530Y-12233689D02*
X8405482Y-12243212D01*
X8405482Y-12243212D02*
X8376910Y-12243212D01*
X8557863Y-12243212D02*
X8538815Y-12233689D01*
X8538815Y-12233689D02*
X8529292Y-12214641D01*
X8529292Y-12214641D02*
X8529292Y-12043212D01*
X8710244Y-12233689D02*
X8691196Y-12243212D01*
X8691196Y-12243212D02*
X8653101Y-12243212D01*
X8653101Y-12243212D02*
X8634053Y-12233689D01*
X8634053Y-12233689D02*
X8624530Y-12214641D01*
X8624530Y-12214641D02*
X8624530Y-12138451D01*
X8624530Y-12138451D02*
X8634053Y-12119403D01*
X8634053Y-12119403D02*
X8653101Y-12109879D01*
X8653101Y-12109879D02*
X8691196Y-12109879D01*
X8691196Y-12109879D02*
X8710244Y-12119403D01*
X8710244Y-12119403D02*
X8719768Y-12138451D01*
X8719768Y-12138451D02*
X8719768Y-12157498D01*
X8719768Y-12157498D02*
X8624530Y-12176546D01*
X8795958Y-12233689D02*
X8815006Y-12243212D01*
X8815006Y-12243212D02*
X8853101Y-12243212D01*
X8853101Y-12243212D02*
X8872149Y-12233689D01*
X8872149Y-12233689D02*
X8881673Y-12214641D01*
X8881673Y-12214641D02*
X8881673Y-12205117D01*
X8881673Y-12205117D02*
X8872149Y-12186070D01*
X8872149Y-12186070D02*
X8853101Y-12176546D01*
X8853101Y-12176546D02*
X8824530Y-12176546D01*
X8824530Y-12176546D02*
X8805482Y-12167022D01*
X8805482Y-12167022D02*
X8795958Y-12147974D01*
X8795958Y-12147974D02*
X8795958Y-12138451D01*
X8795958Y-12138451D02*
X8805482Y-12119403D01*
X8805482Y-12119403D02*
X8824530Y-12109879D01*
X8824530Y-12109879D02*
X8853101Y-12109879D01*
X8853101Y-12109879D02*
X8872149Y-12119403D01*
X8948339Y-12319403D02*
X8957863Y-12309879D01*
X8957863Y-12309879D02*
X8976911Y-12281308D01*
X8976911Y-12281308D02*
X8986434Y-12262260D01*
X8986434Y-12262260D02*
X8995958Y-12233689D01*
X8995958Y-12233689D02*
X9005482Y-12186070D01*
X9005482Y-12186070D02*
X9005482Y-12147974D01*
X9005482Y-12147974D02*
X8995958Y-12100355D01*
X8995958Y-12100355D02*
X8986434Y-12071784D01*
X8986434Y-12071784D02*
X8976911Y-12052736D01*
X8976911Y-12052736D02*
X8957863Y-12024165D01*
X8957863Y-12024165D02*
X8948339Y-12014641D01*
D10*
X3982800Y-12415729D02*
G75*
G02*
X3952800Y-12415729I-15000J0D01*
G01*
X3952800Y-12415729D02*
G75*
G02*
X3982800Y-12415729I15000J0D01*
G01*
D11*
X4281672Y-12307212D02*
X4300720Y-12307212D01*
X4300720Y-12307212D02*
X4319767Y-12316736D01*
X4319767Y-12316736D02*
X4329291Y-12326260D01*
X4329291Y-12326260D02*
X4338815Y-12345308D01*
X4338815Y-12345308D02*
X4348339Y-12383403D01*
X4348339Y-12383403D02*
X4348339Y-12431022D01*
X4348339Y-12431022D02*
X4338815Y-12469117D01*
X4338815Y-12469117D02*
X4329291Y-12488165D01*
X4329291Y-12488165D02*
X4319767Y-12497689D01*
X4319767Y-12497689D02*
X4300720Y-12507212D01*
X4300720Y-12507212D02*
X4281672Y-12507212D01*
X4281672Y-12507212D02*
X4262624Y-12497689D01*
X4262624Y-12497689D02*
X4253101Y-12488165D01*
X4253101Y-12488165D02*
X4243577Y-12469117D01*
X4243577Y-12469117D02*
X4234053Y-12431022D01*
X4234053Y-12431022D02*
X4234053Y-12383403D01*
X4234053Y-12383403D02*
X4243577Y-12345308D01*
X4243577Y-12345308D02*
X4253101Y-12326260D01*
X4253101Y-12326260D02*
X4262624Y-12316736D01*
X4262624Y-12316736D02*
X4281672Y-12307212D01*
X4434053Y-12488165D02*
X4443577Y-12497689D01*
X4443577Y-12497689D02*
X4434053Y-12507212D01*
X4434053Y-12507212D02*
X4424529Y-12497689D01*
X4424529Y-12497689D02*
X4434053Y-12488165D01*
X4434053Y-12488165D02*
X4434053Y-12507212D01*
X4510244Y-12307212D02*
X4634053Y-12307212D01*
X4634053Y-12307212D02*
X4567386Y-12383403D01*
X4567386Y-12383403D02*
X4595958Y-12383403D01*
X4595958Y-12383403D02*
X4615005Y-12392927D01*
X4615005Y-12392927D02*
X4624529Y-12402451D01*
X4624529Y-12402451D02*
X4634053Y-12421498D01*
X4634053Y-12421498D02*
X4634053Y-12469117D01*
X4634053Y-12469117D02*
X4624529Y-12488165D01*
X4624529Y-12488165D02*
X4615005Y-12497689D01*
X4615005Y-12497689D02*
X4595958Y-12507212D01*
X4595958Y-12507212D02*
X4538815Y-12507212D01*
X4538815Y-12507212D02*
X4519767Y-12497689D01*
X4519767Y-12497689D02*
X4510244Y-12488165D01*
X4757863Y-12307212D02*
X4776910Y-12307212D01*
X4776910Y-12307212D02*
X4795958Y-12316736D01*
X4795958Y-12316736D02*
X4805482Y-12326260D01*
X4805482Y-12326260D02*
X4815005Y-12345308D01*
X4815005Y-12345308D02*
X4824529Y-12383403D01*
X4824529Y-12383403D02*
X4824529Y-12431022D01*
X4824529Y-12431022D02*
X4815005Y-12469117D01*
X4815005Y-12469117D02*
X4805482Y-12488165D01*
X4805482Y-12488165D02*
X4795958Y-12497689D01*
X4795958Y-12497689D02*
X4776910Y-12507212D01*
X4776910Y-12507212D02*
X4757863Y-12507212D01*
X4757863Y-12507212D02*
X4738815Y-12497689D01*
X4738815Y-12497689D02*
X4729291Y-12488165D01*
X4729291Y-12488165D02*
X4719767Y-12469117D01*
X4719767Y-12469117D02*
X4710244Y-12431022D01*
X4710244Y-12431022D02*
X4710244Y-12383403D01*
X4710244Y-12383403D02*
X4719767Y-12345308D01*
X4719767Y-12345308D02*
X4729291Y-12326260D01*
X4729291Y-12326260D02*
X4738815Y-12316736D01*
X4738815Y-12316736D02*
X4757863Y-12307212D01*
X4948339Y-12307212D02*
X4967386Y-12307212D01*
X4967386Y-12307212D02*
X4986434Y-12316736D01*
X4986434Y-12316736D02*
X4995958Y-12326260D01*
X4995958Y-12326260D02*
X5005482Y-12345308D01*
X5005482Y-12345308D02*
X5015005Y-12383403D01*
X5015005Y-12383403D02*
X5015005Y-12431022D01*
X5015005Y-12431022D02*
X5005482Y-12469117D01*
X5005482Y-12469117D02*
X4995958Y-12488165D01*
X4995958Y-12488165D02*
X4986434Y-12497689D01*
X4986434Y-12497689D02*
X4967386Y-12507212D01*
X4967386Y-12507212D02*
X4948339Y-12507212D01*
X4948339Y-12507212D02*
X4929291Y-12497689D01*
X4929291Y-12497689D02*
X4919767Y-12488165D01*
X4919767Y-12488165D02*
X4910244Y-12469117D01*
X4910244Y-12469117D02*
X4900720Y-12431022D01*
X4900720Y-12431022D02*
X4900720Y-12383403D01*
X4900720Y-12383403D02*
X4910244Y-12345308D01*
X4910244Y-12345308D02*
X4919767Y-12326260D01*
X4919767Y-12326260D02*
X4929291Y-12316736D01*
X4929291Y-12316736D02*
X4948339Y-12307212D01*
X5100720Y-12507212D02*
X5100720Y-12373879D01*
X5100720Y-12392927D02*
X5110244Y-12383403D01*
X5110244Y-12383403D02*
X5129291Y-12373879D01*
X5129291Y-12373879D02*
X5157863Y-12373879D01*
X5157863Y-12373879D02*
X5176910Y-12383403D01*
X5176910Y-12383403D02*
X5186434Y-12402451D01*
X5186434Y-12402451D02*
X5186434Y-12507212D01*
X5186434Y-12402451D02*
X5195958Y-12383403D01*
X5195958Y-12383403D02*
X5215005Y-12373879D01*
X5215005Y-12373879D02*
X5243577Y-12373879D01*
X5243577Y-12373879D02*
X5262625Y-12383403D01*
X5262625Y-12383403D02*
X5272148Y-12402451D01*
X5272148Y-12402451D02*
X5272148Y-12507212D01*
X5367386Y-12507212D02*
X5367386Y-12373879D01*
X5367386Y-12392927D02*
X5376910Y-12383403D01*
X5376910Y-12383403D02*
X5395958Y-12373879D01*
X5395958Y-12373879D02*
X5424529Y-12373879D01*
X5424529Y-12373879D02*
X5443577Y-12383403D01*
X5443577Y-12383403D02*
X5453101Y-12402451D01*
X5453101Y-12402451D02*
X5453101Y-12507212D01*
X5453101Y-12402451D02*
X5462625Y-12383403D01*
X5462625Y-12383403D02*
X5481672Y-12373879D01*
X5481672Y-12373879D02*
X5510244Y-12373879D01*
X5510244Y-12373879D02*
X5529291Y-12383403D01*
X5529291Y-12383403D02*
X5538815Y-12402451D01*
X5538815Y-12402451D02*
X5538815Y-12507212D01*
X5929291Y-12297689D02*
X5757863Y-12554831D01*
X6186434Y-12307212D02*
X6205482Y-12307212D01*
X6205482Y-12307212D02*
X6224529Y-12316736D01*
X6224529Y-12316736D02*
X6234053Y-12326260D01*
X6234053Y-12326260D02*
X6243577Y-12345308D01*
X6243577Y-12345308D02*
X6253101Y-12383403D01*
X6253101Y-12383403D02*
X6253101Y-12431022D01*
X6253101Y-12431022D02*
X6243577Y-12469117D01*
X6243577Y-12469117D02*
X6234053Y-12488165D01*
X6234053Y-12488165D02*
X6224529Y-12497689D01*
X6224529Y-12497689D02*
X6205482Y-12507212D01*
X6205482Y-12507212D02*
X6186434Y-12507212D01*
X6186434Y-12507212D02*
X6167386Y-12497689D01*
X6167386Y-12497689D02*
X6157863Y-12488165D01*
X6157863Y-12488165D02*
X6148339Y-12469117D01*
X6148339Y-12469117D02*
X6138815Y-12431022D01*
X6138815Y-12431022D02*
X6138815Y-12383403D01*
X6138815Y-12383403D02*
X6148339Y-12345308D01*
X6148339Y-12345308D02*
X6157863Y-12326260D01*
X6157863Y-12326260D02*
X6167386Y-12316736D01*
X6167386Y-12316736D02*
X6186434Y-12307212D01*
X6338815Y-12488165D02*
X6348339Y-12497689D01*
X6348339Y-12497689D02*
X6338815Y-12507212D01*
X6338815Y-12507212D02*
X6329291Y-12497689D01*
X6329291Y-12497689D02*
X6338815Y-12488165D01*
X6338815Y-12488165D02*
X6338815Y-12507212D01*
X6472148Y-12307212D02*
X6491196Y-12307212D01*
X6491196Y-12307212D02*
X6510244Y-12316736D01*
X6510244Y-12316736D02*
X6519767Y-12326260D01*
X6519767Y-12326260D02*
X6529291Y-12345308D01*
X6529291Y-12345308D02*
X6538815Y-12383403D01*
X6538815Y-12383403D02*
X6538815Y-12431022D01*
X6538815Y-12431022D02*
X6529291Y-12469117D01*
X6529291Y-12469117D02*
X6519767Y-12488165D01*
X6519767Y-12488165D02*
X6510244Y-12497689D01*
X6510244Y-12497689D02*
X6491196Y-12507212D01*
X6491196Y-12507212D02*
X6472148Y-12507212D01*
X6472148Y-12507212D02*
X6453101Y-12497689D01*
X6453101Y-12497689D02*
X6443577Y-12488165D01*
X6443577Y-12488165D02*
X6434053Y-12469117D01*
X6434053Y-12469117D02*
X6424529Y-12431022D01*
X6424529Y-12431022D02*
X6424529Y-12383403D01*
X6424529Y-12383403D02*
X6434053Y-12345308D01*
X6434053Y-12345308D02*
X6443577Y-12326260D01*
X6443577Y-12326260D02*
X6453101Y-12316736D01*
X6453101Y-12316736D02*
X6472148Y-12307212D01*
X6729291Y-12507212D02*
X6615006Y-12507212D01*
X6672148Y-12507212D02*
X6672148Y-12307212D01*
X6672148Y-12307212D02*
X6653101Y-12335784D01*
X6653101Y-12335784D02*
X6634053Y-12354831D01*
X6634053Y-12354831D02*
X6615006Y-12364355D01*
X6919767Y-12507212D02*
X6805482Y-12507212D01*
X6862625Y-12507212D02*
X6862625Y-12307212D01*
X6862625Y-12307212D02*
X6843577Y-12335784D01*
X6843577Y-12335784D02*
X6824529Y-12354831D01*
X6824529Y-12354831D02*
X6805482Y-12364355D01*
X7034053Y-12392927D02*
X7015006Y-12383403D01*
X7015006Y-12383403D02*
X7005482Y-12373879D01*
X7005482Y-12373879D02*
X6995958Y-12354831D01*
X6995958Y-12354831D02*
X6995958Y-12345308D01*
X6995958Y-12345308D02*
X7005482Y-12326260D01*
X7005482Y-12326260D02*
X7015006Y-12316736D01*
X7015006Y-12316736D02*
X7034053Y-12307212D01*
X7034053Y-12307212D02*
X7072148Y-12307212D01*
X7072148Y-12307212D02*
X7091196Y-12316736D01*
X7091196Y-12316736D02*
X7100720Y-12326260D01*
X7100720Y-12326260D02*
X7110244Y-12345308D01*
X7110244Y-12345308D02*
X7110244Y-12354831D01*
X7110244Y-12354831D02*
X7100720Y-12373879D01*
X7100720Y-12373879D02*
X7091196Y-12383403D01*
X7091196Y-12383403D02*
X7072148Y-12392927D01*
X7072148Y-12392927D02*
X7034053Y-12392927D01*
X7034053Y-12392927D02*
X7015006Y-12402451D01*
X7015006Y-12402451D02*
X7005482Y-12411974D01*
X7005482Y-12411974D02*
X6995958Y-12431022D01*
X6995958Y-12431022D02*
X6995958Y-12469117D01*
X6995958Y-12469117D02*
X7005482Y-12488165D01*
X7005482Y-12488165D02*
X7015006Y-12497689D01*
X7015006Y-12497689D02*
X7034053Y-12507212D01*
X7034053Y-12507212D02*
X7072148Y-12507212D01*
X7072148Y-12507212D02*
X7091196Y-12497689D01*
X7091196Y-12497689D02*
X7100720Y-12488165D01*
X7100720Y-12488165D02*
X7110244Y-12469117D01*
X7110244Y-12469117D02*
X7110244Y-12431022D01*
X7110244Y-12431022D02*
X7100720Y-12411974D01*
X7100720Y-12411974D02*
X7091196Y-12402451D01*
X7091196Y-12402451D02*
X7072148Y-12392927D01*
X7186434Y-12307212D02*
X7186434Y-12345308D01*
X7262625Y-12307212D02*
X7262625Y-12345308D01*
X7557863Y-12583403D02*
X7548339Y-12573879D01*
X7548339Y-12573879D02*
X7529291Y-12545308D01*
X7529291Y-12545308D02*
X7519768Y-12526260D01*
X7519768Y-12526260D02*
X7510244Y-12497689D01*
X7510244Y-12497689D02*
X7500720Y-12450070D01*
X7500720Y-12450070D02*
X7500720Y-12411974D01*
X7500720Y-12411974D02*
X7510244Y-12364355D01*
X7510244Y-12364355D02*
X7519768Y-12335784D01*
X7519768Y-12335784D02*
X7529291Y-12316736D01*
X7529291Y-12316736D02*
X7548339Y-12288165D01*
X7548339Y-12288165D02*
X7557863Y-12278641D01*
X7615006Y-12307212D02*
X7748339Y-12307212D01*
X7748339Y-12307212D02*
X7662625Y-12507212D01*
X7976910Y-12507212D02*
X7976910Y-12307212D01*
X8062625Y-12507212D02*
X8062625Y-12402451D01*
X8062625Y-12402451D02*
X8053101Y-12383403D01*
X8053101Y-12383403D02*
X8034053Y-12373879D01*
X8034053Y-12373879D02*
X8005482Y-12373879D01*
X8005482Y-12373879D02*
X7986434Y-12383403D01*
X7986434Y-12383403D02*
X7976910Y-12392927D01*
X8186434Y-12507212D02*
X8167387Y-12497689D01*
X8167387Y-12497689D02*
X8157863Y-12488165D01*
X8157863Y-12488165D02*
X8148339Y-12469117D01*
X8148339Y-12469117D02*
X8148339Y-12411974D01*
X8148339Y-12411974D02*
X8157863Y-12392927D01*
X8157863Y-12392927D02*
X8167387Y-12383403D01*
X8167387Y-12383403D02*
X8186434Y-12373879D01*
X8186434Y-12373879D02*
X8215006Y-12373879D01*
X8215006Y-12373879D02*
X8234053Y-12383403D01*
X8234053Y-12383403D02*
X8243577Y-12392927D01*
X8243577Y-12392927D02*
X8253101Y-12411974D01*
X8253101Y-12411974D02*
X8253101Y-12469117D01*
X8253101Y-12469117D02*
X8243577Y-12488165D01*
X8243577Y-12488165D02*
X8234053Y-12497689D01*
X8234053Y-12497689D02*
X8215006Y-12507212D01*
X8215006Y-12507212D02*
X8186434Y-12507212D01*
X8367387Y-12507212D02*
X8348339Y-12497689D01*
X8348339Y-12497689D02*
X8338815Y-12478641D01*
X8338815Y-12478641D02*
X8338815Y-12307212D01*
X8519768Y-12497689D02*
X8500720Y-12507212D01*
X8500720Y-12507212D02*
X8462625Y-12507212D01*
X8462625Y-12507212D02*
X8443577Y-12497689D01*
X8443577Y-12497689D02*
X8434053Y-12478641D01*
X8434053Y-12478641D02*
X8434053Y-12402451D01*
X8434053Y-12402451D02*
X8443577Y-12383403D01*
X8443577Y-12383403D02*
X8462625Y-12373879D01*
X8462625Y-12373879D02*
X8500720Y-12373879D01*
X8500720Y-12373879D02*
X8519768Y-12383403D01*
X8519768Y-12383403D02*
X8529292Y-12402451D01*
X8529292Y-12402451D02*
X8529292Y-12421498D01*
X8529292Y-12421498D02*
X8434053Y-12440546D01*
X8605482Y-12497689D02*
X8624530Y-12507212D01*
X8624530Y-12507212D02*
X8662625Y-12507212D01*
X8662625Y-12507212D02*
X8681673Y-12497689D01*
X8681673Y-12497689D02*
X8691196Y-12478641D01*
X8691196Y-12478641D02*
X8691196Y-12469117D01*
X8691196Y-12469117D02*
X8681673Y-12450070D01*
X8681673Y-12450070D02*
X8662625Y-12440546D01*
X8662625Y-12440546D02*
X8634053Y-12440546D01*
X8634053Y-12440546D02*
X8615006Y-12431022D01*
X8615006Y-12431022D02*
X8605482Y-12411974D01*
X8605482Y-12411974D02*
X8605482Y-12402451D01*
X8605482Y-12402451D02*
X8615006Y-12383403D01*
X8615006Y-12383403D02*
X8634053Y-12373879D01*
X8634053Y-12373879D02*
X8662625Y-12373879D01*
X8662625Y-12373879D02*
X8681673Y-12383403D01*
X8757863Y-12583403D02*
X8767387Y-12573879D01*
X8767387Y-12573879D02*
X8786434Y-12545308D01*
X8786434Y-12545308D02*
X8795958Y-12526260D01*
X8795958Y-12526260D02*
X8805482Y-12497689D01*
X8805482Y-12497689D02*
X8815006Y-12450070D01*
X8815006Y-12450070D02*
X8815006Y-12411974D01*
X8815006Y-12411974D02*
X8805482Y-12364355D01*
X8805482Y-12364355D02*
X8795958Y-12335784D01*
X8795958Y-12335784D02*
X8786434Y-12316736D01*
X8786434Y-12316736D02*
X8767387Y-12288165D01*
X8767387Y-12288165D02*
X8757863Y-12278641D01*
D10*
X3957800Y-12654729D02*
X3957800Y-12704729D01*
X3932800Y-12679729D02*
X3982800Y-12679729D01*
D11*
X4281672Y-12571212D02*
X4300720Y-12571212D01*
X4300720Y-12571212D02*
X4319767Y-12580736D01*
X4319767Y-12580736D02*
X4329291Y-12590260D01*
X4329291Y-12590260D02*
X4338815Y-12609308D01*
X4338815Y-12609308D02*
X4348339Y-12647403D01*
X4348339Y-12647403D02*
X4348339Y-12695022D01*
X4348339Y-12695022D02*
X4338815Y-12733117D01*
X4338815Y-12733117D02*
X4329291Y-12752165D01*
X4329291Y-12752165D02*
X4319767Y-12761689D01*
X4319767Y-12761689D02*
X4300720Y-12771212D01*
X4300720Y-12771212D02*
X4281672Y-12771212D01*
X4281672Y-12771212D02*
X4262624Y-12761689D01*
X4262624Y-12761689D02*
X4253101Y-12752165D01*
X4253101Y-12752165D02*
X4243577Y-12733117D01*
X4243577Y-12733117D02*
X4234053Y-12695022D01*
X4234053Y-12695022D02*
X4234053Y-12647403D01*
X4234053Y-12647403D02*
X4243577Y-12609308D01*
X4243577Y-12609308D02*
X4253101Y-12590260D01*
X4253101Y-12590260D02*
X4262624Y-12580736D01*
X4262624Y-12580736D02*
X4281672Y-12571212D01*
X4434053Y-12752165D02*
X4443577Y-12761689D01*
X4443577Y-12761689D02*
X4434053Y-12771212D01*
X4434053Y-12771212D02*
X4424529Y-12761689D01*
X4424529Y-12761689D02*
X4434053Y-12752165D01*
X4434053Y-12752165D02*
X4434053Y-12771212D01*
X4624529Y-12571212D02*
X4529291Y-12571212D01*
X4529291Y-12571212D02*
X4519767Y-12666451D01*
X4519767Y-12666451D02*
X4529291Y-12656927D01*
X4529291Y-12656927D02*
X4548339Y-12647403D01*
X4548339Y-12647403D02*
X4595958Y-12647403D01*
X4595958Y-12647403D02*
X4615005Y-12656927D01*
X4615005Y-12656927D02*
X4624529Y-12666451D01*
X4624529Y-12666451D02*
X4634053Y-12685498D01*
X4634053Y-12685498D02*
X4634053Y-12733117D01*
X4634053Y-12733117D02*
X4624529Y-12752165D01*
X4624529Y-12752165D02*
X4615005Y-12761689D01*
X4615005Y-12761689D02*
X4595958Y-12771212D01*
X4595958Y-12771212D02*
X4548339Y-12771212D01*
X4548339Y-12771212D02*
X4529291Y-12761689D01*
X4529291Y-12761689D02*
X4519767Y-12752165D01*
X4757863Y-12571212D02*
X4776910Y-12571212D01*
X4776910Y-12571212D02*
X4795958Y-12580736D01*
X4795958Y-12580736D02*
X4805482Y-12590260D01*
X4805482Y-12590260D02*
X4815005Y-12609308D01*
X4815005Y-12609308D02*
X4824529Y-12647403D01*
X4824529Y-12647403D02*
X4824529Y-12695022D01*
X4824529Y-12695022D02*
X4815005Y-12733117D01*
X4815005Y-12733117D02*
X4805482Y-12752165D01*
X4805482Y-12752165D02*
X4795958Y-12761689D01*
X4795958Y-12761689D02*
X4776910Y-12771212D01*
X4776910Y-12771212D02*
X4757863Y-12771212D01*
X4757863Y-12771212D02*
X4738815Y-12761689D01*
X4738815Y-12761689D02*
X4729291Y-12752165D01*
X4729291Y-12752165D02*
X4719767Y-12733117D01*
X4719767Y-12733117D02*
X4710244Y-12695022D01*
X4710244Y-12695022D02*
X4710244Y-12647403D01*
X4710244Y-12647403D02*
X4719767Y-12609308D01*
X4719767Y-12609308D02*
X4729291Y-12590260D01*
X4729291Y-12590260D02*
X4738815Y-12580736D01*
X4738815Y-12580736D02*
X4757863Y-12571212D01*
X4948339Y-12571212D02*
X4967386Y-12571212D01*
X4967386Y-12571212D02*
X4986434Y-12580736D01*
X4986434Y-12580736D02*
X4995958Y-12590260D01*
X4995958Y-12590260D02*
X5005482Y-12609308D01*
X5005482Y-12609308D02*
X5015005Y-12647403D01*
X5015005Y-12647403D02*
X5015005Y-12695022D01*
X5015005Y-12695022D02*
X5005482Y-12733117D01*
X5005482Y-12733117D02*
X4995958Y-12752165D01*
X4995958Y-12752165D02*
X4986434Y-12761689D01*
X4986434Y-12761689D02*
X4967386Y-12771212D01*
X4967386Y-12771212D02*
X4948339Y-12771212D01*
X4948339Y-12771212D02*
X4929291Y-12761689D01*
X4929291Y-12761689D02*
X4919767Y-12752165D01*
X4919767Y-12752165D02*
X4910244Y-12733117D01*
X4910244Y-12733117D02*
X4900720Y-12695022D01*
X4900720Y-12695022D02*
X4900720Y-12647403D01*
X4900720Y-12647403D02*
X4910244Y-12609308D01*
X4910244Y-12609308D02*
X4919767Y-12590260D01*
X4919767Y-12590260D02*
X4929291Y-12580736D01*
X4929291Y-12580736D02*
X4948339Y-12571212D01*
X5100720Y-12771212D02*
X5100720Y-12637879D01*
X5100720Y-12656927D02*
X5110244Y-12647403D01*
X5110244Y-12647403D02*
X5129291Y-12637879D01*
X5129291Y-12637879D02*
X5157863Y-12637879D01*
X5157863Y-12637879D02*
X5176910Y-12647403D01*
X5176910Y-12647403D02*
X5186434Y-12666451D01*
X5186434Y-12666451D02*
X5186434Y-12771212D01*
X5186434Y-12666451D02*
X5195958Y-12647403D01*
X5195958Y-12647403D02*
X5215005Y-12637879D01*
X5215005Y-12637879D02*
X5243577Y-12637879D01*
X5243577Y-12637879D02*
X5262625Y-12647403D01*
X5262625Y-12647403D02*
X5272148Y-12666451D01*
X5272148Y-12666451D02*
X5272148Y-12771212D01*
X5367386Y-12771212D02*
X5367386Y-12637879D01*
X5367386Y-12656927D02*
X5376910Y-12647403D01*
X5376910Y-12647403D02*
X5395958Y-12637879D01*
X5395958Y-12637879D02*
X5424529Y-12637879D01*
X5424529Y-12637879D02*
X5443577Y-12647403D01*
X5443577Y-12647403D02*
X5453101Y-12666451D01*
X5453101Y-12666451D02*
X5453101Y-12771212D01*
X5453101Y-12666451D02*
X5462625Y-12647403D01*
X5462625Y-12647403D02*
X5481672Y-12637879D01*
X5481672Y-12637879D02*
X5510244Y-12637879D01*
X5510244Y-12637879D02*
X5529291Y-12647403D01*
X5529291Y-12647403D02*
X5538815Y-12666451D01*
X5538815Y-12666451D02*
X5538815Y-12771212D01*
X5929291Y-12561689D02*
X5757863Y-12818831D01*
X6186434Y-12571212D02*
X6205482Y-12571212D01*
X6205482Y-12571212D02*
X6224529Y-12580736D01*
X6224529Y-12580736D02*
X6234053Y-12590260D01*
X6234053Y-12590260D02*
X6243577Y-12609308D01*
X6243577Y-12609308D02*
X6253101Y-12647403D01*
X6253101Y-12647403D02*
X6253101Y-12695022D01*
X6253101Y-12695022D02*
X6243577Y-12733117D01*
X6243577Y-12733117D02*
X6234053Y-12752165D01*
X6234053Y-12752165D02*
X6224529Y-12761689D01*
X6224529Y-12761689D02*
X6205482Y-12771212D01*
X6205482Y-12771212D02*
X6186434Y-12771212D01*
X6186434Y-12771212D02*
X6167386Y-12761689D01*
X6167386Y-12761689D02*
X6157863Y-12752165D01*
X6157863Y-12752165D02*
X6148339Y-12733117D01*
X6148339Y-12733117D02*
X6138815Y-12695022D01*
X6138815Y-12695022D02*
X6138815Y-12647403D01*
X6138815Y-12647403D02*
X6148339Y-12609308D01*
X6148339Y-12609308D02*
X6157863Y-12590260D01*
X6157863Y-12590260D02*
X6167386Y-12580736D01*
X6167386Y-12580736D02*
X6186434Y-12571212D01*
X6338815Y-12752165D02*
X6348339Y-12761689D01*
X6348339Y-12761689D02*
X6338815Y-12771212D01*
X6338815Y-12771212D02*
X6329291Y-12761689D01*
X6329291Y-12761689D02*
X6338815Y-12752165D01*
X6338815Y-12752165D02*
X6338815Y-12771212D01*
X6472148Y-12571212D02*
X6491196Y-12571212D01*
X6491196Y-12571212D02*
X6510244Y-12580736D01*
X6510244Y-12580736D02*
X6519767Y-12590260D01*
X6519767Y-12590260D02*
X6529291Y-12609308D01*
X6529291Y-12609308D02*
X6538815Y-12647403D01*
X6538815Y-12647403D02*
X6538815Y-12695022D01*
X6538815Y-12695022D02*
X6529291Y-12733117D01*
X6529291Y-12733117D02*
X6519767Y-12752165D01*
X6519767Y-12752165D02*
X6510244Y-12761689D01*
X6510244Y-12761689D02*
X6491196Y-12771212D01*
X6491196Y-12771212D02*
X6472148Y-12771212D01*
X6472148Y-12771212D02*
X6453101Y-12761689D01*
X6453101Y-12761689D02*
X6443577Y-12752165D01*
X6443577Y-12752165D02*
X6434053Y-12733117D01*
X6434053Y-12733117D02*
X6424529Y-12695022D01*
X6424529Y-12695022D02*
X6424529Y-12647403D01*
X6424529Y-12647403D02*
X6434053Y-12609308D01*
X6434053Y-12609308D02*
X6443577Y-12590260D01*
X6443577Y-12590260D02*
X6453101Y-12580736D01*
X6453101Y-12580736D02*
X6472148Y-12571212D01*
X6729291Y-12771212D02*
X6615006Y-12771212D01*
X6672148Y-12771212D02*
X6672148Y-12571212D01*
X6672148Y-12571212D02*
X6653101Y-12599784D01*
X6653101Y-12599784D02*
X6634053Y-12618831D01*
X6634053Y-12618831D02*
X6615006Y-12628355D01*
X6824529Y-12771212D02*
X6862625Y-12771212D01*
X6862625Y-12771212D02*
X6881672Y-12761689D01*
X6881672Y-12761689D02*
X6891196Y-12752165D01*
X6891196Y-12752165D02*
X6910244Y-12723593D01*
X6910244Y-12723593D02*
X6919767Y-12685498D01*
X6919767Y-12685498D02*
X6919767Y-12609308D01*
X6919767Y-12609308D02*
X6910244Y-12590260D01*
X6910244Y-12590260D02*
X6900720Y-12580736D01*
X6900720Y-12580736D02*
X6881672Y-12571212D01*
X6881672Y-12571212D02*
X6843577Y-12571212D01*
X6843577Y-12571212D02*
X6824529Y-12580736D01*
X6824529Y-12580736D02*
X6815006Y-12590260D01*
X6815006Y-12590260D02*
X6805482Y-12609308D01*
X6805482Y-12609308D02*
X6805482Y-12656927D01*
X6805482Y-12656927D02*
X6815006Y-12675974D01*
X6815006Y-12675974D02*
X6824529Y-12685498D01*
X6824529Y-12685498D02*
X6843577Y-12695022D01*
X6843577Y-12695022D02*
X6881672Y-12695022D01*
X6881672Y-12695022D02*
X6900720Y-12685498D01*
X6900720Y-12685498D02*
X6910244Y-12675974D01*
X6910244Y-12675974D02*
X6919767Y-12656927D01*
X6986434Y-12571212D02*
X7119767Y-12571212D01*
X7119767Y-12571212D02*
X7034053Y-12771212D01*
X7186434Y-12571212D02*
X7186434Y-12609308D01*
X7262625Y-12571212D02*
X7262625Y-12609308D01*
X7557863Y-12847403D02*
X7548339Y-12837879D01*
X7548339Y-12837879D02*
X7529291Y-12809308D01*
X7529291Y-12809308D02*
X7519768Y-12790260D01*
X7519768Y-12790260D02*
X7510244Y-12761689D01*
X7510244Y-12761689D02*
X7500720Y-12714070D01*
X7500720Y-12714070D02*
X7500720Y-12675974D01*
X7500720Y-12675974D02*
X7510244Y-12628355D01*
X7510244Y-12628355D02*
X7519768Y-12599784D01*
X7519768Y-12599784D02*
X7529291Y-12580736D01*
X7529291Y-12580736D02*
X7548339Y-12552165D01*
X7548339Y-12552165D02*
X7557863Y-12542641D01*
X7672148Y-12571212D02*
X7691196Y-12571212D01*
X7691196Y-12571212D02*
X7710244Y-12580736D01*
X7710244Y-12580736D02*
X7719768Y-12590260D01*
X7719768Y-12590260D02*
X7729291Y-12609308D01*
X7729291Y-12609308D02*
X7738815Y-12647403D01*
X7738815Y-12647403D02*
X7738815Y-12695022D01*
X7738815Y-12695022D02*
X7729291Y-12733117D01*
X7729291Y-12733117D02*
X7719768Y-12752165D01*
X7719768Y-12752165D02*
X7710244Y-12761689D01*
X7710244Y-12761689D02*
X7691196Y-12771212D01*
X7691196Y-12771212D02*
X7672148Y-12771212D01*
X7672148Y-12771212D02*
X7653101Y-12761689D01*
X7653101Y-12761689D02*
X7643577Y-12752165D01*
X7643577Y-12752165D02*
X7634053Y-12733117D01*
X7634053Y-12733117D02*
X7624529Y-12695022D01*
X7624529Y-12695022D02*
X7624529Y-12647403D01*
X7624529Y-12647403D02*
X7634053Y-12609308D01*
X7634053Y-12609308D02*
X7643577Y-12590260D01*
X7643577Y-12590260D02*
X7653101Y-12580736D01*
X7653101Y-12580736D02*
X7672148Y-12571212D01*
X7976910Y-12771212D02*
X7976910Y-12571212D01*
X8062625Y-12771212D02*
X8062625Y-12666451D01*
X8062625Y-12666451D02*
X8053101Y-12647403D01*
X8053101Y-12647403D02*
X8034053Y-12637879D01*
X8034053Y-12637879D02*
X8005482Y-12637879D01*
X8005482Y-12637879D02*
X7986434Y-12647403D01*
X7986434Y-12647403D02*
X7976910Y-12656927D01*
X8186434Y-12771212D02*
X8167387Y-12761689D01*
X8167387Y-12761689D02*
X8157863Y-12752165D01*
X8157863Y-12752165D02*
X8148339Y-12733117D01*
X8148339Y-12733117D02*
X8148339Y-12675974D01*
X8148339Y-12675974D02*
X8157863Y-12656927D01*
X8157863Y-12656927D02*
X8167387Y-12647403D01*
X8167387Y-12647403D02*
X8186434Y-12637879D01*
X8186434Y-12637879D02*
X8215006Y-12637879D01*
X8215006Y-12637879D02*
X8234053Y-12647403D01*
X8234053Y-12647403D02*
X8243577Y-12656927D01*
X8243577Y-12656927D02*
X8253101Y-12675974D01*
X8253101Y-12675974D02*
X8253101Y-12733117D01*
X8253101Y-12733117D02*
X8243577Y-12752165D01*
X8243577Y-12752165D02*
X8234053Y-12761689D01*
X8234053Y-12761689D02*
X8215006Y-12771212D01*
X8215006Y-12771212D02*
X8186434Y-12771212D01*
X8367387Y-12771212D02*
X8348339Y-12761689D01*
X8348339Y-12761689D02*
X8338815Y-12742641D01*
X8338815Y-12742641D02*
X8338815Y-12571212D01*
X8519768Y-12761689D02*
X8500720Y-12771212D01*
X8500720Y-12771212D02*
X8462625Y-12771212D01*
X8462625Y-12771212D02*
X8443577Y-12761689D01*
X8443577Y-12761689D02*
X8434053Y-12742641D01*
X8434053Y-12742641D02*
X8434053Y-12666451D01*
X8434053Y-12666451D02*
X8443577Y-12647403D01*
X8443577Y-12647403D02*
X8462625Y-12637879D01*
X8462625Y-12637879D02*
X8500720Y-12637879D01*
X8500720Y-12637879D02*
X8519768Y-12647403D01*
X8519768Y-12647403D02*
X8529292Y-12666451D01*
X8529292Y-12666451D02*
X8529292Y-12685498D01*
X8529292Y-12685498D02*
X8434053Y-12704546D01*
X8605482Y-12761689D02*
X8624530Y-12771212D01*
X8624530Y-12771212D02*
X8662625Y-12771212D01*
X8662625Y-12771212D02*
X8681673Y-12761689D01*
X8681673Y-12761689D02*
X8691196Y-12742641D01*
X8691196Y-12742641D02*
X8691196Y-12733117D01*
X8691196Y-12733117D02*
X8681673Y-12714070D01*
X8681673Y-12714070D02*
X8662625Y-12704546D01*
X8662625Y-12704546D02*
X8634053Y-12704546D01*
X8634053Y-12704546D02*
X8615006Y-12695022D01*
X8615006Y-12695022D02*
X8605482Y-12675974D01*
X8605482Y-12675974D02*
X8605482Y-12666451D01*
X8605482Y-12666451D02*
X8615006Y-12647403D01*
X8615006Y-12647403D02*
X8634053Y-12637879D01*
X8634053Y-12637879D02*
X8662625Y-12637879D01*
X8662625Y-12637879D02*
X8681673Y-12647403D01*
X8929292Y-12695022D02*
X9081673Y-12695022D01*
X9005482Y-12771212D02*
X9005482Y-12618831D01*
X9415006Y-12637879D02*
X9415006Y-12771212D01*
X9367387Y-12561689D02*
X9319768Y-12704546D01*
X9319768Y-12704546D02*
X9443577Y-12704546D01*
X9662625Y-12761689D02*
X9681673Y-12771212D01*
X9681673Y-12771212D02*
X9719768Y-12771212D01*
X9719768Y-12771212D02*
X9738816Y-12761689D01*
X9738816Y-12761689D02*
X9748339Y-12742641D01*
X9748339Y-12742641D02*
X9748339Y-12733117D01*
X9748339Y-12733117D02*
X9738816Y-12714070D01*
X9738816Y-12714070D02*
X9719768Y-12704546D01*
X9719768Y-12704546D02*
X9691196Y-12704546D01*
X9691196Y-12704546D02*
X9672149Y-12695022D01*
X9672149Y-12695022D02*
X9662625Y-12675974D01*
X9662625Y-12675974D02*
X9662625Y-12666451D01*
X9662625Y-12666451D02*
X9672149Y-12647403D01*
X9672149Y-12647403D02*
X9691196Y-12637879D01*
X9691196Y-12637879D02*
X9719768Y-12637879D01*
X9719768Y-12637879D02*
X9738816Y-12647403D01*
X9862625Y-12771212D02*
X9843577Y-12761689D01*
X9843577Y-12761689D02*
X9834054Y-12742641D01*
X9834054Y-12742641D02*
X9834054Y-12571212D01*
X9967387Y-12771212D02*
X9948339Y-12761689D01*
X9948339Y-12761689D02*
X9938816Y-12752165D01*
X9938816Y-12752165D02*
X9929292Y-12733117D01*
X9929292Y-12733117D02*
X9929292Y-12675974D01*
X9929292Y-12675974D02*
X9938816Y-12656927D01*
X9938816Y-12656927D02*
X9948339Y-12647403D01*
X9948339Y-12647403D02*
X9967387Y-12637879D01*
X9967387Y-12637879D02*
X9995958Y-12637879D01*
X9995958Y-12637879D02*
X10015006Y-12647403D01*
X10015006Y-12647403D02*
X10024530Y-12656927D01*
X10024530Y-12656927D02*
X10034054Y-12675974D01*
X10034054Y-12675974D02*
X10034054Y-12733117D01*
X10034054Y-12733117D02*
X10024530Y-12752165D01*
X10024530Y-12752165D02*
X10015006Y-12761689D01*
X10015006Y-12761689D02*
X9995958Y-12771212D01*
X9995958Y-12771212D02*
X9967387Y-12771212D01*
X10091197Y-12637879D02*
X10167387Y-12637879D01*
X10119768Y-12571212D02*
X10119768Y-12742641D01*
X10119768Y-12742641D02*
X10129292Y-12761689D01*
X10129292Y-12761689D02*
X10148339Y-12771212D01*
X10148339Y-12771212D02*
X10167387Y-12771212D01*
X10224530Y-12761689D02*
X10243577Y-12771212D01*
X10243577Y-12771212D02*
X10281673Y-12771212D01*
X10281673Y-12771212D02*
X10300720Y-12761689D01*
X10300720Y-12761689D02*
X10310244Y-12742641D01*
X10310244Y-12742641D02*
X10310244Y-12733117D01*
X10310244Y-12733117D02*
X10300720Y-12714070D01*
X10300720Y-12714070D02*
X10281673Y-12704546D01*
X10281673Y-12704546D02*
X10253101Y-12704546D01*
X10253101Y-12704546D02*
X10234054Y-12695022D01*
X10234054Y-12695022D02*
X10224530Y-12675974D01*
X10224530Y-12675974D02*
X10224530Y-12666451D01*
X10224530Y-12666451D02*
X10234054Y-12647403D01*
X10234054Y-12647403D02*
X10253101Y-12637879D01*
X10253101Y-12637879D02*
X10281673Y-12637879D01*
X10281673Y-12637879D02*
X10300720Y-12647403D01*
X10376911Y-12847403D02*
X10386435Y-12837879D01*
X10386435Y-12837879D02*
X10405482Y-12809308D01*
X10405482Y-12809308D02*
X10415006Y-12790260D01*
X10415006Y-12790260D02*
X10424530Y-12761689D01*
X10424530Y-12761689D02*
X10434054Y-12714070D01*
X10434054Y-12714070D02*
X10434054Y-12675974D01*
X10434054Y-12675974D02*
X10424530Y-12628355D01*
X10424530Y-12628355D02*
X10415006Y-12599784D01*
X10415006Y-12599784D02*
X10405482Y-12580736D01*
X10405482Y-12580736D02*
X10386435Y-12552165D01*
X10386435Y-12552165D02*
X10376911Y-12542641D01*
D10*
X3968156Y-12979084D02*
X3968156Y-12908373D01*
X3897444Y-12908373D01*
X3897444Y-12979084D01*
X3968156Y-12979084D01*
D11*
X4348339Y-13035212D02*
X4234053Y-13035212D01*
X4291196Y-13035212D02*
X4291196Y-12835212D01*
X4291196Y-12835212D02*
X4272148Y-12863784D01*
X4272148Y-12863784D02*
X4253101Y-12882831D01*
X4253101Y-12882831D02*
X4234053Y-12892355D01*
X4434053Y-13016165D02*
X4443577Y-13025689D01*
X4443577Y-13025689D02*
X4434053Y-13035212D01*
X4434053Y-13035212D02*
X4424529Y-13025689D01*
X4424529Y-13025689D02*
X4434053Y-13016165D01*
X4434053Y-13016165D02*
X4434053Y-13035212D01*
X4567386Y-12835212D02*
X4586434Y-12835212D01*
X4586434Y-12835212D02*
X4605482Y-12844736D01*
X4605482Y-12844736D02*
X4615005Y-12854260D01*
X4615005Y-12854260D02*
X4624529Y-12873308D01*
X4624529Y-12873308D02*
X4634053Y-12911403D01*
X4634053Y-12911403D02*
X4634053Y-12959022D01*
X4634053Y-12959022D02*
X4624529Y-12997117D01*
X4624529Y-12997117D02*
X4615005Y-13016165D01*
X4615005Y-13016165D02*
X4605482Y-13025689D01*
X4605482Y-13025689D02*
X4586434Y-13035212D01*
X4586434Y-13035212D02*
X4567386Y-13035212D01*
X4567386Y-13035212D02*
X4548339Y-13025689D01*
X4548339Y-13025689D02*
X4538815Y-13016165D01*
X4538815Y-13016165D02*
X4529291Y-12997117D01*
X4529291Y-12997117D02*
X4519767Y-12959022D01*
X4519767Y-12959022D02*
X4519767Y-12911403D01*
X4519767Y-12911403D02*
X4529291Y-12873308D01*
X4529291Y-12873308D02*
X4538815Y-12854260D01*
X4538815Y-12854260D02*
X4548339Y-12844736D01*
X4548339Y-12844736D02*
X4567386Y-12835212D01*
X4757863Y-12835212D02*
X4776910Y-12835212D01*
X4776910Y-12835212D02*
X4795958Y-12844736D01*
X4795958Y-12844736D02*
X4805482Y-12854260D01*
X4805482Y-12854260D02*
X4815005Y-12873308D01*
X4815005Y-12873308D02*
X4824529Y-12911403D01*
X4824529Y-12911403D02*
X4824529Y-12959022D01*
X4824529Y-12959022D02*
X4815005Y-12997117D01*
X4815005Y-12997117D02*
X4805482Y-13016165D01*
X4805482Y-13016165D02*
X4795958Y-13025689D01*
X4795958Y-13025689D02*
X4776910Y-13035212D01*
X4776910Y-13035212D02*
X4757863Y-13035212D01*
X4757863Y-13035212D02*
X4738815Y-13025689D01*
X4738815Y-13025689D02*
X4729291Y-13016165D01*
X4729291Y-13016165D02*
X4719767Y-12997117D01*
X4719767Y-12997117D02*
X4710244Y-12959022D01*
X4710244Y-12959022D02*
X4710244Y-12911403D01*
X4710244Y-12911403D02*
X4719767Y-12873308D01*
X4719767Y-12873308D02*
X4729291Y-12854260D01*
X4729291Y-12854260D02*
X4738815Y-12844736D01*
X4738815Y-12844736D02*
X4757863Y-12835212D01*
X4948339Y-12835212D02*
X4967386Y-12835212D01*
X4967386Y-12835212D02*
X4986434Y-12844736D01*
X4986434Y-12844736D02*
X4995958Y-12854260D01*
X4995958Y-12854260D02*
X5005482Y-12873308D01*
X5005482Y-12873308D02*
X5015005Y-12911403D01*
X5015005Y-12911403D02*
X5015005Y-12959022D01*
X5015005Y-12959022D02*
X5005482Y-12997117D01*
X5005482Y-12997117D02*
X4995958Y-13016165D01*
X4995958Y-13016165D02*
X4986434Y-13025689D01*
X4986434Y-13025689D02*
X4967386Y-13035212D01*
X4967386Y-13035212D02*
X4948339Y-13035212D01*
X4948339Y-13035212D02*
X4929291Y-13025689D01*
X4929291Y-13025689D02*
X4919767Y-13016165D01*
X4919767Y-13016165D02*
X4910244Y-12997117D01*
X4910244Y-12997117D02*
X4900720Y-12959022D01*
X4900720Y-12959022D02*
X4900720Y-12911403D01*
X4900720Y-12911403D02*
X4910244Y-12873308D01*
X4910244Y-12873308D02*
X4919767Y-12854260D01*
X4919767Y-12854260D02*
X4929291Y-12844736D01*
X4929291Y-12844736D02*
X4948339Y-12835212D01*
X5100720Y-13035212D02*
X5100720Y-12901879D01*
X5100720Y-12920927D02*
X5110244Y-12911403D01*
X5110244Y-12911403D02*
X5129291Y-12901879D01*
X5129291Y-12901879D02*
X5157863Y-12901879D01*
X5157863Y-12901879D02*
X5176910Y-12911403D01*
X5176910Y-12911403D02*
X5186434Y-12930451D01*
X5186434Y-12930451D02*
X5186434Y-13035212D01*
X5186434Y-12930451D02*
X5195958Y-12911403D01*
X5195958Y-12911403D02*
X5215005Y-12901879D01*
X5215005Y-12901879D02*
X5243577Y-12901879D01*
X5243577Y-12901879D02*
X5262625Y-12911403D01*
X5262625Y-12911403D02*
X5272148Y-12930451D01*
X5272148Y-12930451D02*
X5272148Y-13035212D01*
X5367386Y-13035212D02*
X5367386Y-12901879D01*
X5367386Y-12920927D02*
X5376910Y-12911403D01*
X5376910Y-12911403D02*
X5395958Y-12901879D01*
X5395958Y-12901879D02*
X5424529Y-12901879D01*
X5424529Y-12901879D02*
X5443577Y-12911403D01*
X5443577Y-12911403D02*
X5453101Y-12930451D01*
X5453101Y-12930451D02*
X5453101Y-13035212D01*
X5453101Y-12930451D02*
X5462625Y-12911403D01*
X5462625Y-12911403D02*
X5481672Y-12901879D01*
X5481672Y-12901879D02*
X5510244Y-12901879D01*
X5510244Y-12901879D02*
X5529291Y-12911403D01*
X5529291Y-12911403D02*
X5538815Y-12930451D01*
X5538815Y-12930451D02*
X5538815Y-13035212D01*
X5929291Y-12825689D02*
X5757863Y-13082831D01*
X6186434Y-12835212D02*
X6205482Y-12835212D01*
X6205482Y-12835212D02*
X6224529Y-12844736D01*
X6224529Y-12844736D02*
X6234053Y-12854260D01*
X6234053Y-12854260D02*
X6243577Y-12873308D01*
X6243577Y-12873308D02*
X6253101Y-12911403D01*
X6253101Y-12911403D02*
X6253101Y-12959022D01*
X6253101Y-12959022D02*
X6243577Y-12997117D01*
X6243577Y-12997117D02*
X6234053Y-13016165D01*
X6234053Y-13016165D02*
X6224529Y-13025689D01*
X6224529Y-13025689D02*
X6205482Y-13035212D01*
X6205482Y-13035212D02*
X6186434Y-13035212D01*
X6186434Y-13035212D02*
X6167386Y-13025689D01*
X6167386Y-13025689D02*
X6157863Y-13016165D01*
X6157863Y-13016165D02*
X6148339Y-12997117D01*
X6148339Y-12997117D02*
X6138815Y-12959022D01*
X6138815Y-12959022D02*
X6138815Y-12911403D01*
X6138815Y-12911403D02*
X6148339Y-12873308D01*
X6148339Y-12873308D02*
X6157863Y-12854260D01*
X6157863Y-12854260D02*
X6167386Y-12844736D01*
X6167386Y-12844736D02*
X6186434Y-12835212D01*
X6338815Y-13016165D02*
X6348339Y-13025689D01*
X6348339Y-13025689D02*
X6338815Y-13035212D01*
X6338815Y-13035212D02*
X6329291Y-13025689D01*
X6329291Y-13025689D02*
X6338815Y-13016165D01*
X6338815Y-13016165D02*
X6338815Y-13035212D01*
X6472148Y-12835212D02*
X6491196Y-12835212D01*
X6491196Y-12835212D02*
X6510244Y-12844736D01*
X6510244Y-12844736D02*
X6519767Y-12854260D01*
X6519767Y-12854260D02*
X6529291Y-12873308D01*
X6529291Y-12873308D02*
X6538815Y-12911403D01*
X6538815Y-12911403D02*
X6538815Y-12959022D01*
X6538815Y-12959022D02*
X6529291Y-12997117D01*
X6529291Y-12997117D02*
X6519767Y-13016165D01*
X6519767Y-13016165D02*
X6510244Y-13025689D01*
X6510244Y-13025689D02*
X6491196Y-13035212D01*
X6491196Y-13035212D02*
X6472148Y-13035212D01*
X6472148Y-13035212D02*
X6453101Y-13025689D01*
X6453101Y-13025689D02*
X6443577Y-13016165D01*
X6443577Y-13016165D02*
X6434053Y-12997117D01*
X6434053Y-12997117D02*
X6424529Y-12959022D01*
X6424529Y-12959022D02*
X6424529Y-12911403D01*
X6424529Y-12911403D02*
X6434053Y-12873308D01*
X6434053Y-12873308D02*
X6443577Y-12854260D01*
X6443577Y-12854260D02*
X6453101Y-12844736D01*
X6453101Y-12844736D02*
X6472148Y-12835212D01*
X6605482Y-12835212D02*
X6729291Y-12835212D01*
X6729291Y-12835212D02*
X6662625Y-12911403D01*
X6662625Y-12911403D02*
X6691196Y-12911403D01*
X6691196Y-12911403D02*
X6710244Y-12920927D01*
X6710244Y-12920927D02*
X6719767Y-12930451D01*
X6719767Y-12930451D02*
X6729291Y-12949498D01*
X6729291Y-12949498D02*
X6729291Y-12997117D01*
X6729291Y-12997117D02*
X6719767Y-13016165D01*
X6719767Y-13016165D02*
X6710244Y-13025689D01*
X6710244Y-13025689D02*
X6691196Y-13035212D01*
X6691196Y-13035212D02*
X6634053Y-13035212D01*
X6634053Y-13035212D02*
X6615006Y-13025689D01*
X6615006Y-13025689D02*
X6605482Y-13016165D01*
X6824529Y-13035212D02*
X6862625Y-13035212D01*
X6862625Y-13035212D02*
X6881672Y-13025689D01*
X6881672Y-13025689D02*
X6891196Y-13016165D01*
X6891196Y-13016165D02*
X6910244Y-12987593D01*
X6910244Y-12987593D02*
X6919767Y-12949498D01*
X6919767Y-12949498D02*
X6919767Y-12873308D01*
X6919767Y-12873308D02*
X6910244Y-12854260D01*
X6910244Y-12854260D02*
X6900720Y-12844736D01*
X6900720Y-12844736D02*
X6881672Y-12835212D01*
X6881672Y-12835212D02*
X6843577Y-12835212D01*
X6843577Y-12835212D02*
X6824529Y-12844736D01*
X6824529Y-12844736D02*
X6815006Y-12854260D01*
X6815006Y-12854260D02*
X6805482Y-12873308D01*
X6805482Y-12873308D02*
X6805482Y-12920927D01*
X6805482Y-12920927D02*
X6815006Y-12939974D01*
X6815006Y-12939974D02*
X6824529Y-12949498D01*
X6824529Y-12949498D02*
X6843577Y-12959022D01*
X6843577Y-12959022D02*
X6881672Y-12959022D01*
X6881672Y-12959022D02*
X6900720Y-12949498D01*
X6900720Y-12949498D02*
X6910244Y-12939974D01*
X6910244Y-12939974D02*
X6919767Y-12920927D01*
X7091196Y-12901879D02*
X7091196Y-13035212D01*
X7043577Y-12825689D02*
X6995958Y-12968546D01*
X6995958Y-12968546D02*
X7119767Y-12968546D01*
X7186434Y-12835212D02*
X7186434Y-12873308D01*
X7262625Y-12835212D02*
X7262625Y-12873308D01*
X7557863Y-13111403D02*
X7548339Y-13101879D01*
X7548339Y-13101879D02*
X7529291Y-13073308D01*
X7529291Y-13073308D02*
X7519768Y-13054260D01*
X7519768Y-13054260D02*
X7510244Y-13025689D01*
X7510244Y-13025689D02*
X7500720Y-12978070D01*
X7500720Y-12978070D02*
X7500720Y-12939974D01*
X7500720Y-12939974D02*
X7510244Y-12892355D01*
X7510244Y-12892355D02*
X7519768Y-12863784D01*
X7519768Y-12863784D02*
X7529291Y-12844736D01*
X7529291Y-12844736D02*
X7548339Y-12816165D01*
X7548339Y-12816165D02*
X7557863Y-12806641D01*
X7738815Y-13035212D02*
X7624529Y-13035212D01*
X7681672Y-13035212D02*
X7681672Y-12835212D01*
X7681672Y-12835212D02*
X7662625Y-12863784D01*
X7662625Y-12863784D02*
X7643577Y-12882831D01*
X7643577Y-12882831D02*
X7624529Y-12892355D01*
X7910244Y-12835212D02*
X7872148Y-12835212D01*
X7872148Y-12835212D02*
X7853101Y-12844736D01*
X7853101Y-12844736D02*
X7843577Y-12854260D01*
X7843577Y-12854260D02*
X7824529Y-12882831D01*
X7824529Y-12882831D02*
X7815006Y-12920927D01*
X7815006Y-12920927D02*
X7815006Y-12997117D01*
X7815006Y-12997117D02*
X7824529Y-13016165D01*
X7824529Y-13016165D02*
X7834053Y-13025689D01*
X7834053Y-13025689D02*
X7853101Y-13035212D01*
X7853101Y-13035212D02*
X7891196Y-13035212D01*
X7891196Y-13035212D02*
X7910244Y-13025689D01*
X7910244Y-13025689D02*
X7919768Y-13016165D01*
X7919768Y-13016165D02*
X7929291Y-12997117D01*
X7929291Y-12997117D02*
X7929291Y-12949498D01*
X7929291Y-12949498D02*
X7919768Y-12930451D01*
X7919768Y-12930451D02*
X7910244Y-12920927D01*
X7910244Y-12920927D02*
X7891196Y-12911403D01*
X7891196Y-12911403D02*
X7853101Y-12911403D01*
X7853101Y-12911403D02*
X7834053Y-12920927D01*
X7834053Y-12920927D02*
X7824529Y-12930451D01*
X7824529Y-12930451D02*
X7815006Y-12949498D01*
X8167387Y-13035212D02*
X8167387Y-12835212D01*
X8253101Y-13035212D02*
X8253101Y-12930451D01*
X8253101Y-12930451D02*
X8243577Y-12911403D01*
X8243577Y-12911403D02*
X8224530Y-12901879D01*
X8224530Y-12901879D02*
X8195958Y-12901879D01*
X8195958Y-12901879D02*
X8176910Y-12911403D01*
X8176910Y-12911403D02*
X8167387Y-12920927D01*
X8376910Y-13035212D02*
X8357863Y-13025689D01*
X8357863Y-13025689D02*
X8348339Y-13016165D01*
X8348339Y-13016165D02*
X8338815Y-12997117D01*
X8338815Y-12997117D02*
X8338815Y-12939974D01*
X8338815Y-12939974D02*
X8348339Y-12920927D01*
X8348339Y-12920927D02*
X8357863Y-12911403D01*
X8357863Y-12911403D02*
X8376910Y-12901879D01*
X8376910Y-12901879D02*
X8405482Y-12901879D01*
X8405482Y-12901879D02*
X8424530Y-12911403D01*
X8424530Y-12911403D02*
X8434053Y-12920927D01*
X8434053Y-12920927D02*
X8443577Y-12939974D01*
X8443577Y-12939974D02*
X8443577Y-12997117D01*
X8443577Y-12997117D02*
X8434053Y-13016165D01*
X8434053Y-13016165D02*
X8424530Y-13025689D01*
X8424530Y-13025689D02*
X8405482Y-13035212D01*
X8405482Y-13035212D02*
X8376910Y-13035212D01*
X8557863Y-13035212D02*
X8538815Y-13025689D01*
X8538815Y-13025689D02*
X8529292Y-13006641D01*
X8529292Y-13006641D02*
X8529292Y-12835212D01*
X8710244Y-13025689D02*
X8691196Y-13035212D01*
X8691196Y-13035212D02*
X8653101Y-13035212D01*
X8653101Y-13035212D02*
X8634053Y-13025689D01*
X8634053Y-13025689D02*
X8624530Y-13006641D01*
X8624530Y-13006641D02*
X8624530Y-12930451D01*
X8624530Y-12930451D02*
X8634053Y-12911403D01*
X8634053Y-12911403D02*
X8653101Y-12901879D01*
X8653101Y-12901879D02*
X8691196Y-12901879D01*
X8691196Y-12901879D02*
X8710244Y-12911403D01*
X8710244Y-12911403D02*
X8719768Y-12930451D01*
X8719768Y-12930451D02*
X8719768Y-12949498D01*
X8719768Y-12949498D02*
X8624530Y-12968546D01*
X8795958Y-13025689D02*
X8815006Y-13035212D01*
X8815006Y-13035212D02*
X8853101Y-13035212D01*
X8853101Y-13035212D02*
X8872149Y-13025689D01*
X8872149Y-13025689D02*
X8881673Y-13006641D01*
X8881673Y-13006641D02*
X8881673Y-12997117D01*
X8881673Y-12997117D02*
X8872149Y-12978070D01*
X8872149Y-12978070D02*
X8853101Y-12968546D01*
X8853101Y-12968546D02*
X8824530Y-12968546D01*
X8824530Y-12968546D02*
X8805482Y-12959022D01*
X8805482Y-12959022D02*
X8795958Y-12939974D01*
X8795958Y-12939974D02*
X8795958Y-12930451D01*
X8795958Y-12930451D02*
X8805482Y-12911403D01*
X8805482Y-12911403D02*
X8824530Y-12901879D01*
X8824530Y-12901879D02*
X8853101Y-12901879D01*
X8853101Y-12901879D02*
X8872149Y-12911403D01*
X9119768Y-12959022D02*
X9272149Y-12959022D01*
X9195958Y-13035212D02*
X9195958Y-12882831D01*
X9500720Y-12835212D02*
X9624530Y-12835212D01*
X9624530Y-12835212D02*
X9557863Y-12911403D01*
X9557863Y-12911403D02*
X9586435Y-12911403D01*
X9586435Y-12911403D02*
X9605482Y-12920927D01*
X9605482Y-12920927D02*
X9615006Y-12930451D01*
X9615006Y-12930451D02*
X9624530Y-12949498D01*
X9624530Y-12949498D02*
X9624530Y-12997117D01*
X9624530Y-12997117D02*
X9615006Y-13016165D01*
X9615006Y-13016165D02*
X9605482Y-13025689D01*
X9605482Y-13025689D02*
X9586435Y-13035212D01*
X9586435Y-13035212D02*
X9529292Y-13035212D01*
X9529292Y-13035212D02*
X9510244Y-13025689D01*
X9510244Y-13025689D02*
X9500720Y-13016165D01*
X9853101Y-13025689D02*
X9872149Y-13035212D01*
X9872149Y-13035212D02*
X9910244Y-13035212D01*
X9910244Y-13035212D02*
X9929292Y-13025689D01*
X9929292Y-13025689D02*
X9938816Y-13006641D01*
X9938816Y-13006641D02*
X9938816Y-12997117D01*
X9938816Y-12997117D02*
X9929292Y-12978070D01*
X9929292Y-12978070D02*
X9910244Y-12968546D01*
X9910244Y-12968546D02*
X9881673Y-12968546D01*
X9881673Y-12968546D02*
X9862625Y-12959022D01*
X9862625Y-12959022D02*
X9853101Y-12939974D01*
X9853101Y-12939974D02*
X9853101Y-12930451D01*
X9853101Y-12930451D02*
X9862625Y-12911403D01*
X9862625Y-12911403D02*
X9881673Y-12901879D01*
X9881673Y-12901879D02*
X9910244Y-12901879D01*
X9910244Y-12901879D02*
X9929292Y-12911403D01*
X10053101Y-13035212D02*
X10034054Y-13025689D01*
X10034054Y-13025689D02*
X10024530Y-13006641D01*
X10024530Y-13006641D02*
X10024530Y-12835212D01*
X10157863Y-13035212D02*
X10138816Y-13025689D01*
X10138816Y-13025689D02*
X10129292Y-13016165D01*
X10129292Y-13016165D02*
X10119768Y-12997117D01*
X10119768Y-12997117D02*
X10119768Y-12939974D01*
X10119768Y-12939974D02*
X10129292Y-12920927D01*
X10129292Y-12920927D02*
X10138816Y-12911403D01*
X10138816Y-12911403D02*
X10157863Y-12901879D01*
X10157863Y-12901879D02*
X10186435Y-12901879D01*
X10186435Y-12901879D02*
X10205482Y-12911403D01*
X10205482Y-12911403D02*
X10215006Y-12920927D01*
X10215006Y-12920927D02*
X10224530Y-12939974D01*
X10224530Y-12939974D02*
X10224530Y-12997117D01*
X10224530Y-12997117D02*
X10215006Y-13016165D01*
X10215006Y-13016165D02*
X10205482Y-13025689D01*
X10205482Y-13025689D02*
X10186435Y-13035212D01*
X10186435Y-13035212D02*
X10157863Y-13035212D01*
X10281673Y-12901879D02*
X10357863Y-12901879D01*
X10310244Y-12835212D02*
X10310244Y-13006641D01*
X10310244Y-13006641D02*
X10319768Y-13025689D01*
X10319768Y-13025689D02*
X10338816Y-13035212D01*
X10338816Y-13035212D02*
X10357863Y-13035212D01*
X10415006Y-13025689D02*
X10434054Y-13035212D01*
X10434054Y-13035212D02*
X10472149Y-13035212D01*
X10472149Y-13035212D02*
X10491197Y-13025689D01*
X10491197Y-13025689D02*
X10500720Y-13006641D01*
X10500720Y-13006641D02*
X10500720Y-12997117D01*
X10500720Y-12997117D02*
X10491197Y-12978070D01*
X10491197Y-12978070D02*
X10472149Y-12968546D01*
X10472149Y-12968546D02*
X10443577Y-12968546D01*
X10443577Y-12968546D02*
X10424530Y-12959022D01*
X10424530Y-12959022D02*
X10415006Y-12939974D01*
X10415006Y-12939974D02*
X10415006Y-12930451D01*
X10415006Y-12930451D02*
X10424530Y-12911403D01*
X10424530Y-12911403D02*
X10443577Y-12901879D01*
X10443577Y-12901879D02*
X10472149Y-12901879D01*
X10472149Y-12901879D02*
X10491197Y-12911403D01*
X10567387Y-13111403D02*
X10576911Y-13101879D01*
X10576911Y-13101879D02*
X10595958Y-13073308D01*
X10595958Y-13073308D02*
X10605482Y-13054260D01*
X10605482Y-13054260D02*
X10615006Y-13025689D01*
X10615006Y-13025689D02*
X10624530Y-12978070D01*
X10624530Y-12978070D02*
X10624530Y-12939974D01*
X10624530Y-12939974D02*
X10615006Y-12892355D01*
X10615006Y-12892355D02*
X10605482Y-12863784D01*
X10605482Y-12863784D02*
X10595958Y-12844736D01*
X10595958Y-12844736D02*
X10576911Y-12816165D01*
X10576911Y-12816165D02*
X10567387Y-12806641D01*
D12*
X3917800Y-13272729D02*
X3982800Y-13207729D01*
X3917800Y-13142729D01*
X3852800Y-13207729D01*
X3917800Y-13272729D01*
D11*
X4348339Y-13299212D02*
X4234053Y-13299212D01*
X4291196Y-13299212D02*
X4291196Y-13099212D01*
X4291196Y-13099212D02*
X4272148Y-13127784D01*
X4272148Y-13127784D02*
X4253101Y-13146831D01*
X4253101Y-13146831D02*
X4234053Y-13156355D01*
X4434053Y-13280165D02*
X4443577Y-13289689D01*
X4443577Y-13289689D02*
X4434053Y-13299212D01*
X4434053Y-13299212D02*
X4424529Y-13289689D01*
X4424529Y-13289689D02*
X4434053Y-13280165D01*
X4434053Y-13280165D02*
X4434053Y-13299212D01*
X4510244Y-13099212D02*
X4634053Y-13099212D01*
X4634053Y-13099212D02*
X4567386Y-13175403D01*
X4567386Y-13175403D02*
X4595958Y-13175403D01*
X4595958Y-13175403D02*
X4615005Y-13184927D01*
X4615005Y-13184927D02*
X4624529Y-13194451D01*
X4624529Y-13194451D02*
X4634053Y-13213498D01*
X4634053Y-13213498D02*
X4634053Y-13261117D01*
X4634053Y-13261117D02*
X4624529Y-13280165D01*
X4624529Y-13280165D02*
X4615005Y-13289689D01*
X4615005Y-13289689D02*
X4595958Y-13299212D01*
X4595958Y-13299212D02*
X4538815Y-13299212D01*
X4538815Y-13299212D02*
X4519767Y-13289689D01*
X4519767Y-13289689D02*
X4510244Y-13280165D01*
X4757863Y-13099212D02*
X4776910Y-13099212D01*
X4776910Y-13099212D02*
X4795958Y-13108736D01*
X4795958Y-13108736D02*
X4805482Y-13118260D01*
X4805482Y-13118260D02*
X4815005Y-13137308D01*
X4815005Y-13137308D02*
X4824529Y-13175403D01*
X4824529Y-13175403D02*
X4824529Y-13223022D01*
X4824529Y-13223022D02*
X4815005Y-13261117D01*
X4815005Y-13261117D02*
X4805482Y-13280165D01*
X4805482Y-13280165D02*
X4795958Y-13289689D01*
X4795958Y-13289689D02*
X4776910Y-13299212D01*
X4776910Y-13299212D02*
X4757863Y-13299212D01*
X4757863Y-13299212D02*
X4738815Y-13289689D01*
X4738815Y-13289689D02*
X4729291Y-13280165D01*
X4729291Y-13280165D02*
X4719767Y-13261117D01*
X4719767Y-13261117D02*
X4710244Y-13223022D01*
X4710244Y-13223022D02*
X4710244Y-13175403D01*
X4710244Y-13175403D02*
X4719767Y-13137308D01*
X4719767Y-13137308D02*
X4729291Y-13118260D01*
X4729291Y-13118260D02*
X4738815Y-13108736D01*
X4738815Y-13108736D02*
X4757863Y-13099212D01*
X4948339Y-13099212D02*
X4967386Y-13099212D01*
X4967386Y-13099212D02*
X4986434Y-13108736D01*
X4986434Y-13108736D02*
X4995958Y-13118260D01*
X4995958Y-13118260D02*
X5005482Y-13137308D01*
X5005482Y-13137308D02*
X5015005Y-13175403D01*
X5015005Y-13175403D02*
X5015005Y-13223022D01*
X5015005Y-13223022D02*
X5005482Y-13261117D01*
X5005482Y-13261117D02*
X4995958Y-13280165D01*
X4995958Y-13280165D02*
X4986434Y-13289689D01*
X4986434Y-13289689D02*
X4967386Y-13299212D01*
X4967386Y-13299212D02*
X4948339Y-13299212D01*
X4948339Y-13299212D02*
X4929291Y-13289689D01*
X4929291Y-13289689D02*
X4919767Y-13280165D01*
X4919767Y-13280165D02*
X4910244Y-13261117D01*
X4910244Y-13261117D02*
X4900720Y-13223022D01*
X4900720Y-13223022D02*
X4900720Y-13175403D01*
X4900720Y-13175403D02*
X4910244Y-13137308D01*
X4910244Y-13137308D02*
X4919767Y-13118260D01*
X4919767Y-13118260D02*
X4929291Y-13108736D01*
X4929291Y-13108736D02*
X4948339Y-13099212D01*
X5100720Y-13299212D02*
X5100720Y-13165879D01*
X5100720Y-13184927D02*
X5110244Y-13175403D01*
X5110244Y-13175403D02*
X5129291Y-13165879D01*
X5129291Y-13165879D02*
X5157863Y-13165879D01*
X5157863Y-13165879D02*
X5176910Y-13175403D01*
X5176910Y-13175403D02*
X5186434Y-13194451D01*
X5186434Y-13194451D02*
X5186434Y-13299212D01*
X5186434Y-13194451D02*
X5195958Y-13175403D01*
X5195958Y-13175403D02*
X5215005Y-13165879D01*
X5215005Y-13165879D02*
X5243577Y-13165879D01*
X5243577Y-13165879D02*
X5262625Y-13175403D01*
X5262625Y-13175403D02*
X5272148Y-13194451D01*
X5272148Y-13194451D02*
X5272148Y-13299212D01*
X5367386Y-13299212D02*
X5367386Y-13165879D01*
X5367386Y-13184927D02*
X5376910Y-13175403D01*
X5376910Y-13175403D02*
X5395958Y-13165879D01*
X5395958Y-13165879D02*
X5424529Y-13165879D01*
X5424529Y-13165879D02*
X5443577Y-13175403D01*
X5443577Y-13175403D02*
X5453101Y-13194451D01*
X5453101Y-13194451D02*
X5453101Y-13299212D01*
X5453101Y-13194451D02*
X5462625Y-13175403D01*
X5462625Y-13175403D02*
X5481672Y-13165879D01*
X5481672Y-13165879D02*
X5510244Y-13165879D01*
X5510244Y-13165879D02*
X5529291Y-13175403D01*
X5529291Y-13175403D02*
X5538815Y-13194451D01*
X5538815Y-13194451D02*
X5538815Y-13299212D01*
X5929291Y-13089689D02*
X5757863Y-13346831D01*
X6186434Y-13099212D02*
X6205482Y-13099212D01*
X6205482Y-13099212D02*
X6224529Y-13108736D01*
X6224529Y-13108736D02*
X6234053Y-13118260D01*
X6234053Y-13118260D02*
X6243577Y-13137308D01*
X6243577Y-13137308D02*
X6253101Y-13175403D01*
X6253101Y-13175403D02*
X6253101Y-13223022D01*
X6253101Y-13223022D02*
X6243577Y-13261117D01*
X6243577Y-13261117D02*
X6234053Y-13280165D01*
X6234053Y-13280165D02*
X6224529Y-13289689D01*
X6224529Y-13289689D02*
X6205482Y-13299212D01*
X6205482Y-13299212D02*
X6186434Y-13299212D01*
X6186434Y-13299212D02*
X6167386Y-13289689D01*
X6167386Y-13289689D02*
X6157863Y-13280165D01*
X6157863Y-13280165D02*
X6148339Y-13261117D01*
X6148339Y-13261117D02*
X6138815Y-13223022D01*
X6138815Y-13223022D02*
X6138815Y-13175403D01*
X6138815Y-13175403D02*
X6148339Y-13137308D01*
X6148339Y-13137308D02*
X6157863Y-13118260D01*
X6157863Y-13118260D02*
X6167386Y-13108736D01*
X6167386Y-13108736D02*
X6186434Y-13099212D01*
X6338815Y-13280165D02*
X6348339Y-13289689D01*
X6348339Y-13289689D02*
X6338815Y-13299212D01*
X6338815Y-13299212D02*
X6329291Y-13289689D01*
X6329291Y-13289689D02*
X6338815Y-13280165D01*
X6338815Y-13280165D02*
X6338815Y-13299212D01*
X6472148Y-13099212D02*
X6491196Y-13099212D01*
X6491196Y-13099212D02*
X6510244Y-13108736D01*
X6510244Y-13108736D02*
X6519767Y-13118260D01*
X6519767Y-13118260D02*
X6529291Y-13137308D01*
X6529291Y-13137308D02*
X6538815Y-13175403D01*
X6538815Y-13175403D02*
X6538815Y-13223022D01*
X6538815Y-13223022D02*
X6529291Y-13261117D01*
X6529291Y-13261117D02*
X6519767Y-13280165D01*
X6519767Y-13280165D02*
X6510244Y-13289689D01*
X6510244Y-13289689D02*
X6491196Y-13299212D01*
X6491196Y-13299212D02*
X6472148Y-13299212D01*
X6472148Y-13299212D02*
X6453101Y-13289689D01*
X6453101Y-13289689D02*
X6443577Y-13280165D01*
X6443577Y-13280165D02*
X6434053Y-13261117D01*
X6434053Y-13261117D02*
X6424529Y-13223022D01*
X6424529Y-13223022D02*
X6424529Y-13175403D01*
X6424529Y-13175403D02*
X6434053Y-13137308D01*
X6434053Y-13137308D02*
X6443577Y-13118260D01*
X6443577Y-13118260D02*
X6453101Y-13108736D01*
X6453101Y-13108736D02*
X6472148Y-13099212D01*
X6719767Y-13099212D02*
X6624529Y-13099212D01*
X6624529Y-13099212D02*
X6615006Y-13194451D01*
X6615006Y-13194451D02*
X6624529Y-13184927D01*
X6624529Y-13184927D02*
X6643577Y-13175403D01*
X6643577Y-13175403D02*
X6691196Y-13175403D01*
X6691196Y-13175403D02*
X6710244Y-13184927D01*
X6710244Y-13184927D02*
X6719767Y-13194451D01*
X6719767Y-13194451D02*
X6729291Y-13213498D01*
X6729291Y-13213498D02*
X6729291Y-13261117D01*
X6729291Y-13261117D02*
X6719767Y-13280165D01*
X6719767Y-13280165D02*
X6710244Y-13289689D01*
X6710244Y-13289689D02*
X6691196Y-13299212D01*
X6691196Y-13299212D02*
X6643577Y-13299212D01*
X6643577Y-13299212D02*
X6624529Y-13289689D01*
X6624529Y-13289689D02*
X6615006Y-13280165D01*
X6919767Y-13299212D02*
X6805482Y-13299212D01*
X6862625Y-13299212D02*
X6862625Y-13099212D01*
X6862625Y-13099212D02*
X6843577Y-13127784D01*
X6843577Y-13127784D02*
X6824529Y-13146831D01*
X6824529Y-13146831D02*
X6805482Y-13156355D01*
X6995958Y-13118260D02*
X7005482Y-13108736D01*
X7005482Y-13108736D02*
X7024529Y-13099212D01*
X7024529Y-13099212D02*
X7072148Y-13099212D01*
X7072148Y-13099212D02*
X7091196Y-13108736D01*
X7091196Y-13108736D02*
X7100720Y-13118260D01*
X7100720Y-13118260D02*
X7110244Y-13137308D01*
X7110244Y-13137308D02*
X7110244Y-13156355D01*
X7110244Y-13156355D02*
X7100720Y-13184927D01*
X7100720Y-13184927D02*
X6986434Y-13299212D01*
X6986434Y-13299212D02*
X7110244Y-13299212D01*
X7186434Y-13099212D02*
X7186434Y-13137308D01*
X7262625Y-13099212D02*
X7262625Y-13137308D01*
X7557863Y-13375403D02*
X7548339Y-13365879D01*
X7548339Y-13365879D02*
X7529291Y-13337308D01*
X7529291Y-13337308D02*
X7519768Y-13318260D01*
X7519768Y-13318260D02*
X7510244Y-13289689D01*
X7510244Y-13289689D02*
X7500720Y-13242070D01*
X7500720Y-13242070D02*
X7500720Y-13203974D01*
X7500720Y-13203974D02*
X7510244Y-13156355D01*
X7510244Y-13156355D02*
X7519768Y-13127784D01*
X7519768Y-13127784D02*
X7529291Y-13108736D01*
X7529291Y-13108736D02*
X7548339Y-13080165D01*
X7548339Y-13080165D02*
X7557863Y-13070641D01*
X7615006Y-13099212D02*
X7738815Y-13099212D01*
X7738815Y-13099212D02*
X7672148Y-13175403D01*
X7672148Y-13175403D02*
X7700720Y-13175403D01*
X7700720Y-13175403D02*
X7719768Y-13184927D01*
X7719768Y-13184927D02*
X7729291Y-13194451D01*
X7729291Y-13194451D02*
X7738815Y-13213498D01*
X7738815Y-13213498D02*
X7738815Y-13261117D01*
X7738815Y-13261117D02*
X7729291Y-13280165D01*
X7729291Y-13280165D02*
X7719768Y-13289689D01*
X7719768Y-13289689D02*
X7700720Y-13299212D01*
X7700720Y-13299212D02*
X7643577Y-13299212D01*
X7643577Y-13299212D02*
X7624529Y-13289689D01*
X7624529Y-13289689D02*
X7615006Y-13280165D01*
X7976910Y-13299212D02*
X7976910Y-13099212D01*
X8062625Y-13299212D02*
X8062625Y-13194451D01*
X8062625Y-13194451D02*
X8053101Y-13175403D01*
X8053101Y-13175403D02*
X8034053Y-13165879D01*
X8034053Y-13165879D02*
X8005482Y-13165879D01*
X8005482Y-13165879D02*
X7986434Y-13175403D01*
X7986434Y-13175403D02*
X7976910Y-13184927D01*
X8186434Y-13299212D02*
X8167387Y-13289689D01*
X8167387Y-13289689D02*
X8157863Y-13280165D01*
X8157863Y-13280165D02*
X8148339Y-13261117D01*
X8148339Y-13261117D02*
X8148339Y-13203974D01*
X8148339Y-13203974D02*
X8157863Y-13184927D01*
X8157863Y-13184927D02*
X8167387Y-13175403D01*
X8167387Y-13175403D02*
X8186434Y-13165879D01*
X8186434Y-13165879D02*
X8215006Y-13165879D01*
X8215006Y-13165879D02*
X8234053Y-13175403D01*
X8234053Y-13175403D02*
X8243577Y-13184927D01*
X8243577Y-13184927D02*
X8253101Y-13203974D01*
X8253101Y-13203974D02*
X8253101Y-13261117D01*
X8253101Y-13261117D02*
X8243577Y-13280165D01*
X8243577Y-13280165D02*
X8234053Y-13289689D01*
X8234053Y-13289689D02*
X8215006Y-13299212D01*
X8215006Y-13299212D02*
X8186434Y-13299212D01*
X8367387Y-13299212D02*
X8348339Y-13289689D01*
X8348339Y-13289689D02*
X8338815Y-13270641D01*
X8338815Y-13270641D02*
X8338815Y-13099212D01*
X8519768Y-13289689D02*
X8500720Y-13299212D01*
X8500720Y-13299212D02*
X8462625Y-13299212D01*
X8462625Y-13299212D02*
X8443577Y-13289689D01*
X8443577Y-13289689D02*
X8434053Y-13270641D01*
X8434053Y-13270641D02*
X8434053Y-13194451D01*
X8434053Y-13194451D02*
X8443577Y-13175403D01*
X8443577Y-13175403D02*
X8462625Y-13165879D01*
X8462625Y-13165879D02*
X8500720Y-13165879D01*
X8500720Y-13165879D02*
X8519768Y-13175403D01*
X8519768Y-13175403D02*
X8529292Y-13194451D01*
X8529292Y-13194451D02*
X8529292Y-13213498D01*
X8529292Y-13213498D02*
X8434053Y-13232546D01*
X8605482Y-13289689D02*
X8624530Y-13299212D01*
X8624530Y-13299212D02*
X8662625Y-13299212D01*
X8662625Y-13299212D02*
X8681673Y-13289689D01*
X8681673Y-13289689D02*
X8691196Y-13270641D01*
X8691196Y-13270641D02*
X8691196Y-13261117D01*
X8691196Y-13261117D02*
X8681673Y-13242070D01*
X8681673Y-13242070D02*
X8662625Y-13232546D01*
X8662625Y-13232546D02*
X8634053Y-13232546D01*
X8634053Y-13232546D02*
X8615006Y-13223022D01*
X8615006Y-13223022D02*
X8605482Y-13203974D01*
X8605482Y-13203974D02*
X8605482Y-13194451D01*
X8605482Y-13194451D02*
X8615006Y-13175403D01*
X8615006Y-13175403D02*
X8634053Y-13165879D01*
X8634053Y-13165879D02*
X8662625Y-13165879D01*
X8662625Y-13165879D02*
X8681673Y-13175403D01*
X8757863Y-13375403D02*
X8767387Y-13365879D01*
X8767387Y-13365879D02*
X8786434Y-13337308D01*
X8786434Y-13337308D02*
X8795958Y-13318260D01*
X8795958Y-13318260D02*
X8805482Y-13289689D01*
X8805482Y-13289689D02*
X8815006Y-13242070D01*
X8815006Y-13242070D02*
X8815006Y-13203974D01*
X8815006Y-13203974D02*
X8805482Y-13156355D01*
X8805482Y-13156355D02*
X8795958Y-13127784D01*
X8795958Y-13127784D02*
X8786434Y-13108736D01*
X8786434Y-13108736D02*
X8767387Y-13080165D01*
X8767387Y-13080165D02*
X8757863Y-13070641D01*
M02*
