%TF.GenerationSoftware,KiCad,Pcbnew,9.0.2*%
%TF.CreationDate,2025-05-13T17:20:56+02:00*%
%TF.ProjectId,CCFL2LED,4343464c-324c-4454-942e-6b696361645f,rev?*%
%TF.SameCoordinates,Original*%
%TF.FileFunction,Copper,L2,Bot*%
%TF.FilePolarity,Positive*%
%FSLAX46Y46*%
G04 Gerber Fmt 4.6, Leading zero omitted, Abs format (unit mm)*
G04 Created by KiCad (PCBNEW 9.0.2) date 2025-05-13 17:20:56*
%MOMM*%
%LPD*%
G01*
G04 APERTURE LIST*
G04 Aperture macros list*
%AMRoundRect*
0 Rectangle with rounded corners*
0 $1 Rounding radius*
0 $2 $3 $4 $5 $6 $7 $8 $9 X,Y pos of 4 corners*
0 Add a 4 corners polygon primitive as box body*
4,1,4,$2,$3,$4,$5,$6,$7,$8,$9,$2,$3,0*
0 Add four circle primitives for the rounded corners*
1,1,$1+$1,$2,$3*
1,1,$1+$1,$4,$5*
1,1,$1+$1,$6,$7*
1,1,$1+$1,$8,$9*
0 Add four rect primitives between the rounded corners*
20,1,$1+$1,$2,$3,$4,$5,0*
20,1,$1+$1,$4,$5,$6,$7,0*
20,1,$1+$1,$6,$7,$8,$9,0*
20,1,$1+$1,$8,$9,$2,$3,0*%
G04 Aperture macros list end*
%TA.AperFunction,ComponentPad*%
%ADD10C,0.500000*%
%TD*%
%TA.AperFunction,SMDPad,CuDef*%
%ADD11RoundRect,0.250000X1.550000X-0.920000X1.550000X0.920000X-1.550000X0.920000X-1.550000X-0.920000X0*%
%TD*%
%TA.AperFunction,WasherPad*%
%ADD12O,1.560000X2.540000*%
%TD*%
%TA.AperFunction,ComponentPad*%
%ADD13O,1.560000X2.540000*%
%TD*%
%TA.AperFunction,ComponentPad*%
%ADD14R,1.700000X1.700000*%
%TD*%
%TA.AperFunction,ComponentPad*%
%ADD15C,1.700000*%
%TD*%
%TA.AperFunction,ComponentPad*%
%ADD16R,2.540000X2.540000*%
%TD*%
%TA.AperFunction,ComponentPad*%
%ADD17C,2.540000*%
%TD*%
%TA.AperFunction,ComponentPad*%
%ADD18R,3.500000X3.500000*%
%TD*%
%TA.AperFunction,ComponentPad*%
%ADD19RoundRect,0.750000X-1.000000X0.750000X-1.000000X-0.750000X1.000000X-0.750000X1.000000X0.750000X0*%
%TD*%
%TA.AperFunction,ComponentPad*%
%ADD20RoundRect,0.875000X-0.875000X0.875000X-0.875000X-0.875000X0.875000X-0.875000X0.875000X0.875000X0*%
%TD*%
%TA.AperFunction,ComponentPad*%
%ADD21O,1.300000X2.300000*%
%TD*%
%TA.AperFunction,ComponentPad*%
%ADD22O,1.300000X2.100000*%
%TD*%
%TA.AperFunction,ViaPad*%
%ADD23C,0.600000*%
%TD*%
%TA.AperFunction,ViaPad*%
%ADD24C,0.700000*%
%TD*%
%TA.AperFunction,Conductor*%
%ADD25C,0.500000*%
%TD*%
%TA.AperFunction,Conductor*%
%ADD26C,0.200000*%
%TD*%
%TA.AperFunction,Conductor*%
%ADD27C,0.300000*%
%TD*%
G04 APERTURE END LIST*
D10*
%TO.P,U8,4,VOUT*%
%TO.N,/Vdd*%
X47639000Y-46736000D03*
X48639000Y-46736000D03*
D11*
X48639000Y-46736000D03*
D10*
X49639000Y-46736000D03*
%TD*%
D12*
%TO.P,SW1,*%
%TO.N,*%
X63504000Y-31605000D03*
X76704000Y-31605000D03*
D13*
%TO.P,SW1,1,A*%
%TO.N,/Vbus*%
X65404000Y-40005000D03*
%TO.P,SW1,2,B*%
%TO.N,+12V*%
X70104000Y-40005000D03*
%TO.P,SW1,3,C*%
%TO.N,/PS_DC*%
X74804000Y-40005000D03*
%TD*%
D14*
%TO.P,J4,1,Pin_1*%
%TO.N,+5V*%
X80391000Y-112900500D03*
D15*
%TO.P,J4,2,Pin_2*%
%TO.N,GND*%
X77851000Y-112900500D03*
%TO.P,J4,3,Pin_3*%
%TO.N,/EnablePin*%
X75311000Y-112900500D03*
%TO.P,J4,4,Pin_4*%
%TO.N,/DimPin*%
X72771000Y-112900500D03*
%TO.P,J4,5,Pin_5*%
%TO.N,GND*%
X70231000Y-112900500D03*
%TO.P,J4,6,Pin_6*%
%TO.N,+12V*%
X67691000Y-112900500D03*
%TD*%
D14*
%TO.P,+  -,1,Pin_1*%
%TO.N,/LED-_1*%
X43459000Y-59807000D03*
D15*
%TO.P,+  -,2,Pin_2*%
%TO.N,/LED+_1*%
X43459000Y-62347000D03*
%TD*%
D16*
%TO.P,U7,1,Vin*%
%TO.N,+12V*%
X86868000Y-59687500D03*
D17*
%TO.P,U7,2,GNDin*%
%TO.N,GND*%
X69088000Y-59687500D03*
%TO.P,U7,3,GNDout*%
X69088000Y-100327500D03*
%TO.P,U7,4,Vout*%
%TO.N,+5V*%
X86868000Y-100327500D03*
%TD*%
D18*
%TO.P,J3,1*%
%TO.N,/DC+*%
X84201000Y-43846000D03*
D19*
%TO.P,J3,2*%
%TO.N,GND*%
X84201000Y-37846000D03*
D20*
%TO.P,J3,3*%
%TO.N,N/C*%
X79501000Y-40846000D03*
%TD*%
D14*
%TO.P,J7,1,Pin_1*%
%TO.N,GND*%
X66929000Y-46355000D03*
D15*
%TO.P,J7,2,Pin_2*%
%TO.N,+12V*%
X66929000Y-48895000D03*
%TD*%
D14*
%TO.P,+  -,1,Pin_1*%
%TO.N,/LED-*%
X43586000Y-93492000D03*
D15*
%TO.P,+  -,2,Pin_2*%
%TO.N,/LED+*%
X43586000Y-96032000D03*
%TD*%
D21*
%TO.P,J2,S1,SHIELD*%
%TO.N,GND*%
X61224000Y-36931000D03*
D22*
X61224000Y-32731000D03*
D10*
X58894000Y-34111000D03*
X58894000Y-32111000D03*
X54894000Y-34111000D03*
X54894000Y-32111000D03*
D21*
X52564000Y-36931000D03*
D22*
X52564000Y-32731000D03*
%TD*%
D23*
%TO.N,GND*%
X48526000Y-60800500D03*
X50431000Y-64359000D03*
X50530000Y-98121500D03*
X50530000Y-91261000D03*
X48879000Y-94563000D03*
X50431000Y-57374000D03*
%TO.N,+5V*%
X73634600Y-61315600D03*
X86995000Y-67056000D03*
D24*
%TO.N,/D-*%
X58903000Y-49657000D03*
X57277000Y-39116000D03*
%TO.N,/D+*%
X56327000Y-39116000D03*
X57953000Y-49657000D03*
%TO.N,/CC1*%
X58294000Y-38713000D03*
X57798025Y-40753975D03*
D23*
%TO.N,/Base*%
X76984000Y-62440500D03*
X76835000Y-104754000D03*
%TO.N,/DIM*%
X67818000Y-103481500D03*
X47863000Y-92785000D03*
X47764000Y-59022500D03*
X68834000Y-103481500D03*
%TO.N,/Vbus*%
X53467000Y-39751000D03*
X46482000Y-36703000D03*
%TD*%
D25*
%TO.N,+5V*%
X73634600Y-61315600D02*
X73660000Y-61341000D01*
X73660000Y-61341000D02*
X84203500Y-61341000D01*
X86995000Y-64132500D02*
X86995000Y-67056000D01*
X84203500Y-61341000D02*
X86995000Y-64132500D01*
D26*
%TO.N,/D-*%
X57045561Y-39590512D02*
X57277000Y-39359073D01*
X58903000Y-49657000D02*
X57045561Y-47799561D01*
X57277000Y-39359073D02*
X57277000Y-39116000D01*
X57045561Y-47799561D02*
X57045561Y-39590512D01*
%TO.N,/D+*%
X57953000Y-49657000D02*
X56595559Y-48299559D01*
X56595559Y-48299559D02*
X56595559Y-39590512D01*
X56595559Y-39590512D02*
X56327000Y-39321953D01*
X56327000Y-39321953D02*
X56327000Y-39116000D01*
D27*
%TO.N,/CC1*%
X58293000Y-38714000D02*
X58293000Y-40259000D01*
X58293000Y-40259000D02*
X57798025Y-40753975D01*
X58294000Y-38713000D02*
X58293000Y-38714000D01*
%TO.N,/Base*%
X76835000Y-104754000D02*
X76835000Y-62589500D01*
X76835000Y-62589500D02*
X76984000Y-62440500D01*
%TO.N,/DIM*%
X67818000Y-103481500D02*
X67794500Y-103481500D01*
X54368000Y-65626500D02*
X54368000Y-89015500D01*
X54368000Y-89015500D02*
X68834000Y-103481500D01*
X54368000Y-65626500D02*
X47764000Y-59022500D01*
X57098000Y-92785000D02*
X47863000Y-92785000D01*
X67794500Y-103481500D02*
X57098000Y-92785000D01*
D25*
%TO.N,/Vbus*%
X53467000Y-39751000D02*
X49530000Y-39751000D01*
X49530000Y-39751000D02*
X46482000Y-36703000D01*
%TD*%
%TA.AperFunction,Conductor*%
%TO.N,GND*%
G36*
X62727540Y-30292185D02*
G01*
X62773295Y-30344989D01*
X62783239Y-30414147D01*
X62754214Y-30477703D01*
X62748182Y-30484181D01*
X62742398Y-30489964D01*
X62742395Y-30489968D01*
X62635095Y-30650552D01*
X62635088Y-30650565D01*
X62561181Y-30828994D01*
X62561178Y-30829006D01*
X62523500Y-31018424D01*
X62523500Y-31831821D01*
X62503815Y-31898860D01*
X62451011Y-31944615D01*
X62381853Y-31954559D01*
X62318297Y-31925534D01*
X62289015Y-31888116D01*
X62207565Y-31728265D01*
X62101176Y-31581830D01*
X61973169Y-31453823D01*
X61826734Y-31347434D01*
X61665447Y-31265252D01*
X61665441Y-31265250D01*
X61493295Y-31209318D01*
X61493285Y-31209315D01*
X61474000Y-31206260D01*
X61474000Y-32281272D01*
X61435940Y-32189386D01*
X61365614Y-32119060D01*
X61273728Y-32081000D01*
X61174272Y-32081000D01*
X61082386Y-32119060D01*
X61012060Y-32189386D01*
X60974000Y-32281272D01*
X60974000Y-31206260D01*
X60954714Y-31209315D01*
X60954704Y-31209318D01*
X60782558Y-31265250D01*
X60782552Y-31265252D01*
X60621265Y-31347434D01*
X60474830Y-31453823D01*
X60346823Y-31581830D01*
X60240434Y-31728265D01*
X60158252Y-31889552D01*
X60158251Y-31889555D01*
X60102317Y-32061706D01*
X60074000Y-32240493D01*
X60074000Y-32481000D01*
X60974000Y-32481000D01*
X60974000Y-32981000D01*
X60074000Y-32981000D01*
X60074000Y-33221506D01*
X60102317Y-33400293D01*
X60158251Y-33572444D01*
X60158252Y-33572447D01*
X60240434Y-33733734D01*
X60346823Y-33880169D01*
X60474830Y-34008176D01*
X60621265Y-34114565D01*
X60782552Y-34196747D01*
X60782555Y-34196748D01*
X60954699Y-34252680D01*
X60954712Y-34252683D01*
X60974000Y-34255738D01*
X60974000Y-33180728D01*
X61012060Y-33272614D01*
X61082386Y-33342940D01*
X61174272Y-33381000D01*
X61273728Y-33381000D01*
X61365614Y-33342940D01*
X61435940Y-33272614D01*
X61474000Y-33180728D01*
X61474000Y-34255737D01*
X61493287Y-34252683D01*
X61493300Y-34252680D01*
X61665444Y-34196748D01*
X61665447Y-34196747D01*
X61826734Y-34114565D01*
X61973169Y-34008176D01*
X62101176Y-33880169D01*
X62207565Y-33733734D01*
X62289747Y-33572447D01*
X62289748Y-33572444D01*
X62345682Y-33400293D01*
X62374000Y-33221506D01*
X62374000Y-32981000D01*
X61474000Y-32981000D01*
X61474000Y-32481000D01*
X62373998Y-32481000D01*
X62404419Y-32450579D01*
X62465742Y-32417094D01*
X62535434Y-32422078D01*
X62591368Y-32463949D01*
X62606662Y-32490806D01*
X62635092Y-32559441D01*
X62635095Y-32559447D01*
X62742395Y-32720031D01*
X62742398Y-32720035D01*
X62878964Y-32856601D01*
X62878968Y-32856604D01*
X63039552Y-32963904D01*
X63039565Y-32963911D01*
X63183193Y-33023403D01*
X63217999Y-33037820D01*
X63407424Y-33075499D01*
X63407427Y-33075500D01*
X63407429Y-33075500D01*
X63600573Y-33075500D01*
X63600574Y-33075499D01*
X63790001Y-33037820D01*
X63968441Y-32963908D01*
X64129032Y-32856604D01*
X64265604Y-32720032D01*
X64372908Y-32559441D01*
X64446820Y-32381001D01*
X64484500Y-32191571D01*
X64484500Y-31018429D01*
X64484500Y-31018426D01*
X64484499Y-31018424D01*
X64462898Y-30909829D01*
X64446820Y-30828999D01*
X64392248Y-30697250D01*
X64372911Y-30650565D01*
X64372904Y-30650552D01*
X64265604Y-30489968D01*
X64265601Y-30489964D01*
X64259818Y-30484181D01*
X64226333Y-30422858D01*
X64231317Y-30353166D01*
X64273189Y-30297233D01*
X64338653Y-30272816D01*
X64347499Y-30272500D01*
X75860501Y-30272500D01*
X75927540Y-30292185D01*
X75973295Y-30344989D01*
X75983239Y-30414147D01*
X75954214Y-30477703D01*
X75948182Y-30484181D01*
X75942398Y-30489964D01*
X75942395Y-30489968D01*
X75835095Y-30650552D01*
X75835088Y-30650565D01*
X75761181Y-30828994D01*
X75761178Y-30829006D01*
X75723500Y-31018424D01*
X75723500Y-32191575D01*
X75761178Y-32380993D01*
X75761181Y-32381005D01*
X75835088Y-32559434D01*
X75835095Y-32559447D01*
X75942395Y-32720031D01*
X75942398Y-32720035D01*
X76078964Y-32856601D01*
X76078968Y-32856604D01*
X76239552Y-32963904D01*
X76239565Y-32963911D01*
X76383193Y-33023403D01*
X76417999Y-33037820D01*
X76607424Y-33075499D01*
X76607427Y-33075500D01*
X76607429Y-33075500D01*
X76800573Y-33075500D01*
X76800574Y-33075499D01*
X76990001Y-33037820D01*
X77168441Y-32963908D01*
X77237674Y-32917648D01*
X90774500Y-32917648D01*
X90774500Y-33122351D01*
X90806522Y-33324534D01*
X90869781Y-33519223D01*
X90962715Y-33701613D01*
X91083028Y-33867213D01*
X91227786Y-34011971D01*
X91382749Y-34124556D01*
X91393390Y-34132287D01*
X91509607Y-34191503D01*
X91575776Y-34225218D01*
X91575778Y-34225218D01*
X91575781Y-34225220D01*
X91669703Y-34255737D01*
X91770465Y-34288477D01*
X91871557Y-34304488D01*
X91972648Y-34320500D01*
X91972649Y-34320500D01*
X92177351Y-34320500D01*
X92177352Y-34320500D01*
X92379534Y-34288477D01*
X92574219Y-34225220D01*
X92756610Y-34132287D01*
X92902859Y-34026032D01*
X92922213Y-34011971D01*
X92922215Y-34011968D01*
X92922219Y-34011966D01*
X93066966Y-33867219D01*
X93066968Y-33867215D01*
X93066971Y-33867213D01*
X93147963Y-33755735D01*
X93187287Y-33701610D01*
X93280220Y-33519219D01*
X93343477Y-33324534D01*
X93375500Y-33122352D01*
X93375500Y-32917648D01*
X93360841Y-32825095D01*
X93343477Y-32715465D01*
X93280218Y-32520776D01*
X93234316Y-32430689D01*
X93187287Y-32338390D01*
X93145789Y-32281272D01*
X93066971Y-32172786D01*
X92922213Y-32028028D01*
X92756613Y-31907715D01*
X92756612Y-31907714D01*
X92756610Y-31907713D01*
X92655748Y-31856321D01*
X92574223Y-31814781D01*
X92379534Y-31751522D01*
X92204995Y-31723878D01*
X92177352Y-31719500D01*
X91972648Y-31719500D01*
X91948329Y-31723351D01*
X91770465Y-31751522D01*
X91575776Y-31814781D01*
X91393386Y-31907715D01*
X91227786Y-32028028D01*
X91083028Y-32172786D01*
X90962715Y-32338386D01*
X90869781Y-32520776D01*
X90806522Y-32715465D01*
X90774500Y-32917648D01*
X77237674Y-32917648D01*
X77329032Y-32856604D01*
X77341123Y-32844513D01*
X77360542Y-32825095D01*
X77465601Y-32720035D01*
X77465604Y-32720032D01*
X77572908Y-32559441D01*
X77646820Y-32381001D01*
X77684500Y-32191571D01*
X77684500Y-31018429D01*
X77684500Y-31018426D01*
X77684499Y-31018424D01*
X77662898Y-30909829D01*
X77646820Y-30828999D01*
X77592248Y-30697250D01*
X77572911Y-30650565D01*
X77572904Y-30650552D01*
X77465604Y-30489968D01*
X77465601Y-30489964D01*
X77459818Y-30484181D01*
X77426333Y-30422858D01*
X77431317Y-30353166D01*
X77473189Y-30297233D01*
X77538653Y-30272816D01*
X77547499Y-30272500D01*
X92059211Y-30272500D01*
X92071127Y-30273073D01*
X92354609Y-30300445D01*
X92367957Y-30302474D01*
X92648622Y-30360971D01*
X92661697Y-30364450D01*
X92934311Y-30453193D01*
X92946917Y-30458072D01*
X93146082Y-30547955D01*
X93208223Y-30575999D01*
X93220239Y-30582232D01*
X93467133Y-30727940D01*
X93478399Y-30735447D01*
X93603436Y-30829006D01*
X93666978Y-30876552D01*
X93707934Y-30907197D01*
X93718314Y-30915887D01*
X93927755Y-31111631D01*
X93937126Y-31121400D01*
X94123989Y-31338818D01*
X94132239Y-31349551D01*
X94294283Y-31586035D01*
X94301314Y-31597603D01*
X94436614Y-31850343D01*
X94442342Y-31862608D01*
X94549288Y-32128595D01*
X94553645Y-32141413D01*
X94630958Y-32417474D01*
X94633889Y-32430679D01*
X94655177Y-32559441D01*
X94680649Y-32713520D01*
X94682124Y-32726976D01*
X94697960Y-33016634D01*
X94698145Y-33023403D01*
X94698145Y-112125227D01*
X94697571Y-112137140D01*
X94670183Y-112420892D01*
X94668149Y-112434276D01*
X94609604Y-112715217D01*
X94606123Y-112728299D01*
X94517304Y-113001178D01*
X94512418Y-113013803D01*
X94394375Y-113275383D01*
X94388141Y-113287400D01*
X94242296Y-113534541D01*
X94234790Y-113545807D01*
X94062863Y-113775589D01*
X94054173Y-113785969D01*
X93858231Y-113995630D01*
X93848462Y-114005001D01*
X93630830Y-114192055D01*
X93620097Y-114200306D01*
X93383362Y-114362527D01*
X93371795Y-114369557D01*
X93118798Y-114504999D01*
X93106538Y-114510725D01*
X92840267Y-114617786D01*
X92827450Y-114622142D01*
X92551119Y-114699533D01*
X92537903Y-114702467D01*
X92254772Y-114749275D01*
X92241316Y-114750751D01*
X92015844Y-114763077D01*
X91992894Y-114762202D01*
X91987563Y-114761500D01*
X91987562Y-114761500D01*
X91987560Y-114761500D01*
X42929481Y-114761500D01*
X42922528Y-114761305D01*
X42625330Y-114744614D01*
X42611512Y-114743057D01*
X42321491Y-114693780D01*
X42307934Y-114690686D01*
X42025246Y-114609245D01*
X42012122Y-114604652D01*
X41740339Y-114492077D01*
X41727810Y-114486044D01*
X41470331Y-114343740D01*
X41458565Y-114336347D01*
X41218632Y-114166105D01*
X41207775Y-114157447D01*
X41093275Y-114055124D01*
X40988414Y-113961414D01*
X40978583Y-113951583D01*
X40941985Y-113910630D01*
X40782547Y-113732218D01*
X40773896Y-113721369D01*
X40603649Y-113481429D01*
X40596259Y-113469668D01*
X40594535Y-113466548D01*
X40453951Y-113212182D01*
X40447922Y-113199660D01*
X40439359Y-113178988D01*
X40370938Y-113013803D01*
X40335347Y-112927877D01*
X40330754Y-112914753D01*
X40249313Y-112632065D01*
X40246219Y-112618508D01*
X40242070Y-112594087D01*
X40196941Y-112328479D01*
X40195386Y-112314678D01*
X40178695Y-112017472D01*
X40178500Y-112010519D01*
X40178500Y-111911648D01*
X41625500Y-111911648D01*
X41625500Y-112116351D01*
X41657522Y-112318534D01*
X41720781Y-112513223D01*
X41813715Y-112695613D01*
X41934028Y-112861213D01*
X42078786Y-113005971D01*
X42233749Y-113118556D01*
X42244390Y-113126287D01*
X42359328Y-113184851D01*
X42426776Y-113219218D01*
X42426778Y-113219218D01*
X42426781Y-113219220D01*
X42531137Y-113253127D01*
X42621465Y-113282477D01*
X42722557Y-113298488D01*
X42823648Y-113314500D01*
X42823649Y-113314500D01*
X43028351Y-113314500D01*
X43028352Y-113314500D01*
X43230534Y-113282477D01*
X43425219Y-113219220D01*
X43607610Y-113126287D01*
X43700590Y-113058732D01*
X43773213Y-113005971D01*
X43773215Y-113005968D01*
X43773219Y-113005966D01*
X43917966Y-112861219D01*
X43964602Y-112797030D01*
X66640500Y-112797030D01*
X66640500Y-113003969D01*
X66680868Y-113206912D01*
X66680870Y-113206920D01*
X66746939Y-113366425D01*
X66760059Y-113398098D01*
X66773836Y-113418717D01*
X66875024Y-113570157D01*
X67021342Y-113716475D01*
X67021345Y-113716477D01*
X67193402Y-113831441D01*
X67384580Y-113910630D01*
X67529052Y-113939367D01*
X67587530Y-113950999D01*
X67587534Y-113951000D01*
X67587535Y-113951000D01*
X67794466Y-113951000D01*
X67794467Y-113950999D01*
X67997420Y-113910630D01*
X68188598Y-113831441D01*
X68360655Y-113716477D01*
X68506977Y-113570155D01*
X68621941Y-113398098D01*
X68690165Y-113233389D01*
X68734004Y-113178988D01*
X68800298Y-113156923D01*
X68867998Y-113174202D01*
X68915609Y-113225339D01*
X68922656Y-113242526D01*
X68979904Y-113418716D01*
X69076375Y-113608050D01*
X69115728Y-113662216D01*
X69748037Y-113029908D01*
X69765075Y-113093493D01*
X69830901Y-113207507D01*
X69923993Y-113300599D01*
X70038007Y-113366425D01*
X70101590Y-113383462D01*
X69469282Y-114015769D01*
X69469282Y-114015770D01*
X69523449Y-114055124D01*
X69712782Y-114151595D01*
X69914870Y-114217257D01*
X70124754Y-114250500D01*
X70337246Y-114250500D01*
X70547127Y-114217257D01*
X70547130Y-114217257D01*
X70749217Y-114151595D01*
X70938554Y-114055122D01*
X70992716Y-114015770D01*
X70992717Y-114015770D01*
X70360408Y-113383462D01*
X70423993Y-113366425D01*
X70538007Y-113300599D01*
X70631099Y-113207507D01*
X70696925Y-113093493D01*
X70713962Y-113029908D01*
X71346270Y-113662217D01*
X71346270Y-113662216D01*
X71385622Y-113608054D01*
X71482095Y-113418717D01*
X71539343Y-113242526D01*
X71578780Y-113184851D01*
X71643139Y-113157652D01*
X71711985Y-113169566D01*
X71763461Y-113216810D01*
X71771833Y-113233387D01*
X71791787Y-113281559D01*
X71826939Y-113366425D01*
X71840059Y-113398098D01*
X71853836Y-113418717D01*
X71955024Y-113570157D01*
X72101342Y-113716475D01*
X72101345Y-113716477D01*
X72273402Y-113831441D01*
X72464580Y-113910630D01*
X72609052Y-113939367D01*
X72667530Y-113950999D01*
X72667534Y-113951000D01*
X72667535Y-113951000D01*
X72874466Y-113951000D01*
X72874467Y-113950999D01*
X73077420Y-113910630D01*
X73268598Y-113831441D01*
X73440655Y-113716477D01*
X73586977Y-113570155D01*
X73701941Y-113398098D01*
X73781130Y-113206920D01*
X73821500Y-113003965D01*
X73821500Y-112797035D01*
X73821499Y-112797030D01*
X74260500Y-112797030D01*
X74260500Y-113003969D01*
X74300868Y-113206912D01*
X74300870Y-113206920D01*
X74366939Y-113366425D01*
X74380059Y-113398098D01*
X74393836Y-113418717D01*
X74495024Y-113570157D01*
X74641342Y-113716475D01*
X74641345Y-113716477D01*
X74813402Y-113831441D01*
X75004580Y-113910630D01*
X75149052Y-113939367D01*
X75207530Y-113950999D01*
X75207534Y-113951000D01*
X75207535Y-113951000D01*
X75414466Y-113951000D01*
X75414467Y-113950999D01*
X75617420Y-113910630D01*
X75808598Y-113831441D01*
X75980655Y-113716477D01*
X76126977Y-113570155D01*
X76241941Y-113398098D01*
X76310165Y-113233389D01*
X76354004Y-113178988D01*
X76420298Y-113156923D01*
X76487998Y-113174202D01*
X76535609Y-113225339D01*
X76542656Y-113242526D01*
X76599904Y-113418716D01*
X76696375Y-113608050D01*
X76735728Y-113662216D01*
X77368037Y-113029908D01*
X77385075Y-113093493D01*
X77450901Y-113207507D01*
X77543993Y-113300599D01*
X77658007Y-113366425D01*
X77721590Y-113383462D01*
X77089282Y-114015769D01*
X77089282Y-114015770D01*
X77143449Y-114055124D01*
X77332782Y-114151595D01*
X77534870Y-114217257D01*
X77744754Y-114250500D01*
X77957246Y-114250500D01*
X78167127Y-114217257D01*
X78167130Y-114217257D01*
X78369217Y-114151595D01*
X78558554Y-114055122D01*
X78612716Y-114015770D01*
X78612717Y-114015770D01*
X77980408Y-113383462D01*
X78043993Y-113366425D01*
X78158007Y-113300599D01*
X78251099Y-113207507D01*
X78316925Y-113093493D01*
X78333962Y-113029908D01*
X78966270Y-113662217D01*
X78966270Y-113662216D01*
X79005622Y-113608054D01*
X79104306Y-113414379D01*
X79105321Y-113414896D01*
X79145779Y-113364692D01*
X79212073Y-113342627D01*
X79279772Y-113359906D01*
X79327383Y-113411042D01*
X79340500Y-113466548D01*
X79340500Y-113770252D01*
X79352131Y-113828729D01*
X79352132Y-113828730D01*
X79396447Y-113895052D01*
X79462769Y-113939367D01*
X79462770Y-113939368D01*
X79521247Y-113950999D01*
X79521250Y-113951000D01*
X79521252Y-113951000D01*
X81260750Y-113951000D01*
X81260751Y-113950999D01*
X81275568Y-113948052D01*
X81319229Y-113939368D01*
X81319229Y-113939367D01*
X81319231Y-113939367D01*
X81385552Y-113895052D01*
X81429867Y-113828731D01*
X81429867Y-113828729D01*
X81429868Y-113828729D01*
X81438552Y-113785068D01*
X81441500Y-113770248D01*
X81441500Y-112030752D01*
X81441500Y-112030749D01*
X81441499Y-112030747D01*
X81429868Y-111972270D01*
X81389361Y-111911648D01*
X90774500Y-111911648D01*
X90774500Y-112116351D01*
X90806522Y-112318534D01*
X90869781Y-112513223D01*
X90962715Y-112695613D01*
X91083028Y-112861213D01*
X91227786Y-113005971D01*
X91382749Y-113118556D01*
X91393390Y-113126287D01*
X91508328Y-113184851D01*
X91575776Y-113219218D01*
X91575778Y-113219218D01*
X91575781Y-113219220D01*
X91680137Y-113253127D01*
X91770465Y-113282477D01*
X91871557Y-113298488D01*
X91972648Y-113314500D01*
X91972649Y-113314500D01*
X92177351Y-113314500D01*
X92177352Y-113314500D01*
X92379534Y-113282477D01*
X92574219Y-113219220D01*
X92756610Y-113126287D01*
X92849590Y-113058732D01*
X92922213Y-113005971D01*
X92922215Y-113005968D01*
X92922219Y-113005966D01*
X93066966Y-112861219D01*
X93066968Y-112861215D01*
X93066971Y-112861213D01*
X93168220Y-112721853D01*
X93187287Y-112695610D01*
X93280220Y-112513219D01*
X93343477Y-112318534D01*
X93375500Y-112116352D01*
X93375500Y-111911648D01*
X93343477Y-111709466D01*
X93280220Y-111514781D01*
X93280218Y-111514778D01*
X93280218Y-111514776D01*
X93246503Y-111448607D01*
X93187287Y-111332390D01*
X93179556Y-111321749D01*
X93066971Y-111166786D01*
X92922213Y-111022028D01*
X92756613Y-110901715D01*
X92756612Y-110901714D01*
X92756610Y-110901713D01*
X92699653Y-110872691D01*
X92574223Y-110808781D01*
X92379534Y-110745522D01*
X92204995Y-110717878D01*
X92177352Y-110713500D01*
X91972648Y-110713500D01*
X91948329Y-110717351D01*
X91770465Y-110745522D01*
X91575776Y-110808781D01*
X91393386Y-110901715D01*
X91227786Y-111022028D01*
X91083028Y-111166786D01*
X90962715Y-111332386D01*
X90869781Y-111514776D01*
X90806522Y-111709465D01*
X90774500Y-111911648D01*
X81389361Y-111911648D01*
X81385551Y-111905946D01*
X81319230Y-111861632D01*
X81319229Y-111861631D01*
X81260752Y-111850000D01*
X81260748Y-111850000D01*
X79521252Y-111850000D01*
X79521247Y-111850000D01*
X79462770Y-111861631D01*
X79462769Y-111861632D01*
X79396447Y-111905947D01*
X79352132Y-111972269D01*
X79352131Y-111972270D01*
X79340500Y-112030747D01*
X79340500Y-112334451D01*
X79320815Y-112401490D01*
X79268011Y-112447245D01*
X79198853Y-112457189D01*
X79135297Y-112428164D01*
X79105061Y-112386236D01*
X79104306Y-112386621D01*
X79005624Y-112192949D01*
X78966270Y-112138782D01*
X78966269Y-112138782D01*
X78333962Y-112771090D01*
X78316925Y-112707507D01*
X78251099Y-112593493D01*
X78158007Y-112500401D01*
X78043993Y-112434575D01*
X77980409Y-112417537D01*
X78612716Y-111785228D01*
X78558550Y-111745875D01*
X78369217Y-111649404D01*
X78167129Y-111583742D01*
X77957246Y-111550500D01*
X77744754Y-111550500D01*
X77534872Y-111583742D01*
X77534869Y-111583742D01*
X77332782Y-111649404D01*
X77143439Y-111745880D01*
X77089282Y-111785227D01*
X77089282Y-111785228D01*
X77721591Y-112417537D01*
X77658007Y-112434575D01*
X77543993Y-112500401D01*
X77450901Y-112593493D01*
X77385075Y-112707507D01*
X77368037Y-112771091D01*
X76735728Y-112138782D01*
X76735727Y-112138782D01*
X76696380Y-112192939D01*
X76599905Y-112382281D01*
X76542656Y-112558474D01*
X76503218Y-112616149D01*
X76438859Y-112643347D01*
X76370013Y-112631432D01*
X76318537Y-112584188D01*
X76310164Y-112567607D01*
X76241943Y-112402905D01*
X76126975Y-112230842D01*
X75980657Y-112084524D01*
X75812655Y-111972270D01*
X75808598Y-111969559D01*
X75617420Y-111890370D01*
X75617412Y-111890368D01*
X75414469Y-111850000D01*
X75414465Y-111850000D01*
X75207535Y-111850000D01*
X75207530Y-111850000D01*
X75004587Y-111890368D01*
X75004579Y-111890370D01*
X74813403Y-111969558D01*
X74641342Y-112084524D01*
X74495024Y-112230842D01*
X74380058Y-112402903D01*
X74300870Y-112594079D01*
X74300868Y-112594087D01*
X74260500Y-112797030D01*
X73821499Y-112797030D01*
X73781130Y-112594080D01*
X73701941Y-112402902D01*
X73586977Y-112230845D01*
X73586975Y-112230842D01*
X73440657Y-112084524D01*
X73272655Y-111972270D01*
X73268598Y-111969559D01*
X73077420Y-111890370D01*
X73077412Y-111890368D01*
X72874469Y-111850000D01*
X72874465Y-111850000D01*
X72667535Y-111850000D01*
X72667530Y-111850000D01*
X72464587Y-111890368D01*
X72464579Y-111890370D01*
X72273403Y-111969558D01*
X72101342Y-112084524D01*
X71955024Y-112230842D01*
X71840057Y-112402903D01*
X71771835Y-112567608D01*
X71727994Y-112622011D01*
X71661700Y-112644076D01*
X71594000Y-112626797D01*
X71546390Y-112575659D01*
X71539343Y-112558473D01*
X71482095Y-112382282D01*
X71385624Y-112192949D01*
X71346270Y-112138782D01*
X71346269Y-112138782D01*
X70713962Y-112771090D01*
X70696925Y-112707507D01*
X70631099Y-112593493D01*
X70538007Y-112500401D01*
X70423993Y-112434575D01*
X70360409Y-112417537D01*
X70992716Y-111785228D01*
X70938550Y-111745875D01*
X70749217Y-111649404D01*
X70547129Y-111583742D01*
X70337246Y-111550500D01*
X70124754Y-111550500D01*
X69914872Y-111583742D01*
X69914869Y-111583742D01*
X69712782Y-111649404D01*
X69523439Y-111745880D01*
X69469282Y-111785227D01*
X69469282Y-111785228D01*
X70101591Y-112417537D01*
X70038007Y-112434575D01*
X69923993Y-112500401D01*
X69830901Y-112593493D01*
X69765075Y-112707507D01*
X69748037Y-112771091D01*
X69115728Y-112138782D01*
X69115727Y-112138782D01*
X69076380Y-112192939D01*
X68979905Y-112382281D01*
X68922656Y-112558474D01*
X68883218Y-112616149D01*
X68818859Y-112643347D01*
X68750013Y-112631432D01*
X68698537Y-112584188D01*
X68690164Y-112567607D01*
X68621943Y-112402905D01*
X68506975Y-112230842D01*
X68360657Y-112084524D01*
X68192655Y-111972270D01*
X68188598Y-111969559D01*
X67997420Y-111890370D01*
X67997412Y-111890368D01*
X67794469Y-111850000D01*
X67794465Y-111850000D01*
X67587535Y-111850000D01*
X67587530Y-111850000D01*
X67384587Y-111890368D01*
X67384579Y-111890370D01*
X67193403Y-111969558D01*
X67021342Y-112084524D01*
X66875024Y-112230842D01*
X66760058Y-112402903D01*
X66680870Y-112594079D01*
X66680868Y-112594087D01*
X66640500Y-112797030D01*
X43964602Y-112797030D01*
X44038287Y-112695610D01*
X44131220Y-112513219D01*
X44194477Y-112318534D01*
X44226500Y-112116352D01*
X44226500Y-111911648D01*
X44194477Y-111709466D01*
X44131220Y-111514781D01*
X44131218Y-111514778D01*
X44131218Y-111514776D01*
X44097503Y-111448607D01*
X44038287Y-111332390D01*
X44030556Y-111321749D01*
X43917971Y-111166786D01*
X43773213Y-111022028D01*
X43607613Y-110901715D01*
X43607612Y-110901714D01*
X43607610Y-110901713D01*
X43550653Y-110872691D01*
X43425223Y-110808781D01*
X43230534Y-110745522D01*
X43055995Y-110717878D01*
X43028352Y-110713500D01*
X42823648Y-110713500D01*
X42799329Y-110717351D01*
X42621465Y-110745522D01*
X42426776Y-110808781D01*
X42244386Y-110901715D01*
X42078786Y-111022028D01*
X41934028Y-111166786D01*
X41813715Y-111332386D01*
X41720781Y-111514776D01*
X41657522Y-111709465D01*
X41625500Y-111911648D01*
X40178500Y-111911648D01*
X40178500Y-95928530D01*
X42535500Y-95928530D01*
X42535500Y-96135469D01*
X42575868Y-96338412D01*
X42575870Y-96338420D01*
X42655058Y-96529596D01*
X42770024Y-96701657D01*
X42916342Y-96847975D01*
X42916345Y-96847977D01*
X43088402Y-96962941D01*
X43279580Y-97042130D01*
X43482530Y-97082499D01*
X43482534Y-97082500D01*
X43482535Y-97082500D01*
X43689466Y-97082500D01*
X43689467Y-97082499D01*
X43892420Y-97042130D01*
X44083598Y-96962941D01*
X44255655Y-96847977D01*
X44401977Y-96701655D01*
X44516941Y-96529598D01*
X44596130Y-96338420D01*
X44636500Y-96135465D01*
X44636500Y-95928535D01*
X44596130Y-95725580D01*
X44516941Y-95534402D01*
X44401977Y-95362345D01*
X44401975Y-95362342D01*
X44255657Y-95216024D01*
X44169626Y-95158541D01*
X44083598Y-95101059D01*
X43892420Y-95021870D01*
X43892412Y-95021868D01*
X43689469Y-94981500D01*
X43689465Y-94981500D01*
X43482535Y-94981500D01*
X43482530Y-94981500D01*
X43279587Y-95021868D01*
X43279579Y-95021870D01*
X43088403Y-95101058D01*
X42916342Y-95216024D01*
X42770024Y-95362342D01*
X42655058Y-95534403D01*
X42575870Y-95725579D01*
X42575868Y-95725587D01*
X42535500Y-95928530D01*
X40178500Y-95928530D01*
X40178500Y-92622247D01*
X42535500Y-92622247D01*
X42535500Y-94361752D01*
X42547131Y-94420229D01*
X42547132Y-94420230D01*
X42591447Y-94486552D01*
X42657769Y-94530867D01*
X42657770Y-94530868D01*
X42716247Y-94542499D01*
X42716250Y-94542500D01*
X42716252Y-94542500D01*
X44455750Y-94542500D01*
X44455751Y-94542499D01*
X44470568Y-94539552D01*
X44514229Y-94530868D01*
X44514229Y-94530867D01*
X44514231Y-94530867D01*
X44580552Y-94486552D01*
X44624867Y-94420231D01*
X44624867Y-94420229D01*
X44624868Y-94420229D01*
X44636499Y-94361752D01*
X44636500Y-94361750D01*
X44636500Y-92622249D01*
X44636499Y-92622247D01*
X44624868Y-92563770D01*
X44624867Y-92563769D01*
X44580552Y-92497447D01*
X44514230Y-92453132D01*
X44514229Y-92453131D01*
X44455752Y-92441500D01*
X44455748Y-92441500D01*
X42716252Y-92441500D01*
X42716247Y-92441500D01*
X42657770Y-92453131D01*
X42657769Y-92453132D01*
X42591447Y-92497447D01*
X42547132Y-92563769D01*
X42547131Y-92563770D01*
X42535500Y-92622247D01*
X40178500Y-92622247D01*
X40178500Y-91261000D01*
X41767000Y-91261000D01*
X49895000Y-91261000D01*
X49895000Y-91260999D01*
X49641000Y-83641000D01*
X41767000Y-83641000D01*
X41767000Y-91261000D01*
X40178500Y-91261000D01*
X40178500Y-62243530D01*
X42408500Y-62243530D01*
X42408500Y-62450469D01*
X42448868Y-62653412D01*
X42448870Y-62653420D01*
X42528058Y-62844596D01*
X42643024Y-63016657D01*
X42789342Y-63162975D01*
X42789345Y-63162977D01*
X42961402Y-63277941D01*
X43152580Y-63357130D01*
X43355530Y-63397499D01*
X43355534Y-63397500D01*
X43355535Y-63397500D01*
X43562466Y-63397500D01*
X43562467Y-63397499D01*
X43765420Y-63357130D01*
X43956598Y-63277941D01*
X44128655Y-63162977D01*
X44274977Y-63016655D01*
X44389941Y-62844598D01*
X44469130Y-62653420D01*
X44509500Y-62450465D01*
X44509500Y-62243535D01*
X44469130Y-62040580D01*
X44389941Y-61849402D01*
X44274977Y-61677345D01*
X44274975Y-61677342D01*
X44128657Y-61531024D01*
X44018616Y-61457498D01*
X43956598Y-61416059D01*
X43873146Y-61381492D01*
X43765420Y-61336870D01*
X43765412Y-61336868D01*
X43562469Y-61296500D01*
X43562465Y-61296500D01*
X43355535Y-61296500D01*
X43355530Y-61296500D01*
X43152587Y-61336868D01*
X43152579Y-61336870D01*
X42961403Y-61416058D01*
X42789342Y-61531024D01*
X42643024Y-61677342D01*
X42528058Y-61849403D01*
X42448870Y-62040579D01*
X42448868Y-62040587D01*
X42408500Y-62243530D01*
X40178500Y-62243530D01*
X40178500Y-58937247D01*
X42408500Y-58937247D01*
X42408500Y-60676752D01*
X42420131Y-60735229D01*
X42420132Y-60735230D01*
X42464447Y-60801552D01*
X42530769Y-60845867D01*
X42530770Y-60845868D01*
X42589247Y-60857499D01*
X42589250Y-60857500D01*
X42589252Y-60857500D01*
X44328750Y-60857500D01*
X44328751Y-60857499D01*
X44343568Y-60854552D01*
X44387229Y-60845868D01*
X44387229Y-60845867D01*
X44387231Y-60845867D01*
X44453552Y-60801552D01*
X44497867Y-60735231D01*
X44497867Y-60735229D01*
X44497868Y-60735229D01*
X44509499Y-60676752D01*
X44509500Y-60676750D01*
X44509500Y-58956608D01*
X47263500Y-58956608D01*
X47263500Y-59088392D01*
X47280554Y-59152039D01*
X47297608Y-59215687D01*
X47301008Y-59221575D01*
X47363500Y-59329814D01*
X47456686Y-59423000D01*
X47570814Y-59488892D01*
X47698108Y-59523000D01*
X47717456Y-59523000D01*
X47784495Y-59542685D01*
X47805137Y-59559319D01*
X53981181Y-65735362D01*
X54014666Y-65796685D01*
X54017500Y-65823043D01*
X54017500Y-89061643D01*
X54041386Y-89150787D01*
X54041387Y-89150790D01*
X54087527Y-89230708D01*
X54087531Y-89230713D01*
X57079637Y-92222819D01*
X57113122Y-92284142D01*
X57108138Y-92353834D01*
X57066266Y-92409767D01*
X57000802Y-92434184D01*
X56991956Y-92434500D01*
X48271676Y-92434500D01*
X48204637Y-92414815D01*
X48183995Y-92398181D01*
X48170316Y-92384502D01*
X48170314Y-92384500D01*
X48113250Y-92351554D01*
X48056187Y-92318608D01*
X47992539Y-92301554D01*
X47928892Y-92284500D01*
X47797108Y-92284500D01*
X47669812Y-92318608D01*
X47555686Y-92384500D01*
X47555683Y-92384502D01*
X47462502Y-92477683D01*
X47462500Y-92477686D01*
X47396608Y-92591812D01*
X47362500Y-92719108D01*
X47362500Y-92850891D01*
X47396608Y-92978187D01*
X47429554Y-93035250D01*
X47462500Y-93092314D01*
X47555686Y-93185500D01*
X47669814Y-93251392D01*
X47797108Y-93285500D01*
X47797110Y-93285500D01*
X47928890Y-93285500D01*
X47928892Y-93285500D01*
X48056186Y-93251392D01*
X48170314Y-93185500D01*
X48183995Y-93171819D01*
X48245318Y-93138334D01*
X48271676Y-93135500D01*
X56901456Y-93135500D01*
X56968495Y-93155185D01*
X56989137Y-93171819D01*
X67281181Y-103463862D01*
X67314666Y-103525185D01*
X67316190Y-103539364D01*
X67316439Y-103539332D01*
X67317500Y-103547391D01*
X67351608Y-103674687D01*
X67381915Y-103727179D01*
X67417500Y-103788814D01*
X67510686Y-103882000D01*
X67624814Y-103947892D01*
X67752108Y-103982000D01*
X67752110Y-103982000D01*
X67883890Y-103982000D01*
X67883892Y-103982000D01*
X68011186Y-103947892D01*
X68125314Y-103882000D01*
X68218500Y-103788814D01*
X68218613Y-103788617D01*
X68218749Y-103788487D01*
X68223448Y-103782365D01*
X68224402Y-103783097D01*
X68269178Y-103740403D01*
X68337785Y-103727179D01*
X68402650Y-103753146D01*
X68428201Y-103782633D01*
X68428552Y-103782365D01*
X68433064Y-103788246D01*
X68433386Y-103788616D01*
X68433500Y-103788814D01*
X68526686Y-103882000D01*
X68640814Y-103947892D01*
X68768108Y-103982000D01*
X68768110Y-103982000D01*
X68899890Y-103982000D01*
X68899892Y-103982000D01*
X69027186Y-103947892D01*
X69141314Y-103882000D01*
X69234500Y-103788814D01*
X69300392Y-103674686D01*
X69334500Y-103547392D01*
X69334500Y-103415608D01*
X69300392Y-103288314D01*
X69234500Y-103174186D01*
X69141314Y-103081000D01*
X69084250Y-103048054D01*
X69027187Y-103015108D01*
X68963539Y-102998054D01*
X68899892Y-102981000D01*
X68899891Y-102981000D01*
X68880543Y-102981000D01*
X68813504Y-102961315D01*
X68792862Y-102944681D01*
X66059675Y-100211494D01*
X67318000Y-100211494D01*
X67318000Y-100443505D01*
X67318001Y-100443522D01*
X67348283Y-100673540D01*
X67348286Y-100673553D01*
X67408336Y-100897667D01*
X67497124Y-101112021D01*
X67497132Y-101112038D01*
X67613136Y-101312961D01*
X67613142Y-101312969D01*
X67672117Y-101389827D01*
X68605037Y-100456908D01*
X68622075Y-100520493D01*
X68687901Y-100634507D01*
X68780993Y-100727599D01*
X68895007Y-100793425D01*
X68958591Y-100810462D01*
X68025671Y-101743381D01*
X68102530Y-101802357D01*
X68102538Y-101802363D01*
X68303461Y-101918367D01*
X68303478Y-101918375D01*
X68517832Y-102007163D01*
X68741946Y-102067213D01*
X68741959Y-102067216D01*
X68971977Y-102097498D01*
X68971995Y-102097500D01*
X69204005Y-102097500D01*
X69204022Y-102097498D01*
X69434040Y-102067216D01*
X69434053Y-102067213D01*
X69658167Y-102007163D01*
X69872521Y-101918375D01*
X69872538Y-101918367D01*
X70073475Y-101802355D01*
X70150327Y-101743383D01*
X70150327Y-101743380D01*
X69217408Y-100810462D01*
X69280993Y-100793425D01*
X69395007Y-100727599D01*
X69488099Y-100634507D01*
X69553925Y-100520493D01*
X69570962Y-100456908D01*
X70503880Y-101389827D01*
X70503883Y-101389827D01*
X70562855Y-101312975D01*
X70678867Y-101112038D01*
X70678875Y-101112021D01*
X70767663Y-100897667D01*
X70827713Y-100673553D01*
X70827716Y-100673540D01*
X70857998Y-100443522D01*
X70858000Y-100443505D01*
X70858000Y-100211494D01*
X70857998Y-100211477D01*
X70827716Y-99981459D01*
X70827713Y-99981446D01*
X70767663Y-99757332D01*
X70678875Y-99542978D01*
X70678867Y-99542961D01*
X70562863Y-99342038D01*
X70562857Y-99342030D01*
X70503881Y-99265171D01*
X69570962Y-100198090D01*
X69553925Y-100134507D01*
X69488099Y-100020493D01*
X69395007Y-99927401D01*
X69280993Y-99861575D01*
X69217409Y-99844537D01*
X70150327Y-98911617D01*
X70073469Y-98852642D01*
X70073461Y-98852636D01*
X69872538Y-98736632D01*
X69872521Y-98736624D01*
X69658167Y-98647836D01*
X69434053Y-98587786D01*
X69434040Y-98587783D01*
X69204022Y-98557501D01*
X69204005Y-98557500D01*
X68971995Y-98557500D01*
X68971977Y-98557501D01*
X68741959Y-98587783D01*
X68741946Y-98587786D01*
X68517832Y-98647836D01*
X68303478Y-98736624D01*
X68303461Y-98736632D01*
X68102541Y-98852634D01*
X68102533Y-98852640D01*
X68025671Y-98911616D01*
X68025671Y-98911617D01*
X68958591Y-99844537D01*
X68895007Y-99861575D01*
X68780993Y-99927401D01*
X68687901Y-100020493D01*
X68622075Y-100134507D01*
X68605037Y-100198090D01*
X67672117Y-99265171D01*
X67672116Y-99265171D01*
X67613140Y-99342033D01*
X67613134Y-99342041D01*
X67497132Y-99542961D01*
X67497124Y-99542978D01*
X67408336Y-99757332D01*
X67348286Y-99981446D01*
X67348283Y-99981459D01*
X67318001Y-100211477D01*
X67318000Y-100211494D01*
X66059675Y-100211494D01*
X64895432Y-99047251D01*
X61573768Y-95725587D01*
X54754819Y-88906637D01*
X54721334Y-88845314D01*
X54718500Y-88818956D01*
X54718500Y-65580358D01*
X54718500Y-65580356D01*
X54694614Y-65491212D01*
X54694611Y-65491206D01*
X54648473Y-65411294D01*
X54648470Y-65411291D01*
X54648469Y-65411288D01*
X54583212Y-65346031D01*
X52515122Y-63277941D01*
X50380292Y-61143110D01*
X48808676Y-59571494D01*
X67318000Y-59571494D01*
X67318000Y-59803505D01*
X67318001Y-59803522D01*
X67348283Y-60033540D01*
X67348286Y-60033553D01*
X67408336Y-60257667D01*
X67497124Y-60472021D01*
X67497132Y-60472038D01*
X67613136Y-60672961D01*
X67613142Y-60672969D01*
X67672117Y-60749827D01*
X68605037Y-59816908D01*
X68622075Y-59880493D01*
X68687901Y-59994507D01*
X68780993Y-60087599D01*
X68895007Y-60153425D01*
X68958591Y-60170462D01*
X68025671Y-61103381D01*
X68102530Y-61162357D01*
X68102538Y-61162363D01*
X68303461Y-61278367D01*
X68303478Y-61278375D01*
X68517832Y-61367163D01*
X68741946Y-61427213D01*
X68741959Y-61427216D01*
X68971977Y-61457498D01*
X68971995Y-61457500D01*
X69204005Y-61457500D01*
X69204022Y-61457498D01*
X69434040Y-61427216D01*
X69434053Y-61427213D01*
X69658167Y-61367163D01*
X69872521Y-61278375D01*
X69872538Y-61278367D01*
X69922176Y-61249708D01*
X73134100Y-61249708D01*
X73134100Y-61381491D01*
X73168208Y-61508787D01*
X73181047Y-61531024D01*
X73234100Y-61622914D01*
X73327286Y-61716100D01*
X73441414Y-61781992D01*
X73568708Y-61816100D01*
X73568710Y-61816100D01*
X73700490Y-61816100D01*
X73700492Y-61816100D01*
X73776533Y-61795725D01*
X73808626Y-61791500D01*
X76644326Y-61791500D01*
X76711365Y-61811185D01*
X76757120Y-61863989D01*
X76767064Y-61933147D01*
X76738039Y-61996703D01*
X76706327Y-62022887D01*
X76676686Y-62040000D01*
X76676683Y-62040002D01*
X76583502Y-62133183D01*
X76583500Y-62133186D01*
X76517608Y-62247312D01*
X76483500Y-62374608D01*
X76483500Y-62506391D01*
X76484302Y-62512483D01*
X76484303Y-62535229D01*
X76484500Y-62535229D01*
X76484500Y-65659500D01*
X76464815Y-65726539D01*
X76412011Y-65772294D01*
X76360500Y-65783500D01*
X73660000Y-65783500D01*
X73660000Y-73403500D01*
X76360500Y-73403500D01*
X76427539Y-73423185D01*
X76473294Y-73475989D01*
X76484500Y-73527500D01*
X76484500Y-104345324D01*
X76464815Y-104412363D01*
X76448181Y-104433005D01*
X76434502Y-104446683D01*
X76434500Y-104446686D01*
X76368608Y-104560812D01*
X76334500Y-104688108D01*
X76334500Y-104819891D01*
X76368608Y-104947187D01*
X76401554Y-105004250D01*
X76434500Y-105061314D01*
X76527686Y-105154500D01*
X76641814Y-105220392D01*
X76769108Y-105254500D01*
X76769110Y-105254500D01*
X76900890Y-105254500D01*
X76900892Y-105254500D01*
X77028186Y-105220392D01*
X77142314Y-105154500D01*
X77235500Y-105061314D01*
X77301392Y-104947186D01*
X77335500Y-104819892D01*
X77335500Y-104688108D01*
X77301392Y-104560814D01*
X77235500Y-104446686D01*
X77221819Y-104433005D01*
X77188334Y-104371682D01*
X77185500Y-104345324D01*
X77185500Y-100211769D01*
X85397500Y-100211769D01*
X85397500Y-100443231D01*
X85397546Y-100443522D01*
X85433709Y-100671844D01*
X85505232Y-100891973D01*
X85505233Y-100891976D01*
X85610318Y-101098213D01*
X85746359Y-101285459D01*
X85746363Y-101285464D01*
X85910035Y-101449136D01*
X85910040Y-101449140D01*
X86073366Y-101567802D01*
X86097290Y-101585184D01*
X86232106Y-101653876D01*
X86303523Y-101690266D01*
X86303526Y-101690267D01*
X86413590Y-101726028D01*
X86523657Y-101761791D01*
X86752269Y-101798000D01*
X86752270Y-101798000D01*
X86983730Y-101798000D01*
X86983731Y-101798000D01*
X87212343Y-101761791D01*
X87432476Y-101690266D01*
X87638710Y-101585184D01*
X87825966Y-101449135D01*
X87989635Y-101285466D01*
X88125684Y-101098210D01*
X88230766Y-100891976D01*
X88302291Y-100671843D01*
X88338500Y-100443231D01*
X88338500Y-100211769D01*
X88302291Y-99983157D01*
X88262787Y-99861575D01*
X88230767Y-99763026D01*
X88230766Y-99763023D01*
X88194376Y-99691606D01*
X88125684Y-99556790D01*
X88108302Y-99532866D01*
X87989640Y-99369540D01*
X87989636Y-99369535D01*
X87825964Y-99205863D01*
X87825959Y-99205859D01*
X87638713Y-99069818D01*
X87638712Y-99069817D01*
X87638710Y-99069816D01*
X87572638Y-99036150D01*
X87432476Y-98964733D01*
X87432473Y-98964732D01*
X87212344Y-98893209D01*
X87098037Y-98875104D01*
X86983731Y-98857000D01*
X86752269Y-98857000D01*
X86676065Y-98869069D01*
X86523655Y-98893209D01*
X86303526Y-98964732D01*
X86303523Y-98964733D01*
X86097286Y-99069818D01*
X85910040Y-99205859D01*
X85910035Y-99205863D01*
X85746363Y-99369535D01*
X85746359Y-99369540D01*
X85610318Y-99556786D01*
X85505233Y-99763023D01*
X85505232Y-99763026D01*
X85433709Y-99983155D01*
X85433709Y-99983157D01*
X85397500Y-100211769D01*
X77185500Y-100211769D01*
X77185500Y-73527500D01*
X77205185Y-73460461D01*
X77257989Y-73414706D01*
X77309500Y-73403500D01*
X81788000Y-73403500D01*
X81788000Y-73403499D01*
X81534000Y-65783500D01*
X77309500Y-65783500D01*
X77242461Y-65763815D01*
X77196706Y-65711011D01*
X77185500Y-65659500D01*
X77185500Y-62973682D01*
X77205185Y-62906643D01*
X77247500Y-62866295D01*
X77291314Y-62841000D01*
X77384500Y-62747814D01*
X77450392Y-62633686D01*
X77484500Y-62506392D01*
X77484500Y-62374608D01*
X77450392Y-62247314D01*
X77384500Y-62133186D01*
X77291314Y-62040000D01*
X77261672Y-62022886D01*
X77213458Y-61972319D01*
X77200236Y-61903712D01*
X77226204Y-61838848D01*
X77283118Y-61798320D01*
X77323674Y-61791500D01*
X83965535Y-61791500D01*
X84032574Y-61811185D01*
X84053216Y-61827819D01*
X86508181Y-64282784D01*
X86541666Y-64344107D01*
X86544500Y-64370465D01*
X86544500Y-66802062D01*
X86530383Y-66854751D01*
X86531719Y-66855304D01*
X86528608Y-66862814D01*
X86494500Y-66990108D01*
X86494500Y-67121891D01*
X86528608Y-67249187D01*
X86561554Y-67306250D01*
X86594500Y-67363314D01*
X86687686Y-67456500D01*
X86801814Y-67522392D01*
X86929108Y-67556500D01*
X86929110Y-67556500D01*
X87060890Y-67556500D01*
X87060892Y-67556500D01*
X87188186Y-67522392D01*
X87302314Y-67456500D01*
X87395500Y-67363314D01*
X87461392Y-67249186D01*
X87495500Y-67121892D01*
X87495500Y-66990108D01*
X87461392Y-66862814D01*
X87461388Y-66862807D01*
X87458281Y-66855304D01*
X87459616Y-66854751D01*
X87445500Y-66802062D01*
X87445500Y-64073193D01*
X87445500Y-64073191D01*
X87414799Y-63958614D01*
X87414799Y-63958613D01*
X87355489Y-63855886D01*
X84480114Y-60980511D01*
X84428750Y-60950856D01*
X84377388Y-60921201D01*
X84365280Y-60917957D01*
X84353173Y-60914713D01*
X84353170Y-60914712D01*
X84314978Y-60904478D01*
X84262809Y-60890500D01*
X84262808Y-60890500D01*
X73932531Y-60890500D01*
X73870531Y-60873887D01*
X73827788Y-60849209D01*
X73827787Y-60849208D01*
X73827786Y-60849208D01*
X73700492Y-60815100D01*
X73568708Y-60815100D01*
X73441412Y-60849208D01*
X73327286Y-60915100D01*
X73327283Y-60915102D01*
X73234102Y-61008283D01*
X73234100Y-61008286D01*
X73168208Y-61122412D01*
X73134100Y-61249708D01*
X69922176Y-61249708D01*
X70073475Y-61162355D01*
X70098425Y-61143210D01*
X70098430Y-61143206D01*
X70150327Y-61103382D01*
X70150327Y-61103380D01*
X69217408Y-60170462D01*
X69280993Y-60153425D01*
X69395007Y-60087599D01*
X69488099Y-59994507D01*
X69553925Y-59880493D01*
X69570962Y-59816908D01*
X70503880Y-60749827D01*
X70503883Y-60749827D01*
X70562855Y-60672975D01*
X70678867Y-60472038D01*
X70678875Y-60472021D01*
X70767663Y-60257667D01*
X70827713Y-60033553D01*
X70827716Y-60033540D01*
X70857998Y-59803522D01*
X70858000Y-59803505D01*
X70858000Y-59571494D01*
X70857998Y-59571477D01*
X70827716Y-59341459D01*
X70827713Y-59341446D01*
X70767663Y-59117332D01*
X70678875Y-58902978D01*
X70678867Y-58902961D01*
X70562863Y-58702038D01*
X70562857Y-58702030D01*
X70503881Y-58625171D01*
X69570962Y-59558090D01*
X69553925Y-59494507D01*
X69488099Y-59380493D01*
X69395007Y-59287401D01*
X69280993Y-59221575D01*
X69217409Y-59204537D01*
X70024198Y-58397747D01*
X85397500Y-58397747D01*
X85397500Y-60977252D01*
X85409131Y-61035729D01*
X85409132Y-61035730D01*
X85453447Y-61102052D01*
X85519769Y-61146367D01*
X85519770Y-61146368D01*
X85578247Y-61157999D01*
X85578250Y-61158000D01*
X85578252Y-61158000D01*
X88157750Y-61158000D01*
X88157751Y-61157999D01*
X88172568Y-61155052D01*
X88216229Y-61146368D01*
X88216229Y-61146367D01*
X88216231Y-61146367D01*
X88282552Y-61102052D01*
X88326867Y-61035731D01*
X88326867Y-61035729D01*
X88326868Y-61035729D01*
X88335552Y-60992068D01*
X88338500Y-60977248D01*
X88338500Y-58397752D01*
X88338500Y-58397749D01*
X88338499Y-58397747D01*
X88326868Y-58339270D01*
X88326867Y-58339269D01*
X88282552Y-58272947D01*
X88216230Y-58228632D01*
X88216229Y-58228631D01*
X88157752Y-58217000D01*
X88157748Y-58217000D01*
X85578252Y-58217000D01*
X85578247Y-58217000D01*
X85519770Y-58228631D01*
X85519769Y-58228632D01*
X85453447Y-58272947D01*
X85409132Y-58339269D01*
X85409131Y-58339270D01*
X85397500Y-58397747D01*
X70024198Y-58397747D01*
X70117966Y-58303979D01*
X70150327Y-58271617D01*
X70073469Y-58212642D01*
X70073461Y-58212636D01*
X69872538Y-58096632D01*
X69872521Y-58096624D01*
X69658167Y-58007836D01*
X69434053Y-57947786D01*
X69434040Y-57947783D01*
X69204022Y-57917501D01*
X69204005Y-57917500D01*
X68971995Y-57917500D01*
X68971977Y-57917501D01*
X68741959Y-57947783D01*
X68741946Y-57947786D01*
X68517832Y-58007836D01*
X68303478Y-58096624D01*
X68303461Y-58096632D01*
X68102541Y-58212634D01*
X68102533Y-58212640D01*
X68025671Y-58271616D01*
X68025671Y-58271617D01*
X68958591Y-59204537D01*
X68895007Y-59221575D01*
X68780993Y-59287401D01*
X68687901Y-59380493D01*
X68622075Y-59494507D01*
X68605037Y-59558090D01*
X67672117Y-58625171D01*
X67672116Y-58625171D01*
X67613140Y-58702033D01*
X67613134Y-58702041D01*
X67497132Y-58902961D01*
X67497124Y-58902978D01*
X67408336Y-59117332D01*
X67348286Y-59341446D01*
X67348283Y-59341459D01*
X67318001Y-59571477D01*
X67318000Y-59571494D01*
X48808676Y-59571494D01*
X48300819Y-59063637D01*
X48267334Y-59002314D01*
X48264500Y-58975956D01*
X48264500Y-58956610D01*
X48264500Y-58956608D01*
X48230392Y-58829314D01*
X48164500Y-58715186D01*
X48071314Y-58622000D01*
X48014250Y-58589054D01*
X47957187Y-58556108D01*
X47893539Y-58539054D01*
X47829892Y-58522000D01*
X47698108Y-58522000D01*
X47570812Y-58556108D01*
X47456686Y-58622000D01*
X47456683Y-58622002D01*
X47363502Y-58715183D01*
X47363500Y-58715186D01*
X47297608Y-58829312D01*
X47277870Y-58902978D01*
X47263500Y-58956608D01*
X44509500Y-58956608D01*
X44509500Y-58937249D01*
X44509499Y-58937247D01*
X44497868Y-58878770D01*
X44497867Y-58878769D01*
X44453552Y-58812447D01*
X44387230Y-58768132D01*
X44387229Y-58768131D01*
X44328752Y-58756500D01*
X44328748Y-58756500D01*
X42589252Y-58756500D01*
X42589247Y-58756500D01*
X42530770Y-58768131D01*
X42530769Y-58768132D01*
X42464447Y-58812447D01*
X42420132Y-58878769D01*
X42420131Y-58878770D01*
X42408500Y-58937247D01*
X40178500Y-58937247D01*
X40178500Y-57247000D01*
X41922000Y-57247000D01*
X50050000Y-57247000D01*
X50050000Y-57246999D01*
X49796000Y-49627000D01*
X41922000Y-49627000D01*
X41922000Y-57247000D01*
X40178500Y-57247000D01*
X40178500Y-45761730D01*
X46638500Y-45761730D01*
X46638500Y-47710269D01*
X46641353Y-47740699D01*
X46641353Y-47740701D01*
X46686206Y-47868880D01*
X46686207Y-47868882D01*
X46766850Y-47978150D01*
X46876118Y-48058793D01*
X46918845Y-48073744D01*
X47004299Y-48103646D01*
X47034730Y-48106500D01*
X47034734Y-48106500D01*
X50243270Y-48106500D01*
X50273699Y-48103646D01*
X50273701Y-48103646D01*
X50355479Y-48075030D01*
X50401882Y-48058793D01*
X50511150Y-47978150D01*
X50591793Y-47868882D01*
X50627889Y-47765726D01*
X50636646Y-47740701D01*
X50636646Y-47740699D01*
X50639500Y-47710269D01*
X50639500Y-45761730D01*
X50636646Y-45731300D01*
X50636646Y-45731298D01*
X50591793Y-45603119D01*
X50591792Y-45603117D01*
X50511150Y-45493850D01*
X50401882Y-45413207D01*
X50401880Y-45413206D01*
X50273700Y-45368353D01*
X50243270Y-45365500D01*
X50243266Y-45365500D01*
X47034734Y-45365500D01*
X47034730Y-45365500D01*
X47004300Y-45368353D01*
X47004298Y-45368353D01*
X46876119Y-45413206D01*
X46876117Y-45413207D01*
X46766850Y-45493850D01*
X46686207Y-45603117D01*
X46686206Y-45603119D01*
X46641353Y-45731298D01*
X46641353Y-45731300D01*
X46638500Y-45761730D01*
X40178500Y-45761730D01*
X40178500Y-36637108D01*
X45981500Y-36637108D01*
X45981500Y-36768891D01*
X46015608Y-36896187D01*
X46048554Y-36953250D01*
X46081500Y-37010314D01*
X46174686Y-37103500D01*
X46288814Y-37169392D01*
X46288816Y-37169392D01*
X46296326Y-37172504D01*
X46295771Y-37173841D01*
X46343010Y-37201113D01*
X49253386Y-40111489D01*
X49356113Y-40170799D01*
X49380321Y-40177284D01*
X49380324Y-40177286D01*
X49380325Y-40177286D01*
X49410447Y-40185357D01*
X49470691Y-40201500D01*
X53213063Y-40201500D01*
X53265750Y-40215618D01*
X53266304Y-40214281D01*
X53273807Y-40217388D01*
X53273814Y-40217392D01*
X53401108Y-40251500D01*
X53401110Y-40251500D01*
X53532890Y-40251500D01*
X53532892Y-40251500D01*
X53660186Y-40217392D01*
X53774314Y-40151500D01*
X53867500Y-40058314D01*
X53933392Y-39944186D01*
X53967500Y-39816892D01*
X53967500Y-39685108D01*
X53933392Y-39557814D01*
X53867500Y-39443686D01*
X53774314Y-39350500D01*
X53687712Y-39300500D01*
X53660187Y-39284608D01*
X53596539Y-39267554D01*
X53532892Y-39250500D01*
X53401108Y-39250500D01*
X53273814Y-39284608D01*
X53266304Y-39287719D01*
X53265750Y-39286381D01*
X53213063Y-39300500D01*
X49767965Y-39300500D01*
X49738524Y-39291855D01*
X49708538Y-39285332D01*
X49703522Y-39281577D01*
X49700926Y-39280815D01*
X49680284Y-39264181D01*
X49459628Y-39043525D01*
X55776500Y-39043525D01*
X55776500Y-39188475D01*
X55814016Y-39328485D01*
X55814017Y-39328488D01*
X55886488Y-39454011D01*
X55886490Y-39454013D01*
X55886491Y-39454015D01*
X55988985Y-39556509D01*
X55988986Y-39556510D01*
X55988988Y-39556511D01*
X56114511Y-39628982D01*
X56114512Y-39628982D01*
X56114515Y-39628984D01*
X56203154Y-39652734D01*
X56262813Y-39689099D01*
X56293342Y-39751946D01*
X56295059Y-39772509D01*
X56295059Y-48339121D01*
X56306033Y-48380077D01*
X56315537Y-48415546D01*
X56334540Y-48448460D01*
X56355098Y-48484068D01*
X56355100Y-48484071D01*
X57366181Y-49495152D01*
X57399666Y-49556475D01*
X57402500Y-49582833D01*
X57402500Y-49584525D01*
X57402500Y-49729475D01*
X57440016Y-49869485D01*
X57440017Y-49869488D01*
X57512488Y-49995011D01*
X57512490Y-49995013D01*
X57512491Y-49995015D01*
X57614985Y-50097509D01*
X57614986Y-50097510D01*
X57614988Y-50097511D01*
X57740511Y-50169982D01*
X57740512Y-50169982D01*
X57740515Y-50169984D01*
X57880525Y-50207500D01*
X57880528Y-50207500D01*
X58025472Y-50207500D01*
X58025475Y-50207500D01*
X58165485Y-50169984D01*
X58291015Y-50097509D01*
X58340319Y-50048205D01*
X58401642Y-50014720D01*
X58471334Y-50019704D01*
X58515681Y-50048205D01*
X58564985Y-50097509D01*
X58564986Y-50097510D01*
X58564988Y-50097511D01*
X58690511Y-50169982D01*
X58690512Y-50169982D01*
X58690515Y-50169984D01*
X58830525Y-50207500D01*
X58830528Y-50207500D01*
X58975472Y-50207500D01*
X58975475Y-50207500D01*
X59115485Y-50169984D01*
X59241015Y-50097509D01*
X59343509Y-49995015D01*
X59415984Y-49869485D01*
X59453500Y-49729475D01*
X59453500Y-49584525D01*
X59415984Y-49444515D01*
X59386008Y-49392596D01*
X59343511Y-49318988D01*
X59343506Y-49318982D01*
X59241017Y-49216493D01*
X59241011Y-49216488D01*
X59115488Y-49144017D01*
X59115489Y-49144017D01*
X59104006Y-49140940D01*
X58975475Y-49106500D01*
X58830525Y-49106500D01*
X58828833Y-49106500D01*
X58761794Y-49086815D01*
X58741152Y-49070181D01*
X57382380Y-47711409D01*
X57348895Y-47650086D01*
X57346061Y-47623728D01*
X57346061Y-45457155D01*
X65579000Y-45457155D01*
X65579000Y-46105000D01*
X66495988Y-46105000D01*
X66463075Y-46162007D01*
X66429000Y-46289174D01*
X66429000Y-46420826D01*
X66463075Y-46547993D01*
X66495988Y-46605000D01*
X65579000Y-46605000D01*
X65579000Y-47252844D01*
X65585401Y-47312372D01*
X65585403Y-47312379D01*
X65635645Y-47447086D01*
X65635649Y-47447093D01*
X65721809Y-47562187D01*
X65721812Y-47562190D01*
X65836906Y-47648350D01*
X65836913Y-47648354D01*
X65971620Y-47698596D01*
X65971627Y-47698598D01*
X66031155Y-47704999D01*
X66031172Y-47705000D01*
X66433435Y-47705000D01*
X66500474Y-47724685D01*
X66546229Y-47777489D01*
X66556173Y-47846647D01*
X66527148Y-47910203D01*
X66480888Y-47943561D01*
X66431403Y-47964058D01*
X66259342Y-48079024D01*
X66113024Y-48225342D01*
X65998058Y-48397403D01*
X65918870Y-48588579D01*
X65918868Y-48588587D01*
X65878500Y-48791530D01*
X65878500Y-48998469D01*
X65918868Y-49201412D01*
X65918870Y-49201420D01*
X65998058Y-49392596D01*
X66113024Y-49564657D01*
X66259342Y-49710975D01*
X66259345Y-49710977D01*
X66431402Y-49825941D01*
X66622580Y-49905130D01*
X66825530Y-49945499D01*
X66825534Y-49945500D01*
X66825535Y-49945500D01*
X67032466Y-49945500D01*
X67032467Y-49945499D01*
X67235420Y-49905130D01*
X67426598Y-49825941D01*
X67598655Y-49710977D01*
X67744977Y-49564655D01*
X67859941Y-49392598D01*
X67939130Y-49201420D01*
X67979500Y-48998465D01*
X67979500Y-48791535D01*
X67939130Y-48588580D01*
X67859941Y-48397402D01*
X67744977Y-48225345D01*
X67744975Y-48225342D01*
X67598657Y-48079024D01*
X67512626Y-48021541D01*
X67426598Y-47964059D01*
X67377112Y-47943561D01*
X67322709Y-47899720D01*
X67300644Y-47833426D01*
X67317923Y-47765726D01*
X67369061Y-47718116D01*
X67424565Y-47705000D01*
X67826828Y-47705000D01*
X67826844Y-47704999D01*
X67886372Y-47698598D01*
X67886379Y-47698596D01*
X68021086Y-47648354D01*
X68021093Y-47648350D01*
X68136187Y-47562190D01*
X68136190Y-47562187D01*
X68222350Y-47447093D01*
X68222354Y-47447086D01*
X68272596Y-47312379D01*
X68272598Y-47312372D01*
X68278999Y-47252844D01*
X68279000Y-47252827D01*
X68279000Y-46605000D01*
X67362012Y-46605000D01*
X67394925Y-46547993D01*
X67429000Y-46420826D01*
X67429000Y-46289174D01*
X67394925Y-46162007D01*
X67362012Y-46105000D01*
X68279000Y-46105000D01*
X68279000Y-45457172D01*
X68278999Y-45457155D01*
X68272598Y-45397627D01*
X68272596Y-45397620D01*
X68222354Y-45262913D01*
X68222350Y-45262906D01*
X68136190Y-45147812D01*
X68136187Y-45147809D01*
X68021093Y-45061649D01*
X68021086Y-45061645D01*
X67886379Y-45011403D01*
X67886372Y-45011401D01*
X67826844Y-45005000D01*
X67179000Y-45005000D01*
X67179000Y-45921988D01*
X67121993Y-45889075D01*
X66994826Y-45855000D01*
X66863174Y-45855000D01*
X66736007Y-45889075D01*
X66679000Y-45921988D01*
X66679000Y-45005000D01*
X66031155Y-45005000D01*
X65971627Y-45011401D01*
X65971620Y-45011403D01*
X65836913Y-45061645D01*
X65836906Y-45061649D01*
X65721812Y-45147809D01*
X65721809Y-45147812D01*
X65635649Y-45262906D01*
X65635645Y-45262913D01*
X65585403Y-45397620D01*
X65585401Y-45397627D01*
X65579000Y-45457155D01*
X57346061Y-45457155D01*
X57346061Y-41343470D01*
X57365746Y-41276431D01*
X57418550Y-41230676D01*
X57487708Y-41220732D01*
X57532060Y-41236082D01*
X57585540Y-41266959D01*
X57725550Y-41304475D01*
X57725553Y-41304475D01*
X57870497Y-41304475D01*
X57870500Y-41304475D01*
X58010510Y-41266959D01*
X58136040Y-41194484D01*
X58238534Y-41091990D01*
X58311009Y-40966460D01*
X58348525Y-40826450D01*
X58348525Y-40750518D01*
X58368210Y-40683479D01*
X58384844Y-40662837D01*
X58456110Y-40591571D01*
X58573469Y-40474212D01*
X58619614Y-40394288D01*
X58643500Y-40305144D01*
X58643500Y-39418424D01*
X64423500Y-39418424D01*
X64423500Y-40591575D01*
X64461178Y-40780993D01*
X64461181Y-40781005D01*
X64535088Y-40959434D01*
X64535095Y-40959447D01*
X64642395Y-41120031D01*
X64642398Y-41120035D01*
X64778964Y-41256601D01*
X64778968Y-41256604D01*
X64939552Y-41363904D01*
X64939565Y-41363911D01*
X65117994Y-41437818D01*
X65117999Y-41437820D01*
X65307424Y-41475499D01*
X65307427Y-41475500D01*
X65307429Y-41475500D01*
X65500573Y-41475500D01*
X65500574Y-41475499D01*
X65690001Y-41437820D01*
X65868441Y-41363908D01*
X66029032Y-41256604D01*
X66165604Y-41120032D01*
X66272908Y-40959441D01*
X66346820Y-40781001D01*
X66384500Y-40591571D01*
X66384500Y-39418429D01*
X66384500Y-39418426D01*
X66384499Y-39418424D01*
X69123500Y-39418424D01*
X69123500Y-40591575D01*
X69161178Y-40780993D01*
X69161181Y-40781005D01*
X69235088Y-40959434D01*
X69235095Y-40959447D01*
X69342395Y-41120031D01*
X69342398Y-41120035D01*
X69478964Y-41256601D01*
X69478968Y-41256604D01*
X69639552Y-41363904D01*
X69639565Y-41363911D01*
X69817994Y-41437818D01*
X69817999Y-41437820D01*
X70007424Y-41475499D01*
X70007427Y-41475500D01*
X70007429Y-41475500D01*
X70200573Y-41475500D01*
X70200574Y-41475499D01*
X70390001Y-41437820D01*
X70568441Y-41363908D01*
X70729032Y-41256604D01*
X70865604Y-41120032D01*
X70972908Y-40959441D01*
X71046820Y-40781001D01*
X71084500Y-40591571D01*
X71084500Y-39418429D01*
X71084500Y-39418426D01*
X71084499Y-39418424D01*
X73823500Y-39418424D01*
X73823500Y-40591575D01*
X73861178Y-40780993D01*
X73861181Y-40781005D01*
X73935088Y-40959434D01*
X73935095Y-40959447D01*
X74042395Y-41120031D01*
X74042398Y-41120035D01*
X74178964Y-41256601D01*
X74178968Y-41256604D01*
X74339552Y-41363904D01*
X74339565Y-41363911D01*
X74517994Y-41437818D01*
X74517999Y-41437820D01*
X74707424Y-41475499D01*
X74707427Y-41475500D01*
X74707429Y-41475500D01*
X74900573Y-41475500D01*
X74900574Y-41475499D01*
X75090001Y-41437820D01*
X75268441Y-41363908D01*
X75429032Y-41256604D01*
X75565604Y-41120032D01*
X75672908Y-40959441D01*
X75746820Y-40781001D01*
X75784500Y-40591571D01*
X75784500Y-39888882D01*
X77550500Y-39888882D01*
X77550500Y-41803118D01*
X77553249Y-41849263D01*
X77553249Y-41849267D01*
X77553250Y-41849268D01*
X77596907Y-42049961D01*
X77596909Y-42049968D01*
X77677760Y-42238771D01*
X77677763Y-42238777D01*
X77677766Y-42238781D01*
X77792882Y-42408868D01*
X77792890Y-42408877D01*
X77938122Y-42554109D01*
X77938131Y-42554117D01*
X78040849Y-42623637D01*
X78108223Y-42669237D01*
X78108228Y-42669239D01*
X78297031Y-42750090D01*
X78297038Y-42750092D01*
X78363935Y-42764644D01*
X78497737Y-42793751D01*
X78543882Y-42796500D01*
X78543893Y-42796500D01*
X80458107Y-42796500D01*
X80458118Y-42796500D01*
X80504263Y-42793751D01*
X80679954Y-42755531D01*
X80704961Y-42750092D01*
X80704968Y-42750090D01*
X80767902Y-42723139D01*
X80893777Y-42669237D01*
X81063875Y-42554112D01*
X81209112Y-42408875D01*
X81324237Y-42238777D01*
X81393836Y-42076249D01*
X81393837Y-42076247D01*
X82250500Y-42076247D01*
X82250500Y-45615752D01*
X82262131Y-45674229D01*
X82262132Y-45674230D01*
X82306447Y-45740552D01*
X82372769Y-45784867D01*
X82372770Y-45784868D01*
X82431247Y-45796499D01*
X82431250Y-45796500D01*
X82431252Y-45796500D01*
X85970750Y-45796500D01*
X85970751Y-45796499D01*
X85985568Y-45793552D01*
X86029229Y-45784868D01*
X86029229Y-45784867D01*
X86029231Y-45784867D01*
X86095552Y-45740552D01*
X86139867Y-45674231D01*
X86139867Y-45674229D01*
X86139868Y-45674229D01*
X86151499Y-45615752D01*
X86151500Y-45615750D01*
X86151500Y-42076249D01*
X86151499Y-42076247D01*
X86139868Y-42017770D01*
X86139867Y-42017769D01*
X86095552Y-41951447D01*
X86029230Y-41907132D01*
X86029229Y-41907131D01*
X85970752Y-41895500D01*
X85970748Y-41895500D01*
X82431252Y-41895500D01*
X82431247Y-41895500D01*
X82372770Y-41907131D01*
X82372769Y-41907132D01*
X82306447Y-41951447D01*
X82262132Y-42017769D01*
X82262131Y-42017770D01*
X82250500Y-42076247D01*
X81393837Y-42076247D01*
X81405090Y-42049968D01*
X81405090Y-42049967D01*
X81405091Y-42049965D01*
X81448751Y-41849263D01*
X81451500Y-41803118D01*
X81451500Y-39888882D01*
X81448751Y-39842737D01*
X81414996Y-39687568D01*
X81405092Y-39642038D01*
X81405090Y-39642031D01*
X81324239Y-39453228D01*
X81324237Y-39453223D01*
X81254714Y-39350502D01*
X81209117Y-39283131D01*
X81209109Y-39283122D01*
X81063877Y-39137890D01*
X81063868Y-39137882D01*
X80893781Y-39022766D01*
X80893777Y-39022763D01*
X80893773Y-39022761D01*
X80893771Y-39022760D01*
X80704968Y-38941909D01*
X80704961Y-38941907D01*
X80504268Y-38898250D01*
X80504267Y-38898249D01*
X80504263Y-38898249D01*
X80458118Y-38895500D01*
X78543882Y-38895500D01*
X78497737Y-38898249D01*
X78497732Y-38898249D01*
X78497731Y-38898250D01*
X78297038Y-38941907D01*
X78297031Y-38941909D01*
X78108228Y-39022760D01*
X78108218Y-39022766D01*
X77938131Y-39137882D01*
X77938122Y-39137890D01*
X77792890Y-39283122D01*
X77792882Y-39283131D01*
X77677766Y-39453218D01*
X77677760Y-39453228D01*
X77596909Y-39642031D01*
X77596907Y-39642038D01*
X77553250Y-39842731D01*
X77553249Y-39842737D01*
X77550500Y-39888882D01*
X75784500Y-39888882D01*
X75784500Y-39418429D01*
X75784500Y-39418426D01*
X75784499Y-39418424D01*
X75770988Y-39350500D01*
X75746820Y-39228999D01*
X75732069Y-39193386D01*
X75672911Y-39050565D01*
X75672904Y-39050552D01*
X75565604Y-38889968D01*
X75565601Y-38889964D01*
X75429035Y-38753398D01*
X75429031Y-38753395D01*
X75268447Y-38646095D01*
X75268434Y-38646088D01*
X75090005Y-38572181D01*
X75089993Y-38572178D01*
X74900574Y-38534500D01*
X74900571Y-38534500D01*
X74707429Y-38534500D01*
X74707426Y-38534500D01*
X74518006Y-38572178D01*
X74517994Y-38572181D01*
X74339565Y-38646088D01*
X74339552Y-38646095D01*
X74178968Y-38753395D01*
X74178964Y-38753398D01*
X74042398Y-38889964D01*
X74042395Y-38889968D01*
X73935095Y-39050552D01*
X73935088Y-39050565D01*
X73861181Y-39228994D01*
X73861178Y-39229006D01*
X73823500Y-39418424D01*
X71084499Y-39418424D01*
X71070988Y-39350500D01*
X71046820Y-39228999D01*
X71032069Y-39193386D01*
X70972911Y-39050565D01*
X70972904Y-39050552D01*
X70865604Y-38889968D01*
X70865601Y-38889964D01*
X70729035Y-38753398D01*
X70729031Y-38753395D01*
X70568447Y-38646095D01*
X70568434Y-38646088D01*
X70390005Y-38572181D01*
X70389993Y-38572178D01*
X70200574Y-38534500D01*
X70200571Y-38534500D01*
X70007429Y-38534500D01*
X70007426Y-38534500D01*
X69818006Y-38572178D01*
X69817994Y-38572181D01*
X69639565Y-38646088D01*
X69639552Y-38646095D01*
X69478968Y-38753395D01*
X69478964Y-38753398D01*
X69342398Y-38889964D01*
X69342395Y-38889968D01*
X69235095Y-39050552D01*
X69235088Y-39050565D01*
X69161181Y-39228994D01*
X69161178Y-39229006D01*
X69123500Y-39418424D01*
X66384499Y-39418424D01*
X66370988Y-39350500D01*
X66346820Y-39228999D01*
X66332069Y-39193386D01*
X66272911Y-39050565D01*
X66272904Y-39050552D01*
X66165604Y-38889968D01*
X66165601Y-38889964D01*
X66029035Y-38753398D01*
X66029031Y-38753395D01*
X65868447Y-38646095D01*
X65868434Y-38646088D01*
X65690005Y-38572181D01*
X65689993Y-38572178D01*
X65500574Y-38534500D01*
X65500571Y-38534500D01*
X65307429Y-38534500D01*
X65307426Y-38534500D01*
X65118006Y-38572178D01*
X65117994Y-38572181D01*
X64939565Y-38646088D01*
X64939552Y-38646095D01*
X64778968Y-38753395D01*
X64778964Y-38753398D01*
X64642398Y-38889964D01*
X64642395Y-38889968D01*
X64535095Y-39050552D01*
X64535088Y-39050565D01*
X64461181Y-39228994D01*
X64461178Y-39229006D01*
X64423500Y-39418424D01*
X58643500Y-39418424D01*
X58643500Y-39193386D01*
X58663185Y-39126347D01*
X58679819Y-39105705D01*
X58734509Y-39051015D01*
X58806984Y-38925485D01*
X58844500Y-38785475D01*
X58844500Y-38640525D01*
X58806984Y-38500515D01*
X58734509Y-38374985D01*
X58632015Y-38272491D01*
X58632013Y-38272490D01*
X58632011Y-38272488D01*
X58506488Y-38200017D01*
X58506489Y-38200017D01*
X58495006Y-38196940D01*
X58366475Y-38162500D01*
X58221525Y-38162500D01*
X58092993Y-38196940D01*
X58081511Y-38200017D01*
X57955988Y-38272488D01*
X57955982Y-38272493D01*
X57853493Y-38374982D01*
X57853488Y-38374988D01*
X57781017Y-38500511D01*
X57781016Y-38500515D01*
X57761814Y-38572180D01*
X57759998Y-38578956D01*
X57723632Y-38638616D01*
X57660785Y-38669145D01*
X57591410Y-38660850D01*
X57578228Y-38654252D01*
X57489485Y-38603016D01*
X57349475Y-38565500D01*
X57204525Y-38565500D01*
X57075993Y-38599940D01*
X57064511Y-38603017D01*
X56938988Y-38675488D01*
X56938982Y-38675493D01*
X56889681Y-38724795D01*
X56828358Y-38758280D01*
X56758666Y-38753296D01*
X56714319Y-38724795D01*
X56665017Y-38675493D01*
X56665011Y-38675488D01*
X56539488Y-38603017D01*
X56539489Y-38603017D01*
X56528006Y-38599940D01*
X56399475Y-38565500D01*
X56254525Y-38565500D01*
X56125993Y-38599940D01*
X56114511Y-38603017D01*
X55988988Y-38675488D01*
X55988982Y-38675493D01*
X55886493Y-38777982D01*
X55886488Y-38777988D01*
X55814017Y-38903511D01*
X55814016Y-38903515D01*
X55776500Y-39043525D01*
X49459628Y-39043525D01*
X46980113Y-36564010D01*
X46958948Y-36535731D01*
X46951852Y-36522729D01*
X46948392Y-36509814D01*
X46882500Y-36395686D01*
X46827307Y-36340493D01*
X51414000Y-36340493D01*
X51414000Y-36681000D01*
X52314000Y-36681000D01*
X52314000Y-37181000D01*
X51414000Y-37181000D01*
X51414000Y-37521506D01*
X51442317Y-37700293D01*
X51498251Y-37872444D01*
X51498252Y-37872447D01*
X51580434Y-38033734D01*
X51686823Y-38180169D01*
X51814830Y-38308176D01*
X51961265Y-38414565D01*
X52122552Y-38496747D01*
X52122555Y-38496748D01*
X52294699Y-38552680D01*
X52294712Y-38552683D01*
X52314000Y-38555738D01*
X52314000Y-37530728D01*
X52352060Y-37622614D01*
X52422386Y-37692940D01*
X52514272Y-37731000D01*
X52613728Y-37731000D01*
X52705614Y-37692940D01*
X52775940Y-37622614D01*
X52814000Y-37530728D01*
X52814000Y-38555737D01*
X52833287Y-38552683D01*
X52833300Y-38552680D01*
X53005444Y-38496748D01*
X53005447Y-38496747D01*
X53166734Y-38414565D01*
X53313169Y-38308176D01*
X53441176Y-38180169D01*
X53547565Y-38033734D01*
X53629747Y-37872447D01*
X53629748Y-37872444D01*
X53685682Y-37700293D01*
X53714000Y-37521506D01*
X53714000Y-37181000D01*
X52814000Y-37181000D01*
X52814000Y-36681000D01*
X53514824Y-36681000D01*
X53581863Y-36700685D01*
X53602505Y-36717319D01*
X53603499Y-36718313D01*
X53603500Y-36718314D01*
X53696686Y-36811500D01*
X53810814Y-36877392D01*
X53938108Y-36911500D01*
X53938110Y-36911500D01*
X54069890Y-36911500D01*
X54069892Y-36911500D01*
X54197186Y-36877392D01*
X54311314Y-36811500D01*
X54404500Y-36718314D01*
X54470392Y-36604186D01*
X54504500Y-36476892D01*
X54504500Y-36345108D01*
X59283500Y-36345108D01*
X59283500Y-36476891D01*
X59317608Y-36604187D01*
X59350554Y-36661250D01*
X59383500Y-36718314D01*
X59476686Y-36811500D01*
X59590814Y-36877392D01*
X59718108Y-36911500D01*
X59718110Y-36911500D01*
X59849889Y-36911500D01*
X59849892Y-36911500D01*
X59977186Y-36877392D01*
X60091314Y-36811500D01*
X60184500Y-36718314D01*
X60184500Y-36718313D01*
X60185495Y-36717319D01*
X60246818Y-36683834D01*
X60273176Y-36681000D01*
X60974000Y-36681000D01*
X60974000Y-37181000D01*
X60074000Y-37181000D01*
X60074000Y-37521506D01*
X60102317Y-37700293D01*
X60158251Y-37872444D01*
X60158252Y-37872447D01*
X60240434Y-38033734D01*
X60346823Y-38180169D01*
X60474830Y-38308176D01*
X60621265Y-38414565D01*
X60782552Y-38496747D01*
X60782555Y-38496748D01*
X60954699Y-38552680D01*
X60954712Y-38552683D01*
X60974000Y-38555738D01*
X60974000Y-37530728D01*
X61012060Y-37622614D01*
X61082386Y-37692940D01*
X61174272Y-37731000D01*
X61273728Y-37731000D01*
X61365614Y-37692940D01*
X61435940Y-37622614D01*
X61474000Y-37530728D01*
X61474000Y-38555737D01*
X61493287Y-38552683D01*
X61493300Y-38552680D01*
X61665444Y-38496748D01*
X61665447Y-38496747D01*
X61826734Y-38414565D01*
X61973169Y-38308176D01*
X62101176Y-38180169D01*
X62207567Y-38033732D01*
X62230694Y-37988344D01*
X62230694Y-37988343D01*
X62230695Y-37988342D01*
X62289745Y-37872451D01*
X62289748Y-37872444D01*
X62345682Y-37700293D01*
X62374000Y-37521506D01*
X62374000Y-37181000D01*
X61474000Y-37181000D01*
X61474000Y-37031803D01*
X81951000Y-37031803D01*
X81951000Y-37596000D01*
X82767988Y-37596000D01*
X82735075Y-37653007D01*
X82701000Y-37780174D01*
X82701000Y-37911826D01*
X82735075Y-38038993D01*
X82767988Y-38096000D01*
X81951001Y-38096000D01*
X81951001Y-38660197D01*
X81961400Y-38792332D01*
X82016377Y-39010519D01*
X82109428Y-39215374D01*
X82109431Y-39215380D01*
X82237559Y-39400323D01*
X82237569Y-39400335D01*
X82396664Y-39559430D01*
X82396676Y-39559440D01*
X82581619Y-39687568D01*
X82581625Y-39687571D01*
X82786480Y-39780622D01*
X83004667Y-39835599D01*
X83136810Y-39845999D01*
X83950999Y-39845999D01*
X83951000Y-39845998D01*
X83951000Y-38346000D01*
X84451000Y-38346000D01*
X84451000Y-39845999D01*
X85265182Y-39845999D01*
X85265197Y-39845998D01*
X85397332Y-39835599D01*
X85615519Y-39780622D01*
X85820374Y-39687571D01*
X85820380Y-39687568D01*
X86005323Y-39559440D01*
X86005335Y-39559430D01*
X86164430Y-39400335D01*
X86164440Y-39400323D01*
X86292568Y-39215380D01*
X86292571Y-39215374D01*
X86385622Y-39010519D01*
X86440599Y-38792332D01*
X86450999Y-38660196D01*
X86451000Y-38660184D01*
X86451000Y-38096000D01*
X85634012Y-38096000D01*
X85666925Y-38038993D01*
X85701000Y-37911826D01*
X85701000Y-37780174D01*
X85666925Y-37653007D01*
X85634012Y-37596000D01*
X86450999Y-37596000D01*
X86450999Y-37031817D01*
X86450998Y-37031802D01*
X86440599Y-36899667D01*
X86385622Y-36681480D01*
X86292571Y-36476625D01*
X86292568Y-36476619D01*
X86164440Y-36291676D01*
X86164430Y-36291664D01*
X86005335Y-36132569D01*
X86005323Y-36132559D01*
X85820380Y-36004431D01*
X85820374Y-36004428D01*
X85615519Y-35911377D01*
X85397332Y-35856400D01*
X85265196Y-35846000D01*
X84451000Y-35846000D01*
X84451000Y-37346000D01*
X83951000Y-37346000D01*
X83951000Y-35846000D01*
X83136817Y-35846000D01*
X83136802Y-35846001D01*
X83004667Y-35856400D01*
X82786480Y-35911377D01*
X82581625Y-36004428D01*
X82581619Y-36004431D01*
X82396676Y-36132559D01*
X82396664Y-36132569D01*
X82237569Y-36291664D01*
X82237559Y-36291676D01*
X82109431Y-36476619D01*
X82109428Y-36476625D01*
X82016377Y-36681480D01*
X81961400Y-36899667D01*
X81951000Y-37031803D01*
X61474000Y-37031803D01*
X61474000Y-36681000D01*
X62374000Y-36681000D01*
X62374000Y-36340493D01*
X62345682Y-36161706D01*
X62289748Y-35989555D01*
X62289747Y-35989552D01*
X62207565Y-35828265D01*
X62101176Y-35681830D01*
X61973169Y-35553823D01*
X61826734Y-35447434D01*
X61665447Y-35365252D01*
X61665441Y-35365250D01*
X61493295Y-35309318D01*
X61493285Y-35309315D01*
X61474000Y-35306260D01*
X61474000Y-36331272D01*
X61435940Y-36239386D01*
X61365614Y-36169060D01*
X61273728Y-36131000D01*
X61174272Y-36131000D01*
X61082386Y-36169060D01*
X61012060Y-36239386D01*
X60974000Y-36331272D01*
X60974000Y-35306260D01*
X60954714Y-35309315D01*
X60954704Y-35309318D01*
X60782558Y-35365250D01*
X60782552Y-35365252D01*
X60621265Y-35447434D01*
X60474830Y-35553823D01*
X60346823Y-35681830D01*
X60240432Y-35828267D01*
X60194112Y-35919175D01*
X60146138Y-35969970D01*
X60078317Y-35986765D01*
X60021628Y-35970266D01*
X59977189Y-35944609D01*
X59977186Y-35944608D01*
X59849892Y-35910500D01*
X59718108Y-35910500D01*
X59590812Y-35944608D01*
X59476686Y-36010500D01*
X59476683Y-36010502D01*
X59383502Y-36103683D01*
X59383500Y-36103686D01*
X59317608Y-36217812D01*
X59283500Y-36345108D01*
X54504500Y-36345108D01*
X54470392Y-36217814D01*
X54404500Y-36103686D01*
X54311314Y-36010500D01*
X54241114Y-35969970D01*
X54197187Y-35944608D01*
X54133539Y-35927554D01*
X54069892Y-35910500D01*
X53938108Y-35910500D01*
X53810812Y-35944608D01*
X53766370Y-35970267D01*
X53698470Y-35986739D01*
X53632443Y-35963886D01*
X53593886Y-35919174D01*
X53547565Y-35828264D01*
X53441176Y-35681830D01*
X53313169Y-35553823D01*
X53166734Y-35447434D01*
X53005447Y-35365252D01*
X53005441Y-35365250D01*
X52833295Y-35309318D01*
X52833285Y-35309315D01*
X52814000Y-35306260D01*
X52814000Y-36331272D01*
X52775940Y-36239386D01*
X52705614Y-36169060D01*
X52613728Y-36131000D01*
X52514272Y-36131000D01*
X52422386Y-36169060D01*
X52352060Y-36239386D01*
X52314000Y-36331272D01*
X52314000Y-35306260D01*
X52294714Y-35309315D01*
X52294704Y-35309318D01*
X52122558Y-35365250D01*
X52122552Y-35365252D01*
X51961265Y-35447434D01*
X51814830Y-35553823D01*
X51686823Y-35681830D01*
X51580434Y-35828265D01*
X51498252Y-35989552D01*
X51498251Y-35989555D01*
X51442317Y-36161706D01*
X51414000Y-36340493D01*
X46827307Y-36340493D01*
X46789314Y-36302500D01*
X46732250Y-36269554D01*
X46675187Y-36236608D01*
X46605038Y-36217812D01*
X46547892Y-36202500D01*
X46416108Y-36202500D01*
X46288812Y-36236608D01*
X46174686Y-36302500D01*
X46174683Y-36302502D01*
X46081502Y-36395683D01*
X46081500Y-36395686D01*
X46015608Y-36509812D01*
X45981500Y-36637108D01*
X40178500Y-36637108D01*
X40178500Y-34361000D01*
X54185759Y-34361000D01*
X54229357Y-34466254D01*
X54229362Y-34466264D01*
X54311436Y-34589096D01*
X54311439Y-34589100D01*
X54415899Y-34693560D01*
X54415907Y-34693566D01*
X54538739Y-34775640D01*
X54538743Y-34775642D01*
X54643999Y-34819240D01*
X54644000Y-34819240D01*
X55144000Y-34819240D01*
X55249256Y-34775642D01*
X55249260Y-34775640D01*
X55372092Y-34693566D01*
X55372100Y-34693560D01*
X55476560Y-34589100D01*
X55476563Y-34589096D01*
X55558637Y-34466264D01*
X55558642Y-34466254D01*
X55602241Y-34361000D01*
X58185759Y-34361000D01*
X58229357Y-34466254D01*
X58229362Y-34466264D01*
X58311436Y-34589096D01*
X58311439Y-34589100D01*
X58415899Y-34693560D01*
X58415907Y-34693566D01*
X58538739Y-34775640D01*
X58538743Y-34775642D01*
X58643999Y-34819240D01*
X58644000Y-34819240D01*
X59144000Y-34819240D01*
X59249256Y-34775642D01*
X59249260Y-34775640D01*
X59372092Y-34693566D01*
X59372100Y-34693560D01*
X59476560Y-34589100D01*
X59476563Y-34589096D01*
X59558637Y-34466264D01*
X59558642Y-34466254D01*
X59602241Y-34361000D01*
X59144000Y-34361000D01*
X59144000Y-34819240D01*
X58644000Y-34819240D01*
X58644000Y-34361000D01*
X58185759Y-34361000D01*
X55602241Y-34361000D01*
X55144000Y-34361000D01*
X55144000Y-34819240D01*
X54644000Y-34819240D01*
X54644000Y-34361000D01*
X54185759Y-34361000D01*
X40178500Y-34361000D01*
X40178500Y-33023480D01*
X40178695Y-33016527D01*
X40184248Y-32917648D01*
X41625500Y-32917648D01*
X41625500Y-33122351D01*
X41657522Y-33324534D01*
X41720781Y-33519223D01*
X41813715Y-33701613D01*
X41934028Y-33867213D01*
X42078786Y-34011971D01*
X42233749Y-34124556D01*
X42244390Y-34132287D01*
X42360607Y-34191503D01*
X42426776Y-34225218D01*
X42426778Y-34225218D01*
X42426781Y-34225220D01*
X42520703Y-34255737D01*
X42621465Y-34288477D01*
X42722557Y-34304488D01*
X42823648Y-34320500D01*
X42823649Y-34320500D01*
X43028351Y-34320500D01*
X43028352Y-34320500D01*
X43230534Y-34288477D01*
X43425219Y-34225220D01*
X43607610Y-34132287D01*
X43753859Y-34026032D01*
X43773213Y-34011971D01*
X43773215Y-34011968D01*
X43773219Y-34011966D01*
X43917966Y-33867219D01*
X43917968Y-33867215D01*
X43917971Y-33867213D01*
X43998963Y-33755735D01*
X44038287Y-33701610D01*
X44131220Y-33519219D01*
X44194477Y-33324534D01*
X44226500Y-33122352D01*
X44226500Y-32917648D01*
X44211841Y-32825095D01*
X44194477Y-32715465D01*
X44131218Y-32520776D01*
X44038287Y-32338390D01*
X44016575Y-32308506D01*
X44016574Y-32308503D01*
X43967162Y-32240493D01*
X51414000Y-32240493D01*
X51414000Y-32481000D01*
X52314000Y-32481000D01*
X52314000Y-32981000D01*
X51414000Y-32981000D01*
X51414000Y-33221506D01*
X51442317Y-33400293D01*
X51498251Y-33572444D01*
X51498252Y-33572447D01*
X51580434Y-33733734D01*
X51686823Y-33880169D01*
X51814830Y-34008176D01*
X51961265Y-34114565D01*
X52122552Y-34196747D01*
X52122555Y-34196748D01*
X52294699Y-34252680D01*
X52294712Y-34252683D01*
X52314000Y-34255738D01*
X52314000Y-33180728D01*
X52352060Y-33272614D01*
X52422386Y-33342940D01*
X52514272Y-33381000D01*
X52613728Y-33381000D01*
X52705614Y-33342940D01*
X52775940Y-33272614D01*
X52814000Y-33180728D01*
X52814000Y-34255737D01*
X52833287Y-34252683D01*
X52833300Y-34252680D01*
X52905296Y-34229288D01*
X53005444Y-34196748D01*
X53005447Y-34196747D01*
X53166734Y-34114565D01*
X53212709Y-34081163D01*
X54744000Y-34081163D01*
X54744000Y-34140837D01*
X54766836Y-34195968D01*
X54809032Y-34238164D01*
X54864163Y-34261000D01*
X54923837Y-34261000D01*
X54978968Y-34238164D01*
X55021164Y-34195968D01*
X55044000Y-34140837D01*
X55044000Y-34081163D01*
X58744000Y-34081163D01*
X58744000Y-34140837D01*
X58766836Y-34195968D01*
X58809032Y-34238164D01*
X58864163Y-34261000D01*
X58923837Y-34261000D01*
X58978968Y-34238164D01*
X59021164Y-34195968D01*
X59044000Y-34140837D01*
X59044000Y-34081163D01*
X59021164Y-34026032D01*
X58978968Y-33983836D01*
X58923837Y-33961000D01*
X58864163Y-33961000D01*
X58809032Y-33983836D01*
X58766836Y-34026032D01*
X58744000Y-34081163D01*
X55044000Y-34081163D01*
X55021164Y-34026032D01*
X54978968Y-33983836D01*
X54923837Y-33961000D01*
X54864163Y-33961000D01*
X54809032Y-33983836D01*
X54766836Y-34026032D01*
X54744000Y-34081163D01*
X53212709Y-34081163D01*
X53313169Y-34008176D01*
X53441170Y-33880175D01*
X53455102Y-33860999D01*
X54185759Y-33860999D01*
X54185759Y-33861000D01*
X54644000Y-33861000D01*
X55144000Y-33861000D01*
X55602241Y-33861000D01*
X55602240Y-33860999D01*
X58185759Y-33860999D01*
X58185759Y-33861000D01*
X58644000Y-33861000D01*
X59144000Y-33861000D01*
X59602241Y-33861000D01*
X59602240Y-33860999D01*
X59558642Y-33755745D01*
X59558637Y-33755735D01*
X59476563Y-33632903D01*
X59476560Y-33632899D01*
X59372100Y-33528439D01*
X59372096Y-33528436D01*
X59249264Y-33446362D01*
X59249254Y-33446357D01*
X59144000Y-33402759D01*
X59144000Y-33861000D01*
X58644000Y-33861000D01*
X58644000Y-33402759D01*
X58643999Y-33402759D01*
X58538745Y-33446357D01*
X58538735Y-33446362D01*
X58415903Y-33528436D01*
X58415899Y-33528439D01*
X58311439Y-33632899D01*
X58311436Y-33632903D01*
X58229362Y-33755735D01*
X58229357Y-33755745D01*
X58185759Y-33860999D01*
X55602240Y-33860999D01*
X55558642Y-33755745D01*
X55558637Y-33755735D01*
X55476563Y-33632903D01*
X55476560Y-33632899D01*
X55372100Y-33528439D01*
X55372096Y-33528436D01*
X55249264Y-33446362D01*
X55249254Y-33446357D01*
X55144000Y-33402759D01*
X55144000Y-33861000D01*
X54644000Y-33861000D01*
X54644000Y-33402759D01*
X54643999Y-33402759D01*
X54538745Y-33446357D01*
X54538735Y-33446362D01*
X54415903Y-33528436D01*
X54415899Y-33528439D01*
X54311439Y-33632899D01*
X54311436Y-33632903D01*
X54229362Y-33755735D01*
X54229357Y-33755745D01*
X54185759Y-33860999D01*
X53455102Y-33860999D01*
X53498043Y-33801896D01*
X53498045Y-33801894D01*
X53547565Y-33733734D01*
X53629747Y-33572447D01*
X53629748Y-33572444D01*
X53685682Y-33400293D01*
X53714000Y-33221506D01*
X53714000Y-32981000D01*
X52814000Y-32981000D01*
X52814000Y-32481000D01*
X53714000Y-32481000D01*
X53714000Y-32361000D01*
X54185759Y-32361000D01*
X54229357Y-32466254D01*
X54229362Y-32466264D01*
X54311436Y-32589096D01*
X54311439Y-32589100D01*
X54415899Y-32693560D01*
X54415907Y-32693566D01*
X54538739Y-32775640D01*
X54538743Y-32775642D01*
X54643999Y-32819240D01*
X54644000Y-32819240D01*
X55144000Y-32819240D01*
X55249256Y-32775642D01*
X55249260Y-32775640D01*
X55372092Y-32693566D01*
X55372100Y-32693560D01*
X55476560Y-32589100D01*
X55476563Y-32589096D01*
X55558637Y-32466264D01*
X55558642Y-32466254D01*
X55602241Y-32361000D01*
X58185759Y-32361000D01*
X58229357Y-32466254D01*
X58229362Y-32466264D01*
X58311436Y-32589096D01*
X58311439Y-32589100D01*
X58415899Y-32693560D01*
X58415907Y-32693566D01*
X58538739Y-32775640D01*
X58538743Y-32775642D01*
X58643999Y-32819240D01*
X58644000Y-32819240D01*
X59144000Y-32819240D01*
X59154051Y-32815077D01*
X59249256Y-32775642D01*
X59249260Y-32775640D01*
X59372092Y-32693566D01*
X59372100Y-32693560D01*
X59476560Y-32589100D01*
X59476563Y-32589096D01*
X59558637Y-32466264D01*
X59558642Y-32466254D01*
X59602241Y-32361000D01*
X59144000Y-32361000D01*
X59144000Y-32819240D01*
X58644000Y-32819240D01*
X58644000Y-32361000D01*
X58185759Y-32361000D01*
X55602241Y-32361000D01*
X55144000Y-32361000D01*
X55144000Y-32819240D01*
X54644000Y-32819240D01*
X54644000Y-32361000D01*
X54185759Y-32361000D01*
X53714000Y-32361000D01*
X53714000Y-32240493D01*
X53688764Y-32081163D01*
X54744000Y-32081163D01*
X54744000Y-32140837D01*
X54766836Y-32195968D01*
X54809032Y-32238164D01*
X54864163Y-32261000D01*
X54923837Y-32261000D01*
X54978968Y-32238164D01*
X55021164Y-32195968D01*
X55044000Y-32140837D01*
X55044000Y-32081163D01*
X58744000Y-32081163D01*
X58744000Y-32140837D01*
X58766836Y-32195968D01*
X58809032Y-32238164D01*
X58864163Y-32261000D01*
X58923837Y-32261000D01*
X58978968Y-32238164D01*
X59021164Y-32195968D01*
X59044000Y-32140837D01*
X59044000Y-32081163D01*
X59021164Y-32026032D01*
X58978968Y-31983836D01*
X58923837Y-31961000D01*
X58864163Y-31961000D01*
X58809032Y-31983836D01*
X58766836Y-32026032D01*
X58744000Y-32081163D01*
X55044000Y-32081163D01*
X55021164Y-32026032D01*
X54978968Y-31983836D01*
X54923837Y-31961000D01*
X54864163Y-31961000D01*
X54809032Y-31983836D01*
X54766836Y-32026032D01*
X54744000Y-32081163D01*
X53688764Y-32081163D01*
X53685682Y-32061706D01*
X53637398Y-31913099D01*
X53629748Y-31889555D01*
X53629747Y-31889552D01*
X53615198Y-31860999D01*
X54185759Y-31860999D01*
X54185759Y-31861000D01*
X54644000Y-31861000D01*
X55144000Y-31861000D01*
X55602241Y-31861000D01*
X55602240Y-31860999D01*
X58185759Y-31860999D01*
X58185759Y-31861000D01*
X58644000Y-31861000D01*
X59144000Y-31861000D01*
X59602241Y-31861000D01*
X59602240Y-31860999D01*
X59558642Y-31755745D01*
X59558637Y-31755735D01*
X59476563Y-31632903D01*
X59476560Y-31632899D01*
X59372100Y-31528439D01*
X59372096Y-31528436D01*
X59249264Y-31446362D01*
X59249254Y-31446357D01*
X59144000Y-31402759D01*
X59144000Y-31861000D01*
X58644000Y-31861000D01*
X58644000Y-31402759D01*
X58643999Y-31402759D01*
X58538745Y-31446357D01*
X58538735Y-31446362D01*
X58415903Y-31528436D01*
X58415899Y-31528439D01*
X58311439Y-31632899D01*
X58311436Y-31632903D01*
X58229362Y-31755735D01*
X58229357Y-31755745D01*
X58185759Y-31860999D01*
X55602240Y-31860999D01*
X55558642Y-31755745D01*
X55558637Y-31755735D01*
X55476563Y-31632903D01*
X55476560Y-31632899D01*
X55372100Y-31528439D01*
X55372096Y-31528436D01*
X55249264Y-31446362D01*
X55249254Y-31446357D01*
X55144000Y-31402759D01*
X55144000Y-31861000D01*
X54644000Y-31861000D01*
X54644000Y-31402759D01*
X54643999Y-31402759D01*
X54538745Y-31446357D01*
X54538735Y-31446362D01*
X54415903Y-31528436D01*
X54415899Y-31528439D01*
X54311439Y-31632899D01*
X54311436Y-31632903D01*
X54229362Y-31755735D01*
X54229357Y-31755745D01*
X54185759Y-31860999D01*
X53615198Y-31860999D01*
X53547565Y-31728265D01*
X53441176Y-31581830D01*
X53313169Y-31453823D01*
X53166734Y-31347434D01*
X53005447Y-31265252D01*
X53005441Y-31265250D01*
X52833295Y-31209318D01*
X52833285Y-31209315D01*
X52814000Y-31206260D01*
X52814000Y-32281272D01*
X52775940Y-32189386D01*
X52705614Y-32119060D01*
X52613728Y-32081000D01*
X52514272Y-32081000D01*
X52422386Y-32119060D01*
X52352060Y-32189386D01*
X52314000Y-32281272D01*
X52314000Y-31206260D01*
X52294714Y-31209315D01*
X52294704Y-31209318D01*
X52122558Y-31265250D01*
X52122552Y-31265252D01*
X51961265Y-31347434D01*
X51814830Y-31453823D01*
X51686823Y-31581830D01*
X51580434Y-31728265D01*
X51498252Y-31889552D01*
X51498251Y-31889555D01*
X51442317Y-32061706D01*
X51414000Y-32240493D01*
X43967162Y-32240493D01*
X43917971Y-32172786D01*
X43773213Y-32028028D01*
X43607613Y-31907715D01*
X43607612Y-31907714D01*
X43607610Y-31907713D01*
X43506748Y-31856321D01*
X43425223Y-31814781D01*
X43230534Y-31751522D01*
X43055995Y-31723878D01*
X43028352Y-31719500D01*
X42823648Y-31719500D01*
X42799329Y-31723351D01*
X42621465Y-31751522D01*
X42426776Y-31814781D01*
X42244386Y-31907715D01*
X42078786Y-32028028D01*
X41934028Y-32172786D01*
X41813715Y-32338386D01*
X41720781Y-32520776D01*
X41657522Y-32715465D01*
X41625500Y-32917648D01*
X40184248Y-32917648D01*
X40184912Y-32905823D01*
X40188355Y-32844513D01*
X40195386Y-32719319D01*
X40196940Y-32705522D01*
X40246219Y-32415486D01*
X40249313Y-32401934D01*
X40289916Y-32261000D01*
X40330755Y-32119242D01*
X40335347Y-32106122D01*
X40402245Y-31944615D01*
X40447925Y-31834330D01*
X40453947Y-31821824D01*
X40596265Y-31564321D01*
X40603643Y-31552578D01*
X40773902Y-31312621D01*
X40782540Y-31301789D01*
X40978593Y-31082405D01*
X40988405Y-31072593D01*
X41207789Y-30876540D01*
X41218621Y-30867902D01*
X41458578Y-30697643D01*
X41470321Y-30690265D01*
X41727824Y-30547947D01*
X41740330Y-30541925D01*
X42012122Y-30429347D01*
X42025242Y-30424755D01*
X42307939Y-30343311D01*
X42321486Y-30340219D01*
X42611522Y-30290940D01*
X42625319Y-30289386D01*
X42922528Y-30272695D01*
X42929481Y-30272500D01*
X42973595Y-30272500D01*
X62660501Y-30272500D01*
X62727540Y-30292185D01*
G37*
%TD.AperFunction*%
%TD*%
M02*
