%TF.GenerationSoftware,KiCad,Pcbnew,9.0.2*%
%TF.CreationDate,2025-05-24T18:08:54+02:00*%
%TF.ProjectId,CCFL2LED,4343464c-324c-4454-942e-6b696361645f,rev?*%
%TF.SameCoordinates,Original*%
%TF.FileFunction,Legend,Bot*%
%TF.FilePolarity,Positive*%
%FSLAX46Y46*%
G04 Gerber Fmt 4.6, Leading zero omitted, Abs format (unit mm)*
G04 Created by KiCad (PCBNEW 9.0.2) date 2025-05-24 18:08:54*
%MOMM*%
%LPD*%
G01*
G04 APERTURE LIST*
G04 Aperture macros list*
%AMRoundRect*
0 Rectangle with rounded corners*
0 $1 Rounding radius*
0 $2 $3 $4 $5 $6 $7 $8 $9 X,Y pos of 4 corners*
0 Add a 4 corners polygon primitive as box body*
4,1,4,$2,$3,$4,$5,$6,$7,$8,$9,$2,$3,0*
0 Add four circle primitives for the rounded corners*
1,1,$1+$1,$2,$3*
1,1,$1+$1,$4,$5*
1,1,$1+$1,$6,$7*
1,1,$1+$1,$8,$9*
0 Add four rect primitives between the rounded corners*
20,1,$1+$1,$2,$3,$4,$5,0*
20,1,$1+$1,$4,$5,$6,$7,0*
20,1,$1+$1,$6,$7,$8,$9,0*
20,1,$1+$1,$8,$9,$2,$3,0*%
G04 Aperture macros list end*
%ADD10C,0.150000*%
%ADD11O,1.560000X2.540000*%
%ADD12C,2.200000*%
%ADD13R,1.700000X1.700000*%
%ADD14C,1.700000*%
%ADD15R,2.540000X2.540000*%
%ADD16C,2.540000*%
%ADD17R,3.500000X3.500000*%
%ADD18RoundRect,0.750000X-1.000000X0.750000X-1.000000X-0.750000X1.000000X-0.750000X1.000000X0.750000X0*%
%ADD19RoundRect,0.875000X-0.875000X0.875000X-0.875000X-0.875000X0.875000X-0.875000X0.875000X0.875000X0*%
%ADD20C,0.600000*%
%ADD21O,1.300000X2.300000*%
%ADD22O,1.300000X2.100000*%
%ADD23C,0.500000*%
G04 APERTURE END LIST*
D10*
X69783438Y-108937588D02*
X69735819Y-108842350D01*
X69735819Y-108842350D02*
X69735819Y-108699493D01*
X69735819Y-108699493D02*
X69783438Y-108556636D01*
X69783438Y-108556636D02*
X69878676Y-108461398D01*
X69878676Y-108461398D02*
X69973914Y-108413779D01*
X69973914Y-108413779D02*
X70164390Y-108366160D01*
X70164390Y-108366160D02*
X70307247Y-108366160D01*
X70307247Y-108366160D02*
X70497723Y-108413779D01*
X70497723Y-108413779D02*
X70592961Y-108461398D01*
X70592961Y-108461398D02*
X70688200Y-108556636D01*
X70688200Y-108556636D02*
X70735819Y-108699493D01*
X70735819Y-108699493D02*
X70735819Y-108794731D01*
X70735819Y-108794731D02*
X70688200Y-108937588D01*
X70688200Y-108937588D02*
X70640580Y-108985207D01*
X70640580Y-108985207D02*
X70307247Y-108985207D01*
X70307247Y-108985207D02*
X70307247Y-108794731D01*
X70735819Y-109413779D02*
X69735819Y-109413779D01*
X69735819Y-109413779D02*
X70735819Y-109985207D01*
X70735819Y-109985207D02*
X69735819Y-109985207D01*
X70735819Y-110461398D02*
X69735819Y-110461398D01*
X69735819Y-110461398D02*
X69735819Y-110699493D01*
X69735819Y-110699493D02*
X69783438Y-110842350D01*
X69783438Y-110842350D02*
X69878676Y-110937588D01*
X69878676Y-110937588D02*
X69973914Y-110985207D01*
X69973914Y-110985207D02*
X70164390Y-111032826D01*
X70164390Y-111032826D02*
X70307247Y-111032826D01*
X70307247Y-111032826D02*
X70497723Y-110985207D01*
X70497723Y-110985207D02*
X70592961Y-110937588D01*
X70592961Y-110937588D02*
X70688200Y-110842350D01*
X70688200Y-110842350D02*
X70735819Y-110699493D01*
X70735819Y-110699493D02*
X70735819Y-110461398D01*
X77403438Y-108937588D02*
X77355819Y-108842350D01*
X77355819Y-108842350D02*
X77355819Y-108699493D01*
X77355819Y-108699493D02*
X77403438Y-108556636D01*
X77403438Y-108556636D02*
X77498676Y-108461398D01*
X77498676Y-108461398D02*
X77593914Y-108413779D01*
X77593914Y-108413779D02*
X77784390Y-108366160D01*
X77784390Y-108366160D02*
X77927247Y-108366160D01*
X77927247Y-108366160D02*
X78117723Y-108413779D01*
X78117723Y-108413779D02*
X78212961Y-108461398D01*
X78212961Y-108461398D02*
X78308200Y-108556636D01*
X78308200Y-108556636D02*
X78355819Y-108699493D01*
X78355819Y-108699493D02*
X78355819Y-108794731D01*
X78355819Y-108794731D02*
X78308200Y-108937588D01*
X78308200Y-108937588D02*
X78260580Y-108985207D01*
X78260580Y-108985207D02*
X77927247Y-108985207D01*
X77927247Y-108985207D02*
X77927247Y-108794731D01*
X78355819Y-109413779D02*
X77355819Y-109413779D01*
X77355819Y-109413779D02*
X78355819Y-109985207D01*
X78355819Y-109985207D02*
X77355819Y-109985207D01*
X78355819Y-110461398D02*
X77355819Y-110461398D01*
X77355819Y-110461398D02*
X77355819Y-110699493D01*
X77355819Y-110699493D02*
X77403438Y-110842350D01*
X77403438Y-110842350D02*
X77498676Y-110937588D01*
X77498676Y-110937588D02*
X77593914Y-110985207D01*
X77593914Y-110985207D02*
X77784390Y-111032826D01*
X77784390Y-111032826D02*
X77927247Y-111032826D01*
X77927247Y-111032826D02*
X78117723Y-110985207D01*
X78117723Y-110985207D02*
X78212961Y-110937588D01*
X78212961Y-110937588D02*
X78308200Y-110842350D01*
X78308200Y-110842350D02*
X78355819Y-110699493D01*
X78355819Y-110699493D02*
X78355819Y-110461398D01*
X67687866Y-107397779D02*
X67687866Y-108159684D01*
X68068819Y-107778731D02*
X67306914Y-107778731D01*
X68068819Y-109159683D02*
X68068819Y-108588255D01*
X68068819Y-108873969D02*
X67068819Y-108873969D01*
X67068819Y-108873969D02*
X67211676Y-108778731D01*
X67211676Y-108778731D02*
X67306914Y-108683493D01*
X67306914Y-108683493D02*
X67354533Y-108588255D01*
X67164057Y-109540636D02*
X67116438Y-109588255D01*
X67116438Y-109588255D02*
X67068819Y-109683493D01*
X67068819Y-109683493D02*
X67068819Y-109921588D01*
X67068819Y-109921588D02*
X67116438Y-110016826D01*
X67116438Y-110016826D02*
X67164057Y-110064445D01*
X67164057Y-110064445D02*
X67259295Y-110112064D01*
X67259295Y-110112064D02*
X67354533Y-110112064D01*
X67354533Y-110112064D02*
X67497390Y-110064445D01*
X67497390Y-110064445D02*
X68068819Y-109493017D01*
X68068819Y-109493017D02*
X68068819Y-110112064D01*
X67068819Y-110397779D02*
X68068819Y-110731112D01*
X68068819Y-110731112D02*
X67068819Y-111064445D01*
X75333065Y-109556779D02*
X75333065Y-109890112D01*
X75856875Y-110032969D02*
X75856875Y-109556779D01*
X75856875Y-109556779D02*
X74856875Y-109556779D01*
X74856875Y-109556779D02*
X74856875Y-110032969D01*
X75856875Y-110461541D02*
X74856875Y-110461541D01*
X74856875Y-110461541D02*
X75856875Y-111032969D01*
X75856875Y-111032969D02*
X74856875Y-111032969D01*
X80514866Y-108286779D02*
X80514866Y-109048684D01*
X80895819Y-108667731D02*
X80133914Y-108667731D01*
X79895819Y-110001064D02*
X79895819Y-109524874D01*
X79895819Y-109524874D02*
X80372009Y-109477255D01*
X80372009Y-109477255D02*
X80324390Y-109524874D01*
X80324390Y-109524874D02*
X80276771Y-109620112D01*
X80276771Y-109620112D02*
X80276771Y-109858207D01*
X80276771Y-109858207D02*
X80324390Y-109953445D01*
X80324390Y-109953445D02*
X80372009Y-110001064D01*
X80372009Y-110001064D02*
X80467247Y-110048683D01*
X80467247Y-110048683D02*
X80705342Y-110048683D01*
X80705342Y-110048683D02*
X80800580Y-110001064D01*
X80800580Y-110001064D02*
X80848200Y-109953445D01*
X80848200Y-109953445D02*
X80895819Y-109858207D01*
X80895819Y-109858207D02*
X80895819Y-109620112D01*
X80895819Y-109620112D02*
X80848200Y-109524874D01*
X80848200Y-109524874D02*
X80800580Y-109477255D01*
X79895819Y-110334398D02*
X80895819Y-110667731D01*
X80895819Y-110667731D02*
X79895819Y-111001064D01*
X73275819Y-108921779D02*
X72275819Y-108921779D01*
X72275819Y-108921779D02*
X72275819Y-109159874D01*
X72275819Y-109159874D02*
X72323438Y-109302731D01*
X72323438Y-109302731D02*
X72418676Y-109397969D01*
X72418676Y-109397969D02*
X72513914Y-109445588D01*
X72513914Y-109445588D02*
X72704390Y-109493207D01*
X72704390Y-109493207D02*
X72847247Y-109493207D01*
X72847247Y-109493207D02*
X73037723Y-109445588D01*
X73037723Y-109445588D02*
X73132961Y-109397969D01*
X73132961Y-109397969D02*
X73228200Y-109302731D01*
X73228200Y-109302731D02*
X73275819Y-109159874D01*
X73275819Y-109159874D02*
X73275819Y-108921779D01*
X73275819Y-109921779D02*
X72275819Y-109921779D01*
X73275819Y-110397969D02*
X72275819Y-110397969D01*
X72275819Y-110397969D02*
X72990104Y-110731302D01*
X72990104Y-110731302D02*
X72275819Y-111064635D01*
X72275819Y-111064635D02*
X73275819Y-111064635D01*
%LPC*%
D11*
%TO.C,SW1*%
X63504000Y-31605000D03*
X76704000Y-31605000D03*
X65404000Y-40005000D03*
X70104000Y-40005000D03*
X74804000Y-40005000D03*
%TD*%
D12*
%TO.C,H1*%
X92075000Y-33020000D03*
%TD*%
D13*
%TO.C,J4*%
X80391000Y-112900500D03*
D14*
X77851000Y-112900500D03*
X75311000Y-112900500D03*
X72771000Y-112900500D03*
X70231000Y-112900500D03*
X67691000Y-112900500D03*
%TD*%
D12*
%TO.C,H4*%
X92075000Y-112014000D03*
%TD*%
D13*
%TO.C,+  -*%
X43459000Y-59807000D03*
D14*
X43459000Y-62347000D03*
%TD*%
D12*
%TO.C,H2*%
X42926000Y-33020000D03*
%TD*%
D15*
%TO.C,U7*%
X86868000Y-59687500D03*
D16*
X69088000Y-59687500D03*
X69088000Y-100327500D03*
X86868000Y-100327500D03*
%TD*%
D17*
%TO.C,J3*%
X84201000Y-43846000D03*
D18*
X84201000Y-37846000D03*
D19*
X79501000Y-40846000D03*
%TD*%
D12*
%TO.C,H3*%
X42926000Y-112014000D03*
%TD*%
D13*
%TO.C,J7*%
X66929000Y-46355000D03*
D14*
X66929000Y-48895000D03*
%TD*%
D13*
%TO.C,+  -*%
X43586000Y-93492000D03*
D14*
X43586000Y-96032000D03*
%TD*%
D20*
%TO.C,J2*%
X59784000Y-36411000D03*
X54004000Y-36411000D03*
D21*
X61224000Y-36931000D03*
D22*
X61224000Y-32731000D03*
D23*
X58894000Y-34111000D03*
X58894000Y-32111000D03*
X54894000Y-34111000D03*
X54894000Y-32111000D03*
D21*
X52564000Y-36931000D03*
D22*
X52564000Y-32731000D03*
%TD*%
%LPD*%
M02*
